<svg width="40" height="40" viewBox="0 0 40 40" fill="none" xmlns="http://www.w3.org/2000/svg">
<mask id="mask0_1_10941" style="mask-type:luminance" maskUnits="userSpaceOnUse" x="0" y="0" width="40" height="40">
<path d="M0.177063 0.5625H39.1771V39.5625H0.177063V0.5625Z" fill="white"/>
</mask>
<g mask="url(#mask0_1_10941)">
<path fill-rule="evenodd" clip-rule="evenodd" d="M19.6771 39.5625C30.4479 39.5625 39.1771 30.8333 39.1771 20.0625C39.1771 9.29167 30.4479 0.5625 19.6771 0.5625C8.90623 0.5625 0.177063 9.29167 0.177063 20.0625C0.177063 30.8333 8.90623 39.5625 19.6771 39.5625ZM10.8229 11.7656L19.6771 18.8542L28.5312 11.7656L28.7916 11.5521H10.5625L10.8229 11.7656ZM29.7344 13.224L30.0781 12.9427V27.625C30.0781 28.151 29.6562 28.5729 29.1302 28.5729H10.2239C9.6979 28.5729 9.27602 28.151 9.27602 27.625V12.9427L9.61456 13.224L9.63019 13.2396L19.0885 20.8021C19.4323 21.0781 19.9219 21.0781 20.2656 20.8021L29.7239 13.2396L29.7344 13.224Z" fill="white"/>
</g>
</svg>
