<svg width="40" height="40" viewBox="0 0 40 40" fill="none" xmlns="http://www.w3.org/2000/svg">
<mask id="mask0_1_10936" style="mask-type:luminance" maskUnits="userSpaceOnUse" x="0" y="0" width="40" height="40">
<path d="M0.177063 0.666626H39.1771V39.6666H0.177063V0.666626Z" fill="white"/>
</mask>
<g mask="url(#mask0_1_10936)">
<path d="M33.5209 6.3385C29.875 2.67183 25.0209 0.666626 19.8542 0.666626C9.20315 0.666626 0.526062 9.34371 0.526062 19.9895C0.526062 23.401 1.4271 26.7187 3.10419 29.6406L0.369812 39.6666L10.6094 36.9739C13.4375 38.5156 16.6146 39.3333 19.8542 39.3333C30.5 39.3333 39.1771 30.6562 39.1771 20.0104C39.1771 14.8437 37.1667 9.98433 33.5209 6.3385ZM19.8542 36.0573C16.9688 36.0573 14.1406 35.276 11.6615 33.8177L11.0781 33.4635L4.99481 35.0625L6.6094 29.1354L6.22398 28.5312C4.62502 25.9791 3.76565 23.0104 3.76565 19.9895C3.76565 11.1354 10.9792 3.92183 19.8334 3.92183C24.125 3.92183 28.1615 5.59892 31.1823 8.64058C34.224 11.6823 35.8802 15.7187 35.8802 20.0104C35.9219 28.8645 28.7031 36.0573 19.8542 36.0573ZM28.6667 24.0468C28.1771 23.8125 25.8021 22.6406 25.3698 22.4687C24.9219 22.3125 24.6094 22.2343 24.2813 22.7031C23.9479 23.1875 23.0313 24.2812 22.7604 24.5937C22.4844 24.9218 22.1927 24.9635 21.7031 24.7083C21.2188 24.4739 19.6563 23.9479 17.8229 22.3125C16.3802 21.026 15.4271 19.4427 15.1354 18.9583C14.8594 18.4687 15.0938 18.2135 15.349 17.9635C15.5625 17.75 15.8334 17.3958 16.0677 17.125C16.3021 16.8489 16.4011 16.6354 16.5573 16.3229C16.7136 15.9948 16.6354 15.7187 16.5156 15.4843C16.4011 15.25 15.4271 12.875 15.0365 11.8958C14.6459 10.9635 14.2344 11.0781 13.9427 11.0573C13.6511 11.0573 13.3386 11.0573 13.0104 11.0573C12.6771 11.0573 12.1719 11.177 11.7188 11.6614C11.2917 12.151 10.0417 13.3229 10.0417 15.6979C10.0417 18.0781 11.7813 20.3802 12.0156 20.6927C12.25 21.026 15.4271 25.901 20.2604 27.9843C21.4115 28.4948 22.3073 28.7864 23.0104 29C24.1615 29.3698 25.2136 29.3125 26.0521 29.1927C26.9896 29.0573 28.9219 28.026 29.3125 26.8958C29.7188 25.7604 29.7188 24.8073 29.5834 24.5937C29.4479 24.3802 29.1563 24.2812 28.6667 24.0468Z" fill="white"/>
</g>
</svg>
