<svg width="67" height="49" viewBox="0 0 67 49" fill="none" xmlns="http://www.w3.org/2000/svg">
<mask id="mask0_3_535" style="mask-type:luminance" maskUnits="userSpaceOnUse" x="2" y="0" width="65" height="49">
<path d="M2.66663 0.453125H66.4479V48.4531H2.66663V0.453125Z" fill="white"/>
</mask>
<g mask="url(#mask0_3_535)">
<path d="M64.5937 13.8229C62.177 12.2969 59.4166 11.4167 56.8749 10.1458C54.2812 8.84895 44.3385 2.90624 41.7135 1.68749C40.6458 1.18749 39.3489 0.411453 38.1406 0.458328C36.9478 0.499994 36.2395 1.53645 35.9947 2.55729C33.0937 14.7604 5.89056 38.1042 3.05722 44.151C2.50514 45.3281 2.52597 47.9375 4.39056 48.3854C5.58847 48.6719 11.1353 47.9479 12.7031 47.6979C19.0937 46.6875 25.4739 45.6406 31.8437 44.5521C38.2187 43.4635 54.6041 40.5365 55.1562 40.1771C56.177 39.5052 64.0051 23.224 65.1354 20.4219C65.6354 19.1667 66.4531 17.6875 66.4479 16.3073C66.4426 15.0937 65.5208 14.4115 64.5937 13.8229Z" fill="#4F443E"/>
</g>
<mask id="mask1_3_535" style="mask-type:luminance" maskUnits="userSpaceOnUse" x="0" y="6" width="59" height="39">
<path d="M0.479126 6H58.6666V44.6667H0.479126V6Z" fill="white"/>
</mask>
<g mask="url(#mask1_3_535)">
<path d="M57.4896 19.3958C56.7448 18.7552 35.4948 6.43744 34.6146 6.47911C33.8385 6.52078 2.71354 26.6406 0.625 28.4166C0.552083 28.4791 0.515625 28.5208 0.515625 28.5364C0.53125 31.276 2.74479 43.8177 3.05729 44.151C3.32813 44.4374 30.2448 40.3749 35.9844 39.4218C38.8542 38.9427 50.2969 37.1666 53.0938 36.5624C54.2448 36.3177 57.1979 21.776 57.5104 19.4166C57.5104 19.4166 57.5052 19.4062 57.4896 19.3958Z" fill="#FCFBC7"/>
</g>
<mask id="mask2_3_535" style="mask-type:luminance" maskUnits="userSpaceOnUse" x="0" y="6" width="59" height="23">
<path d="M0.479126 6H58.6666V28.6667H0.479126V6Z" fill="white"/>
</mask>
<g mask="url(#mask2_3_535)">
<path d="M36.9375 23.0312C43.6302 22.0416 50.7604 20.7708 57.4896 19.3958C56.7448 18.7552 35.4948 6.43744 34.6146 6.47911C33.8385 6.52078 2.71354 26.6406 0.625 28.4166C8.28125 26.9374 15.9531 25.8854 23.6875 24.7916C28.099 24.1666 32.5313 23.677 36.9375 23.0312Z" fill="#FBCCB2"/>
</g>
<path d="M17.4635 20.5834C17.4479 20.6199 17.4323 20.6563 17.4167 20.6928C17.2917 20.5938 17.1615 20.5105 17.0156 20.4324C16.6979 20.2709 16.3594 20.1615 16.0208 20.1095C16.0208 20.0678 16.0156 20.0261 16.0104 19.9793C15.9479 19.672 15.9844 19.3386 16.1198 19.0418C16.1875 18.8959 16.276 18.7605 16.3698 18.6668C16.4167 18.6199 16.4844 18.573 16.6302 18.5626C16.651 18.5626 16.6771 18.5626 16.6979 18.5626C16.9948 18.5626 17.3073 18.6459 17.5781 18.797C17.875 18.9636 18.125 19.2136 18.2865 19.5001C18.3073 19.5313 18.3281 19.5626 18.349 19.5886C17.9792 19.8178 17.6719 20.1668 17.4635 20.5834ZM15.2604 18.6459C15.2448 18.672 15.2344 18.698 15.224 18.7293C15.151 18.672 15.0781 18.6147 15 18.5678C14.75 18.4063 14.4792 18.297 14.1875 18.2397C14.1563 18.2345 14.1198 18.2293 14.0885 18.224C14.1146 18.172 14.125 18.1095 14.125 18.047V18.0209C14.1042 17.6563 14.1042 17.2813 14.2188 16.974C14.2969 16.7501 14.4844 16.6095 14.7396 16.5938C14.7708 16.5938 14.8021 16.5886 14.8333 16.5886C15.1094 16.5886 15.3854 16.6772 15.6198 16.8334C15.8906 17.0053 16.0938 17.2657 16.1875 17.547C16.2031 17.5938 16.224 17.6355 16.25 17.672C16.2083 17.6876 16.1667 17.698 16.125 17.7136C15.9792 17.7709 15.8385 17.8647 15.7135 17.9845C15.5313 18.1668 15.3854 18.3751 15.2604 18.6459ZM14.2708 20.4376C14.1042 20.5418 13.974 20.6824 13.8698 20.797C13.7604 20.9272 13.6719 21.073 13.5938 21.2397C13.526 21.3803 13.4792 21.5313 13.4375 21.6928C13.4115 21.672 13.3854 21.6563 13.3594 21.6355C13.125 21.4845 12.8542 21.3647 12.5521 21.2918C12.5573 21.2813 12.5625 21.2657 12.5625 21.2501C12.6563 20.8438 12.8073 20.4376 13.0052 20.047C13.099 19.8543 13.2083 19.6668 13.3229 19.4897C13.4063 19.3751 13.5156 19.2136 13.5885 19.1876C13.6198 19.172 13.6823 19.1563 13.7865 19.1563C13.8594 19.1563 13.9375 19.1668 14.0156 19.1824C14.1771 19.2136 14.3385 19.2813 14.4896 19.3803C14.7552 19.5522 14.9635 19.823 15.0573 20.1199C14.7552 20.1824 14.4844 20.2865 14.2708 20.4376ZM12.4219 16.1043C12.5156 15.823 12.6302 15.5105 12.8073 15.2865C12.8854 15.1824 12.9844 15.099 13.0833 15.047C13.1823 14.9897 13.3021 14.9532 13.4271 14.948C13.4583 14.9428 13.4844 14.9428 13.5156 14.9428C13.75 14.9428 13.9844 15.0105 14.1979 15.1459C14.3854 15.2605 14.5677 15.4168 14.7448 15.6303C14.7187 15.6303 14.6927 15.6303 14.6667 15.6355C14.3385 15.6563 14.0573 15.7605 13.849 15.922C13.6146 16.0938 13.4688 16.323 13.3802 16.5157C13.1042 16.297 12.776 16.1563 12.4219 16.1043ZM13.5781 13.9272C13.6354 13.6511 13.7396 13.3959 13.8854 13.1615C13.9167 13.1147 14 12.9793 14.0729 12.9324C14.1302 12.8959 14.2292 12.8647 14.349 12.8438C14.4115 12.8334 14.4792 12.8282 14.5469 12.8282C14.7135 12.8282 14.8906 12.8595 15.0521 12.922C15.1719 12.974 15.2813 13.0313 15.3802 13.1095C15.4167 13.1355 15.4583 13.172 15.4948 13.2032C15.5 13.2293 15.5052 13.2553 15.5156 13.2813C15.5573 13.3959 15.651 13.4845 15.7604 13.5209C15.6198 13.5626 15.4844 13.6303 15.3698 13.724C15.1875 13.8751 15.0417 14.0678 14.9375 14.3022C14.9167 14.349 14.8958 14.4011 14.8802 14.448C14.8125 14.4011 14.75 14.3595 14.6823 14.3178C14.3333 14.1147 13.9531 14.0053 13.5781 14.0053C13.5729 14.0053 13.5625 14.0053 13.5521 14.0053C13.5625 13.9845 13.5729 13.9584 13.5781 13.9272ZM16.1198 14.3959C16.2656 14.3959 16.4688 14.5105 16.6719 14.7136C16.7188 14.7605 16.7656 14.8074 16.8073 14.8543C16.9375 14.9949 17.0521 15.1615 17.151 15.3438C17.0938 15.3647 17.0313 15.3959 16.974 15.4272C16.8646 15.4845 16.7656 15.5574 16.6771 15.6355C16.5208 15.7761 16.3906 15.9584 16.3021 16.1563C16.25 16.1147 16.1979 16.073 16.1406 16.0365C15.9792 15.9272 15.8021 15.8386 15.625 15.7709C15.6875 15.6876 15.724 15.5886 15.7188 15.474C15.7188 15.1615 15.7187 14.8907 15.8073 14.6772C15.875 14.5105 16 14.3959 16.1198 14.3959ZM20.1771 19.3751C19.9531 19.3022 19.7188 19.2657 19.4844 19.2657C19.3594 19.2657 19.2344 19.2761 19.1146 19.297C19.1146 19.2657 19.1146 19.2345 19.1094 19.2032C19.0677 18.9636 19.0781 18.7032 19.1458 18.448C19.1771 18.3022 19.2292 18.1668 19.2917 18.0365C19.474 17.6615 19.7604 17.3543 20.1094 17.1668C20.2917 17.073 20.3646 16.8438 20.276 16.6563C20.2135 16.5209 20.0781 16.4272 19.9219 16.4272C19.8698 16.4272 19.8125 16.4428 19.7604 16.4636C19.2552 16.7032 18.8229 17.1199 18.5417 17.6459C18.4635 17.797 18.3958 17.9584 18.3385 18.1355C18.3333 18.1563 18.3281 18.172 18.3177 18.1928C18.2292 18.1199 18.1302 18.0574 18.0313 17.9949C17.7187 17.8074 17.375 17.6876 17.026 17.6407C17.0781 17.5574 17.099 17.4636 17.0938 17.3595C17.0677 17.073 17.0469 16.7709 17.1302 16.5365C17.1771 16.3907 17.2813 16.2918 17.3646 16.2345C17.4271 16.1928 17.4896 16.1563 17.5521 16.1355C17.6615 16.0938 17.776 16.073 17.8958 16.073C18.0156 16.073 18.1406 16.0938 18.2604 16.1355C18.3333 16.1615 18.4063 16.1928 18.5 16.2397C18.5469 16.2657 18.5938 16.2865 18.6354 16.3126C18.7552 16.3855 18.8698 16.474 18.9792 16.5678C19.0521 16.6303 19.1406 16.6668 19.2344 16.6668C19.3385 16.6668 19.4375 16.6251 19.5104 16.5522C19.5833 16.474 19.625 16.3751 19.625 16.2709C19.625 16.1668 19.5833 16.0678 19.5104 15.9949C19.3646 15.849 19.2187 15.724 19.0573 15.6147C19 15.5782 18.9427 15.5418 18.8802 15.5105C18.7552 15.4376 18.6458 15.3803 18.5365 15.3438C18.3385 15.2657 18.125 15.2188 17.9167 15.2084C17.9167 15.1668 17.9063 15.1199 17.8906 15.0782C17.7604 14.7345 17.5625 14.4115 17.3021 14.1147L17.2917 14.1043C17.1458 13.9376 16.9844 13.8022 16.8229 13.698C16.599 13.5574 16.3646 13.4793 16.1406 13.4688C16.125 13.4688 16.1146 13.4688 16.099 13.4688C16.1615 13.4324 16.2135 13.3751 16.2448 13.3126C16.2813 13.2501 16.3021 13.1772 16.3021 13.0938C16.3021 12.9949 16.276 12.9168 16.2552 12.8647C16.2344 12.8178 16.2083 12.7813 16.1927 12.7501L16.151 12.6876C16.0938 12.6043 16.026 12.5261 15.9427 12.4376C15.7917 12.2918 15.6146 12.1668 15.4271 12.073C15.1458 11.9376 14.8333 11.8595 14.5208 11.8595C14.4063 11.8595 14.2969 11.8699 14.1771 11.8907C13.9792 11.9324 13.75 11.9897 13.5313 12.1511C13.3073 12.323 13.1823 12.5313 13.0938 12.698C12.9063 13.0522 12.8073 13.4532 12.8125 13.8595C12.8177 13.9584 12.8594 14.0574 12.9271 14.1251C12.8281 14.1615 12.7292 14.2084 12.6406 14.2657C12.4375 14.3855 12.2552 14.5626 12.1094 14.7709C11.8385 15.1772 11.7292 15.6199 11.6615 15.9584C11.651 16.0209 11.651 16.0834 11.6719 16.1407C11.4635 16.1928 11.276 16.2709 11.1042 16.3855C10.9635 16.474 10.8438 16.599 10.7552 16.7345C10.6719 16.8647 10.6146 16.9949 10.5729 17.1043C10.401 17.5574 10.3073 18.0209 10.2813 18.4897C10.276 18.6928 10.4219 18.8699 10.625 18.8959H10.6719C10.8646 18.8959 11.0313 18.7501 11.0521 18.5522C11.099 18.1563 11.1979 17.7761 11.349 17.422C11.4167 17.2657 11.4792 17.1772 11.5677 17.1251C11.6875 17.0522 11.8333 17.0053 11.9844 16.9897C12.0208 16.9845 12.0573 16.9845 12.099 16.9845C12.3698 16.9845 12.6302 17.0834 12.8177 17.2553C13.0417 17.4636 13.1823 17.7605 13.1875 18.047V18.0886C13.1927 18.1668 13.2188 18.2345 13.2552 18.297C13.0833 18.3647 12.9167 18.4845 12.7917 18.6355C12.7031 18.7345 12.6406 18.8282 12.5833 18.9168L12.5469 18.9688C12.4115 19.1772 12.2813 19.3959 12.1719 19.6251C12.1458 19.6824 12.1146 19.7397 12.0885 19.797C11.8906 19.5522 11.6458 19.349 11.375 19.198C11.0677 19.0313 10.7135 18.9168 10.3281 18.8543C10.1094 18.823 9.88542 18.8074 9.64063 18.8074C9.52083 18.8074 9.40104 18.8074 9.28646 18.8178C9.07813 18.8282 8.91667 19.0001 8.92188 19.2084C8.92188 19.422 9.09375 19.5938 9.30729 19.5938H9.35417C9.66146 19.5938 9.9375 19.6199 10.1875 19.6668C10.4792 19.724 10.7344 19.8178 10.9531 19.948C11.1771 20.0834 11.3594 20.2657 11.4948 20.474C11.625 20.6824 11.6875 20.9115 11.6771 21.1251C11.6719 21.1459 11.6719 21.1615 11.6771 21.1824C11.6615 21.1824 11.651 21.1824 11.6354 21.1824C11.5052 21.1824 11.3802 21.1928 11.2708 21.2136C10.9583 21.2605 10.6667 21.448 10.4896 21.7084C10.3073 21.9688 10.2344 22.2553 10.1979 22.448C10.1563 22.698 10.1458 22.9376 10.1458 23.1407C10.1458 23.349 10.3073 23.5209 10.5104 23.5313H10.5313C10.7396 23.5313 10.9063 23.3699 10.9167 23.1615C10.9323 22.9428 10.9531 22.7657 10.9896 22.6147C11.026 22.4324 11.0833 22.297 11.1563 22.2084C11.2187 22.1251 11.3021 22.0782 11.3958 22.0626C11.4427 22.0574 11.4948 22.0522 11.5573 22.0522C11.6667 22.0522 11.7865 22.0626 11.9063 22.073C12.2917 22.1199 12.6146 22.224 12.8594 22.3959C13.1146 22.573 13.2969 22.8334 13.3438 23.0886C13.3802 23.3126 13.5729 23.4793 13.8021 23.4793C14.0573 23.474 14.2656 23.2657 14.2656 23.0053C14.2604 22.4793 14.2708 22.0157 14.4479 21.6355C14.5885 21.3178 14.9167 21.099 15.3229 21.0522C15.401 21.0418 15.4844 21.0418 15.5625 21.0418C15.9115 21.0418 16.2708 21.1251 16.5833 21.2865C16.7708 21.3855 16.9375 21.5105 17.0573 21.6511C17.125 21.7397 17.1771 21.8334 17.2031 21.9324C17.2135 22.0209 17.224 22.0938 17.2344 22.1668C17.2813 22.3907 17.4687 22.5522 17.6979 22.5522C17.9531 22.5522 18.1615 22.3386 18.1615 22.0834C18.1667 21.9845 18.1563 21.8751 18.1302 21.7709C18.1198 21.5053 18.1771 21.2345 18.2865 20.9845C18.4375 20.6615 18.6771 20.4063 18.9688 20.2657C19.1406 20.1772 19.3438 20.1355 19.5521 20.1355C19.6875 20.1355 19.8177 20.1511 19.9479 20.1876C20.2865 20.2761 20.5781 20.4897 20.7448 20.7605C20.8125 20.8751 20.9427 20.948 21.0781 20.948C21.1406 20.948 21.2031 20.9324 21.2604 20.9011C21.4479 20.797 21.5208 20.5626 21.4167 20.3699C21.1719 19.9063 20.7188 19.5418 20.1771 19.3751ZM32.5156 15.9011C32.3958 15.7709 32.2604 15.6459 32.1146 15.5418C31.901 15.3855 31.6615 15.2553 31.4063 15.1615C31.3437 15.1407 31.2865 15.1199 31.224 15.1043C31.1667 15.0834 31.1146 15.0678 31.0521 15.0574C31.0469 15.0522 31.0417 15.0522 31.0313 15.0522C31.1042 14.7397 31.2292 14.4324 31.401 14.1355C31.4167 14.1095 31.4323 14.0886 31.4479 14.0626L31.474 14.0209C31.5469 13.9063 31.6146 13.8126 31.6823 13.724C31.7917 13.5886 31.8385 13.5626 31.8646 13.5574C31.875 13.5522 31.8906 13.5522 31.9063 13.5522C31.9531 13.5522 32.0313 13.5626 32.1563 13.6095C32.3021 13.672 32.4427 13.7449 32.5677 13.8282C32.8229 14.0001 33.0417 14.2397 33.2083 14.5157C33.276 14.6303 33.4063 14.7032 33.5417 14.7032C33.5469 14.7032 33.5573 14.7032 33.5625 14.7032C33.5469 14.7136 33.5313 14.724 33.5156 14.7345C33.2448 14.922 33.0052 15.1563 32.8021 15.422C32.6927 15.573 32.599 15.7345 32.5156 15.9011ZM31.9635 17.1772C31.5938 17.3282 31.2656 17.573 31.0156 17.8907C30.9427 17.9793 30.8802 18.0678 30.8229 18.1615C30.6927 18.0157 30.5365 17.8803 30.375 17.7605C30.1719 17.6199 29.9375 17.5001 29.6875 17.4115C29.4844 17.3386 29.2708 17.2865 29.0469 17.2501C29.0573 17.2136 29.0625 17.172 29.0625 17.1355C29.0625 17.047 29.0573 16.9532 29.0469 16.849C29.0677 16.6147 29.2031 16.3803 29.401 16.2293C29.4896 16.1615 29.5885 16.1043 29.7083 16.0574C29.7552 16.0365 29.8021 16.0209 29.8542 16.0053C29.9271 15.9845 30.0052 15.9636 30.0833 15.9532C30.1927 15.9324 30.2969 15.9272 30.3958 15.9272C30.4219 15.9272 30.4427 15.9272 30.4688 15.9272C30.5833 15.9324 30.7031 15.948 30.8281 15.974C31.099 16.0313 31.3542 16.1459 31.5781 16.3022C31.875 16.5105 32.0937 16.7865 32.2031 17.0938C32.1198 17.1147 32.0417 17.1459 31.9635 17.1772ZM28.5833 15.6824C28.526 15.6199 28.4688 15.5626 28.401 15.5105C28.1302 15.2865 27.8177 15.1876 27.6094 15.1303C27.4375 15.0886 27.2813 15.0574 27.1302 15.0365C27.1875 14.6876 27.3333 14.3907 27.5313 14.224C27.5573 14.2032 27.5885 14.1772 27.625 14.1563C27.6771 14.1251 27.7344 14.099 27.8073 14.073C27.875 14.047 27.9479 14.0261 28.0313 14.0105C28.1094 14.0001 28.1875 13.9897 28.2708 13.9793C28.3542 13.974 28.4427 13.9688 28.5365 13.9688C28.7917 13.9688 29.0365 14.0053 29.2552 14.0834C29.375 14.1251 29.4844 14.1772 29.5781 14.2345C29.8698 14.4168 30.0729 14.7084 30.1042 14.9793L30.1094 14.9897C30.0052 15.0001 29.9063 15.0105 29.8125 15.0313C29.7552 15.0418 29.6979 15.0574 29.6458 15.073C29.5833 15.0886 29.5208 15.1095 29.4583 15.1303C29.3802 15.1563 29.3073 15.1876 29.2396 15.2188C29.0885 15.2865 28.9479 15.3699 28.8281 15.4636C28.7396 15.5261 28.6615 15.6043 28.5833 15.6824ZM27.651 17.3022C27.4427 17.3699 27.2604 17.4793 27.125 17.6199C26.9948 17.7449 26.8854 17.9063 26.8021 18.1043C26.7656 18.1824 26.7344 18.2605 26.7083 18.3386C26.4531 18.0574 26.125 17.8438 25.7656 17.7293C25.7448 17.7188 25.7188 17.7136 25.6927 17.7084C25.7292 17.6511 25.7552 17.5886 25.7604 17.5209C25.8177 17.1303 25.8698 16.7865 26 16.5053C26.0208 16.4584 26.0469 16.4168 26.0729 16.3751C26.0937 16.3334 26.1198 16.297 26.151 16.2605C26.224 16.1668 26.3021 16.0938 26.3906 16.0418C26.401 16.0365 26.4167 16.0313 26.4271 16.0261L26.4479 16.0157C26.5313 15.9793 26.6354 15.9584 26.7552 15.9532H26.8021C26.9583 15.9584 27.1458 15.9897 27.3698 16.047C27.5677 16.099 27.7083 16.1668 27.8125 16.2501C27.9844 16.3959 28.0573 16.6355 28.0885 16.8282C28.0781 16.9584 28.0885 17.0886 28.1146 17.2136C27.974 17.2293 27.8125 17.2501 27.651 17.3022ZM28.276 11.1095C28.3021 11.0782 28.3229 11.0418 28.3385 11.0001C28.3958 10.8699 28.4688 10.7397 28.5677 10.6199C28.6094 10.5678 28.651 10.5209 28.6927 10.4845C28.7448 10.4376 28.7969 10.3907 28.849 10.3543C29.0625 10.2084 29.3229 10.1251 29.5781 10.1251H29.599C29.6667 10.1251 29.7396 10.1355 29.8177 10.1459C29.875 10.1563 29.9323 10.172 29.9896 10.1876C30.0885 10.224 30.1667 10.2709 30.2396 10.349C30.3177 10.4324 30.3958 10.547 30.4896 10.7084C30.5313 10.7813 30.5677 10.8595 30.5885 10.9324C30.5208 10.9532 30.4583 10.9793 30.3906 11.0105C29.9792 11.1772 29.6094 11.5001 29.3385 11.9115C29.3229 11.8855 29.3021 11.8595 29.2813 11.8386C29.0104 11.4949 28.6563 11.2397 28.276 11.1095ZM34.099 17.5157C33.8073 17.2761 33.4635 17.1199 33.1094 17.0522C33.125 16.6668 33.2604 16.2657 33.4896 15.922C33.6302 15.7188 33.7969 15.547 33.9948 15.3959C34.0625 15.3438 34.125 15.3022 34.1823 15.2709C34.2135 15.2501 34.2448 15.2345 34.2813 15.2188C34.349 15.1824 34.401 15.1563 34.4583 15.1355C34.651 15.0574 34.75 14.8438 34.6823 14.6459C34.6302 14.4845 34.4844 14.3751 34.3125 14.3751C34.2708 14.3751 34.2292 14.3803 34.1927 14.3959C34.1406 14.4115 34.0885 14.4324 34.0365 14.4532C33.9792 14.474 33.9219 14.5001 33.8646 14.5313C33.8854 14.5001 33.901 14.4688 33.9115 14.4376C33.9427 14.3334 33.9375 14.2293 33.8906 14.1355C33.6979 13.7501 33.4063 13.4011 33.0573 13.1355C32.875 12.9949 32.6823 12.8855 32.4844 12.797C32.3438 12.7345 32.1302 12.6563 31.8854 12.6563C31.8229 12.6563 31.7604 12.6615 31.6927 12.672C31.5313 12.7032 31.3698 12.7761 31.2448 12.8803C31.1406 12.9636 31.0573 13.0574 30.9844 13.1407C30.974 13.1511 30.9688 13.1563 30.9688 13.1615C30.8333 13.3178 30.7135 13.4845 30.6094 13.6511C30.5833 13.698 30.5573 13.7449 30.526 13.7918C30.401 13.6511 30.25 13.5261 30.0885 13.422C30 13.3595 29.901 13.3074 29.7969 13.2605C29.8594 12.9897 29.9531 12.7397 30.0729 12.5261C30.0833 12.5157 30.0885 12.5001 30.0938 12.4845C30.099 12.4793 30.1042 12.4688 30.1094 12.4584C30.125 12.4324 30.1406 12.4115 30.1615 12.3855C30.2969 12.1824 30.4844 12.0105 30.6927 11.8907C30.7135 11.8803 30.7396 11.8647 30.7656 11.8543C30.8437 11.8126 30.9323 11.7865 31.026 11.7657L31.0677 11.7553C31.125 11.7449 31.1771 11.7397 31.2344 11.7397C31.3438 11.7397 31.4479 11.7605 31.5469 11.8022C31.7292 11.8751 31.8854 12.0053 31.974 12.172C32.0052 12.2293 32.0313 12.2865 32.0417 12.349C32.0833 12.5313 32.2396 12.6615 32.4219 12.6615H32.4635C32.6771 12.6355 32.8333 12.4428 32.8125 12.224C32.8073 12.2084 32.8073 12.1876 32.8021 12.1772C32.7292 11.6824 32.3802 11.2293 31.8906 11.0001C31.7344 10.9272 31.5729 10.8803 31.3958 10.8595C31.3906 10.7865 31.3802 10.7188 31.3646 10.6459C31.3437 10.547 31.3125 10.4428 31.2708 10.3282L31.2604 10.3074C31.1823 10.1199 31.099 9.96884 31.0052 9.82821L30.9948 9.8178C30.974 9.78655 30.9531 9.7605 30.9375 9.73967C30.7865 9.54176 30.5469 9.36988 30.2917 9.28134C30.2187 9.2553 30.1458 9.23446 30.0625 9.21363C29.9063 9.17717 29.75 9.16155 29.5938 9.15634C29.1198 9.15634 28.6615 9.32301 28.3021 9.61467C28.1927 9.70321 28.0833 9.81259 27.9896 9.93759C27.9271 10.0157 27.875 10.0938 27.8281 10.1772C27.7187 10.3699 27.6406 10.573 27.599 10.7813C27.5885 10.8595 27.5937 10.9376 27.625 11.0053C27.2135 11.0105 26.7865 11.1459 26.4271 11.3855C26.4167 11.3907 26.4063 11.4011 26.3958 11.4115C26.3281 11.4584 26.2552 11.5157 26.1875 11.5782C26.0729 11.6876 25.9688 11.8022 25.8854 11.9168C25.875 11.9272 25.8646 11.9428 25.849 11.9636C25.7135 12.1668 25.6146 12.3855 25.5573 12.6043C25.5573 12.6199 25.5521 12.6303 25.5469 12.6459C25.5052 12.8438 25.6146 13.0418 25.8021 13.099C25.8438 13.1147 25.8854 13.1199 25.9271 13.1199C26.0938 13.1199 26.2396 13.0157 26.2917 12.8543L26.3125 12.8074C26.3333 12.7397 26.3646 12.6772 26.3958 12.6199C26.4115 12.5938 26.4323 12.5626 26.4479 12.5365C26.5 12.4636 26.5625 12.3907 26.6354 12.3178C26.6458 12.3074 26.6615 12.297 26.6719 12.2865C26.7448 12.2188 26.8177 12.1668 26.8958 12.1199C27.1042 11.9897 27.349 11.922 27.5781 11.922C27.651 11.922 27.7187 11.9272 27.7813 11.9376C28.0729 11.9949 28.3542 12.172 28.5417 12.4272C28.599 12.5001 28.651 12.5834 28.6927 12.6772C28.7188 12.7188 28.7344 12.7657 28.75 12.8126C28.776 12.8803 28.7969 12.9532 28.8073 13.0209C28.724 13.0157 28.6354 13.0105 28.5521 13.0105H28.5156C28.4896 13.0105 28.4167 13.0157 28.4167 13.0157C28.3073 13.0209 28.2083 13.0261 28.1198 13.0365C27.9792 13.0522 27.8542 13.073 27.7344 13.1043C27.625 13.1303 27.5156 13.1668 27.401 13.2188C27.2917 13.2657 27.1927 13.3126 27.1094 13.3699C27.0417 13.4168 26.9792 13.4584 26.9271 13.5053C26.8229 13.5938 26.7292 13.698 26.6458 13.8178C26.5521 13.7136 26.4479 13.6199 26.3281 13.5418C26.0417 13.349 25.6927 13.2449 25.3438 13.2449C25.0938 13.2449 24.849 13.297 24.6302 13.3959C24.4479 13.4793 24.3594 13.698 24.4271 13.8855C24.4844 14.0418 24.6302 14.1407 24.7917 14.1407C24.8385 14.1407 24.8854 14.1303 24.9219 14.1147C25.0313 14.0782 25.1458 14.0574 25.2604 14.0574C25.4792 14.0574 25.6823 14.1251 25.8385 14.2449C26.0885 14.4324 26.2448 14.7605 26.224 15.0626C26.224 15.073 26.2187 15.0886 26.224 15.099C26.1146 15.1355 26.0104 15.1876 25.9167 15.2449C25.7656 15.3386 25.625 15.4584 25.5 15.6147C25.4167 15.7136 25.349 15.8074 25.2917 15.9063C25.2865 15.9168 25.2813 15.9272 25.276 15.9376C25.224 16.0313 25.1823 16.1303 25.1406 16.2345C25.0781 16.1772 25.0104 16.1251 24.9427 16.073C24.6094 15.8386 24.2135 15.7084 23.8281 15.7084C23.6927 15.7084 23.5625 15.724 23.4323 15.7553C23.3958 15.7605 23.3646 15.7761 23.3333 15.797C23.3594 15.724 23.3802 15.6563 23.4063 15.5886C23.1146 15.7501 22.8698 16.0053 22.6927 16.3074C22.4271 16.7553 22.2813 17.2813 22.1458 17.8074C22.125 17.8855 22.0417 17.9324 21.9635 17.9115C21.901 17.8959 21.8542 17.8334 21.8542 17.7709C21.8437 17.2918 21.6875 16.8126 21.4063 16.422C21.1302 16.0209 20.7396 15.7032 20.2917 15.5157C20.151 15.4584 19.9948 15.4168 19.8438 15.3907C20.224 15.9793 20.5677 16.5886 20.875 17.2136C21.1823 17.849 21.4531 18.5313 21.5833 19.2345C22.1354 19.2918 22.6979 19.3022 23.2604 19.2813C22.9063 18.3074 22.9323 17.3022 23.1823 16.3126C23.25 16.4428 23.3802 16.5261 23.526 16.5261L23.5677 16.5209L23.5938 16.5157C23.651 16.5053 23.7031 16.5001 23.7604 16.5001C23.9948 16.5001 24.25 16.5938 24.4531 16.7501C24.7083 16.9428 24.8698 17.224 24.8958 17.5053C24.901 17.5522 24.9115 17.6043 24.9323 17.6459C24.7552 17.6615 24.5781 17.7032 24.401 17.7657C23.9583 17.922 23.5781 18.2188 23.3281 18.5938C23.2187 18.7657 23.2604 19.0001 23.4219 19.1199C23.4896 19.172 23.5677 19.198 23.651 19.198C23.776 19.198 23.8906 19.1407 23.9635 19.0418C24.1302 18.8178 24.3802 18.6459 24.6615 18.5574C24.8021 18.5157 24.9427 18.4897 25.0833 18.4897C25.2292 18.4897 25.3698 18.5157 25.5 18.5574C25.7656 18.6511 26.0052 18.8438 26.1719 19.1043C26.3177 19.3386 26.3958 19.6043 26.3906 19.849C26.3802 20.073 26.5313 20.2709 26.75 20.323C26.7813 20.3282 26.8177 20.3334 26.849 20.3334C27.0625 20.3334 27.2552 20.1772 27.3021 19.9636L27.4948 19.0782C27.5104 19.0053 27.526 18.9272 27.5417 18.8543C27.5729 18.7345 27.6042 18.6043 27.6563 18.4897C27.7448 18.2918 27.8542 18.2397 27.9375 18.2136C28.0417 18.1824 28.1771 18.1668 28.3594 18.1668C28.4271 18.1668 28.5 18.1668 28.5625 18.172C28.7813 18.1824 28.9948 18.2136 29.1927 18.2657C29.4375 18.3334 29.651 18.4324 29.8333 18.5522C30.1875 18.797 30.4271 19.1615 30.4635 19.5365C30.4896 19.7761 30.6927 19.9584 30.9323 19.9584H30.9531C31.2083 19.948 31.4115 19.724 31.401 19.4636C31.3854 19.1303 31.5104 18.7709 31.7344 18.4688C31.9375 18.2032 32.224 18.0105 32.526 17.9376C32.5521 17.9324 32.5781 17.9272 32.6042 17.922C32.6563 17.9115 32.7135 17.9115 32.776 17.9115C33.0521 17.9115 33.3385 18.0105 33.5781 18.1824L33.6146 18.2136C33.8958 18.4324 34.0833 18.7501 34.1146 19.0678C34.1354 19.2657 34.3021 19.422 34.5156 19.422C34.6198 19.4168 34.7187 19.3699 34.7865 19.2918C34.8594 19.2188 34.8958 19.1147 34.8906 19.0105C34.875 18.5522 34.6719 18.099 34.3281 17.7293C34.2448 17.6459 34.1719 17.573 34.099 17.5157ZM36.4583 17.7918C36.4531 17.7918 36.4479 17.7918 36.4479 17.7918C36.1563 17.8386 35.8646 17.8751 35.5729 17.9063C35.5833 17.7188 35.5833 17.5157 35.5677 17.3074C35.4896 16.2188 35.1823 15.1459 34.724 14.1251C34.9948 13.7605 35.4323 13.5313 35.8854 13.4845C35.9375 13.4793 35.9896 13.474 36.0417 13.474C35.5833 14.9011 35.7292 16.4897 36.4583 17.7918ZM17.3854 12.6043C17.4844 12.2709 17.5938 11.9428 17.7135 11.6251C18.3906 9.83863 19.1354 8.04176 20.0052 6.34384C20.8594 4.66676 21.8906 2.83342 23.6146 1.93759C24.7292 1.35426 25.9271 1.07301 27.0677 1.85946C28.1458 2.59905 29.276 5.03134 29.8177 6.69801C30.0208 7.32301 30.2135 7.95842 30.3906 8.59905C30.9427 7.3855 31.6094 6.18759 32.3542 5.13551C32.9479 4.30217 34.026 3.2605 35.0938 3.60426C37.1042 3.80217 38.7344 4.95842 39.9635 6.50009C39.6667 6.93759 39.4167 7.3803 39.224 7.67717C39.0573 7.93759 38.8854 8.20322 38.7135 8.46884C38.7135 8.46884 38.7135 8.46884 38.7083 8.46884C38.6771 8.5678 38.6146 8.65634 38.5365 8.72405C38.5417 8.72405 38.5469 8.72405 38.5521 8.71884C38.0365 9.51572 37.5104 10.3438 37.0521 11.1928C36.9375 11.2761 36.8281 11.3699 36.7344 11.4688C36.6771 11.5313 36.625 11.599 36.5729 11.6668C36.5677 11.6876 36.5573 11.7032 36.5521 11.7188C36.4219 12.1043 36.4271 12.4949 36.2656 12.8595C36.2656 12.8595 36.2656 12.8595 36.2656 12.8647C36.224 12.9584 36.1875 13.0522 36.151 13.1511C36.0521 13.1511 35.9479 13.1511 35.849 13.1668C35.5365 13.2032 35.2292 13.3126 34.9583 13.4845C34.8229 13.573 34.6927 13.6876 34.5833 13.8126C34.2969 13.2188 33.9583 12.6459 33.5833 12.1043C33.5052 12.047 33.4323 11.9793 33.3958 11.9011C33.3594 11.8282 33.3229 11.7553 33.2917 11.6824C33.0313 11.3334 32.7604 10.9897 32.474 10.6668C32.474 10.599 32.4479 10.5313 32.3906 10.4688C32.1042 10.1563 31.8021 9.86988 31.4792 9.6303C31.4844 9.62509 31.4844 9.61988 31.4896 9.61467C31.4271 9.58863 31.3698 9.55738 31.3177 9.51571C31.0625 9.34905 30.8021 9.20321 30.526 9.10426C30.4219 9.0678 30.3125 9.03655 30.2083 9.01051C29.7552 8.90634 29.2708 8.90113 28.75 9.05217C27.6771 9.36467 26.8229 10.1563 26.1146 11.0313C26.1042 11.0105 26.0885 10.9897 26.0729 10.9688C26.0208 11.0626 25.9479 11.1459 25.8594 11.2032C25.875 11.2345 25.8958 11.2605 25.9115 11.2918C25.7604 11.4845 25.6146 11.6824 25.4792 11.8803C25.2187 12.2449 24.9531 12.6355 24.6927 13.047C24.5885 13.1251 24.4844 13.2084 24.3958 13.3022C24.276 13.422 24.1771 13.5574 24.0885 13.7032C24.2917 14.0157 24.0781 14.3959 23.75 14.5418C23.7604 14.5938 23.7656 14.6459 23.776 14.698C23.7031 14.8543 23.6354 15.0105 23.5677 15.1668C23.3594 15.2397 23.1615 15.3438 22.9896 15.4845C22.7604 15.6668 22.5781 15.9011 22.4271 16.1511C22.2604 16.448 22.1354 16.7657 22.0365 17.0834C21.9479 16.7865 21.8073 16.5053 21.625 16.2605C21.3125 15.823 20.875 15.4897 20.3802 15.2918C20.1563 15.2084 19.9167 15.1615 19.6771 15.1407C19.026 14.1928 18.2656 13.323 17.3854 12.6043ZM49.0677 12.1147C48.9948 12.2293 48.9271 12.3543 48.875 12.4793C48.6771 12.3022 48.4323 12.1459 48.1563 12.0209C47.8646 11.8907 47.5729 11.8022 47.2969 11.724C47.1823 11.6928 47.0677 11.6615 46.9479 11.6407C46.9687 11.5886 46.9844 11.5261 46.9844 11.4688C47 11.1615 47.026 10.823 47.1875 10.6303C47.3125 10.474 47.5781 10.3751 47.9063 10.3543C47.9427 10.3543 47.9792 10.3543 48.0156 10.3543C48.3073 10.3543 48.5885 10.4115 48.8229 10.5261C49.1042 10.6615 49.3021 10.8751 49.3698 11.1095C49.4167 11.2761 49.5677 11.3959 49.7448 11.3959L49.7969 11.3907L49.8333 11.3855C49.8438 11.3803 49.8542 11.3803 49.8646 11.3751C49.7917 11.4063 49.7188 11.448 49.651 11.4949C49.4219 11.6511 49.224 11.8543 49.0677 12.1147ZM48.0208 14.2397C47.7656 14.422 47.5365 14.6563 47.3438 14.9376C47.2708 15.0418 47.2031 15.1563 47.1458 15.2709C47 15.0782 46.8073 14.8907 46.5469 14.7709C46.2083 14.6147 45.8854 14.6043 45.599 14.5886L45.474 14.5834C45.375 14.5834 45.2813 14.5782 45.1823 14.5782C45.099 14.5782 45.026 14.5782 44.9479 14.5834C45.0365 14.1824 45.2083 13.8022 45.4427 13.474C45.5885 13.2709 45.75 13.0886 45.9323 12.9324C46.0885 12.8022 46.2969 12.6407 46.5 12.573C46.5469 12.5574 46.599 12.547 46.6615 12.547C46.7865 12.547 46.9271 12.5834 47.0573 12.6199C47.2865 12.6772 47.5573 12.7553 47.7969 12.8543C48.026 12.9532 48.2188 13.0782 48.3594 13.2188C48.5104 13.3699 48.6094 13.547 48.6458 13.724C48.6563 13.7865 48.6823 13.8438 48.7188 13.8959C48.474 13.974 48.2396 14.0886 48.0208 14.2397ZM44.3698 13.422C44.2031 13.1876 44.0104 12.974 43.7969 12.8022C43.5 12.5574 43.1719 12.3855 42.8333 12.2918L42.7917 12.2709H42.7552C42.5573 12.2188 42.3594 12.1928 42.1563 12.1928C42.1563 12.172 42.151 12.1511 42.151 12.1303C42.1198 11.9636 42.1563 11.7657 42.2552 11.547C42.3229 11.3959 42.4115 11.2293 42.5417 11.0313C42.5781 10.9793 42.6146 10.9272 42.651 10.8751C42.7552 10.724 42.9167 10.5053 43.1094 10.3959C43.2031 10.3386 43.3125 10.3126 43.4635 10.3126C43.5208 10.3126 43.5833 10.3178 43.651 10.323L43.7604 10.3386C44.2865 10.4011 44.7813 10.4584 45.2135 10.6407C45.6667 10.8282 45.9948 11.172 46.0729 11.5418C46.0833 11.6043 46.1042 11.6563 46.1406 11.7032C45.8125 11.8282 45.5625 12.0157 45.3281 12.2084C45.0885 12.4168 44.8698 12.6511 44.6823 12.9115C44.5625 13.073 44.4583 13.2449 44.3698 13.422ZM43.4583 14.974C43.1198 15.1824 42.8438 15.4949 42.6875 15.8543C42.625 15.9897 42.5729 16.1303 42.5365 16.2813C42.401 16.1615 42.2604 16.047 42.1094 15.9532C41.9635 15.8595 41.8021 15.7813 41.6302 15.7188C41.3021 15.5886 40.9635 15.5261 40.6094 15.5261C40.5885 15.5261 40.5677 15.5261 40.5469 15.5261C40.526 14.8803 40.5938 14.3907 40.776 13.9949C40.8542 13.8074 40.9792 13.6407 41.125 13.5053L41.151 13.4793C41.1667 13.4688 41.1771 13.4532 41.1979 13.4428C41.2083 13.4324 41.224 13.422 41.2396 13.4115L41.2708 13.3907C41.4375 13.2761 41.6302 13.2032 41.8333 13.1668C41.9219 13.1511 42.0156 13.1459 42.1094 13.1459C42.2604 13.1459 42.4063 13.1668 42.5573 13.2032C42.5729 13.2084 42.5938 13.2188 42.6094 13.224L42.651 13.2397C42.8438 13.3022 43.026 13.4063 43.1927 13.547C43.5417 13.8386 43.8125 14.2709 43.9427 14.7449C43.7656 14.8074 43.6042 14.8803 43.4583 14.974ZM40.3281 12.9793C40.1615 13.172 40.026 13.3855 39.9219 13.6199C39.8438 13.8074 39.776 14.0105 39.7344 14.2293C39.474 14.0053 39.1719 13.8386 38.8542 13.7293L38.8333 13.724C38.8177 13.7188 38.7969 13.7136 38.7813 13.7084C38.7083 13.6876 38.6354 13.672 38.5469 13.6511C38.3958 13.6251 38.2448 13.6095 38.099 13.6095C38.0833 13.6095 38.0677 13.6095 38.0521 13.6095C38.1094 13.5574 38.1563 13.4897 38.1719 13.4063C38.2604 13.0522 38.3906 12.599 38.6406 12.2188C38.75 12.0418 38.8906 11.8959 39.0521 11.7761C39.1198 11.724 39.1875 11.6824 39.25 11.6459C39.3281 11.6043 39.4115 11.573 39.4948 11.547C39.5781 11.5209 39.6719 11.5053 39.7708 11.4949C39.8229 11.4897 39.875 11.4845 39.9219 11.4845H39.9531C40.1615 11.4897 40.3646 11.5365 40.5365 11.6199C40.849 11.7761 41.099 12.0365 41.2396 12.349C41.0156 12.4324 40.8073 12.547 40.6198 12.698C40.599 12.7136 40.5781 12.7293 40.5573 12.7501L40.5417 12.7657C40.4635 12.8334 40.3958 12.9063 40.3281 12.9793ZM40.5521 9.33863L40.5625 9.31259C40.5885 9.27092 40.6094 9.23446 40.6354 9.19801C40.7292 9.05738 40.8281 8.94801 40.9375 8.86988C41.0365 8.79696 41.151 8.73967 41.276 8.70321C41.3438 8.68238 41.401 8.67196 41.4531 8.66155C41.5729 8.64592 41.7083 8.63551 41.8542 8.63551C41.9427 8.63551 42.0313 8.63551 42.1198 8.64592C42.349 8.66155 42.5938 8.68238 42.8125 8.72926C43.026 8.77613 43.1927 8.84905 43.3177 8.95321C43.4427 9.05217 43.526 9.17717 43.5469 9.30217C43.5469 9.3178 43.5521 9.33342 43.5573 9.34905C43.5208 9.34905 43.4844 9.34905 43.4479 9.34905C43.3646 9.34905 43.2865 9.34905 43.2135 9.35946C43.0052 9.38551 42.8021 9.45842 42.625 9.5678C42.2865 9.76571 42.0625 10.0574 41.8854 10.3126L41.8698 10.3282C41.7135 10.5626 41.5521 10.8126 41.4219 11.099C41.2708 10.9793 41.1042 10.8699 40.9271 10.7918C40.7135 10.6876 40.4792 10.6251 40.2344 10.599C40.2656 10.0886 40.3698 9.66676 40.5521 9.33863ZM41.7552 7.66155C41.7656 7.60426 41.7813 7.54696 41.8125 7.47926C41.8646 7.35946 41.9427 7.25009 42.0573 7.13551C42.1667 7.03134 42.2969 6.92717 42.4635 6.8178C42.5885 6.73446 42.7188 6.65113 42.8333 6.6303C42.875 6.61988 42.9219 6.61467 42.974 6.61467C43.0521 6.61467 43.1458 6.62509 43.25 6.64592C43.3958 6.67196 43.5521 6.72405 43.7135 6.79176C44.0208 6.93238 44.2969 7.14071 44.5156 7.39592C44.526 7.40634 44.5365 7.41676 44.5469 7.42717C44.4219 7.5053 44.3125 7.59905 44.2135 7.70842C44.0729 7.86467 43.9688 8.02613 43.8906 8.18238C43.6563 8.00009 43.3594 7.86988 43.0104 7.79696C42.7292 7.73446 42.4531 7.71884 42.1719 7.70321C42.0781 7.69801 41.9844 7.6928 41.8906 7.6928C41.8437 7.6928 41.7969 7.6928 41.7552 7.69801C41.7552 7.68759 41.7552 7.67717 41.7552 7.66155ZM44.9115 8.34384C45.1042 8.11467 45.4115 8.08342 45.5781 8.08342C45.625 8.08342 45.6667 8.08342 45.7135 8.08863C46.0469 8.11988 46.3906 8.2553 46.7083 8.47926C47.0104 8.68759 47.2604 8.97926 47.4375 9.3178C47.4792 9.39592 47.5469 9.45842 47.6302 9.49488C47.4635 9.51571 47.3125 9.54696 47.1719 9.59905C46.901 9.6928 46.6667 9.84905 46.5 10.0418C46.4427 10.1095 46.3906 10.1824 46.349 10.2605C46.1302 10.0574 45.8698 9.89071 45.5833 9.76571C45.1979 9.59905 44.8125 9.51571 44.4323 9.45321C44.4531 9.42196 44.4635 9.3855 44.474 9.34905C44.5833 8.95842 44.6979 8.58342 44.9115 8.34384ZM51.3229 15.2293C51.2344 14.9011 51.0573 14.5938 50.8125 14.349C50.6927 14.2293 50.5521 14.1251 50.3958 14.0313C50.25 13.9532 50.0938 13.8907 49.9115 13.8438C49.7708 13.8126 49.6302 13.7918 49.4792 13.7865C49.5 13.7345 49.5052 13.6824 49.5052 13.6251C49.4948 13.2501 49.5885 12.8699 49.776 12.547C49.8646 12.3907 49.9792 12.2605 50.1094 12.1668C50.2135 12.0886 50.3229 12.047 50.4219 12.047C50.4375 12.047 50.4479 12.047 50.4688 12.0522H50.5104C50.7031 12.0522 50.8646 11.9168 50.8958 11.7188C50.9271 11.5053 50.7865 11.3074 50.5729 11.2709C50.5156 11.2605 50.4531 11.2553 50.3906 11.2553C50.2344 11.2553 50.0781 11.2918 49.9219 11.349C49.9844 11.3178 50.0365 11.2709 50.0729 11.2084C50.1302 11.1199 50.1458 11.0157 50.1198 10.9115C50.0677 10.6615 49.9427 10.4272 49.7708 10.224C49.6146 10.0522 49.4219 9.90113 49.1979 9.77613C48.8281 9.58342 48.4063 9.47926 47.9792 9.47405C48.1458 9.37509 48.2188 9.16676 48.1406 8.97926C47.9531 8.52092 47.6354 8.10426 47.2188 7.77613C46.7969 7.45321 46.3125 7.24488 45.8125 7.17717C45.7083 7.16155 45.6094 7.15634 45.5156 7.15634C45.4063 7.15634 45.3021 7.16155 45.1979 7.18238C45.2083 7.09905 45.1927 7.02092 45.151 6.9428C45.0417 6.7553 44.8958 6.5678 44.6979 6.37509C44.5208 6.20842 44.3281 6.0678 44.1146 5.95321C43.9167 5.84905 43.6875 5.76571 43.4271 5.70321C43.25 5.66676 43.1042 5.65113 42.9583 5.65113C42.8542 5.65113 42.7448 5.66155 42.6406 5.68238C42.3542 5.74488 42.1302 5.8855 41.9271 6.03134C41.7604 6.15113 41.5677 6.30217 41.401 6.49488C41.2135 6.69801 41.0781 6.93759 41.0052 7.18759C40.9635 7.32301 40.9427 7.46363 40.9375 7.60426C40.9375 7.6303 40.9427 7.66155 40.9427 7.68759C40.9219 7.73967 40.9115 7.79696 40.9167 7.85426C40.8906 7.86467 40.8594 7.87509 40.8281 7.89071C40.6875 7.95321 40.5469 8.03655 40.401 8.14592C40.2344 8.27613 40.0833 8.4428 39.9479 8.64592C39.9115 8.69801 39.8802 8.7553 39.849 8.81259L39.8333 8.83342C39.8229 8.85426 39.8125 8.87509 39.8021 8.89592C39.6719 9.14592 39.5833 9.42717 39.5208 9.75009C39.474 10.0313 39.4531 10.3178 39.4635 10.6147C39.4635 10.6251 39.4635 10.6303 39.4635 10.6407C39.3854 10.6563 39.3073 10.6772 39.2292 10.7032C39.0677 10.7553 38.9063 10.8334 38.75 10.9272C38.6406 10.9949 38.5521 11.0574 38.4635 11.1355C38.25 11.3178 38.0729 11.5365 37.9323 11.7709C37.625 12.2918 37.4896 12.8595 37.4167 13.2449C37.3854 13.4168 37.474 13.5886 37.625 13.6615C37.5677 13.6772 37.5104 13.6928 37.4531 13.7136C37.4323 13.7188 37.4115 13.7293 37.3906 13.7345L37.3698 13.7449C37.151 13.8282 36.9687 13.948 36.8281 14.0938C36.7708 14.1563 36.7188 14.2188 36.6771 14.2865C36.6458 14.297 36.6198 14.3178 36.599 14.3334L36.5625 14.3699C36.5052 14.4272 36.4687 14.4949 36.4479 14.5782L36.4427 14.6043C36.4375 14.6303 36.4219 14.698 36.4479 14.7918C36.4792 14.9011 36.5573 15.0053 36.6719 15.0574C36.724 15.0834 36.776 15.0938 36.8333 15.099H36.8542C36.8906 15.099 36.9323 15.0938 36.974 15.0834L36.9896 15.0782L37.0104 15.0678C37.1875 14.9949 37.2552 14.8699 37.2865 14.8022L37.2917 14.797L37.3021 14.7813C37.3229 14.7397 37.349 14.698 37.3854 14.6668C37.4635 14.5938 37.5729 14.5313 37.6875 14.5001L37.7083 14.4949C37.8021 14.4688 37.8958 14.4532 37.9948 14.448C38.0104 14.448 38.0313 14.448 38.0469 14.448C38.1458 14.448 38.25 14.4584 38.3594 14.4793C38.4219 14.4949 38.4792 14.5105 38.5365 14.5261C38.5521 14.5365 38.5677 14.5418 38.5833 14.547C38.8385 14.6407 39.0781 14.797 39.2656 14.9949C39.3594 15.0938 39.4479 15.2188 39.5208 15.3438C39.5781 15.4532 39.6198 15.573 39.6563 15.7032C39.3802 15.8126 39.1406 15.9688 38.9479 16.1668C38.7865 16.3386 38.6719 16.5261 38.6094 16.724C38.5469 16.9011 38.5208 17.0886 38.5313 17.2761V17.297C38.5365 17.323 38.5365 17.349 38.5365 17.3751C38.5781 17.7188 38.724 18.0574 38.9896 18.422C39.0781 18.5522 39.1875 18.6824 39.3177 18.823L39.4896 19.0105C39.5208 19.0418 39.5625 19.0782 39.6198 19.1095C39.6719 19.1355 39.75 19.1668 39.8438 19.1668C39.8958 19.1668 39.9427 19.1615 39.9896 19.1459C40.1146 19.099 40.2396 18.9845 40.2656 18.8282C40.2917 18.6772 40.2396 18.5782 40.2188 18.5418L40.2083 18.5209C40.1771 18.474 40.1302 18.4063 40.0365 18.3595L40.0156 18.349C39.9896 18.3334 39.9583 18.323 39.9271 18.3178L39.9115 18.297C39.8073 18.172 39.7188 18.0574 39.6458 17.9532C39.4792 17.7084 39.3854 17.4845 39.3698 17.2865C39.3698 17.2605 39.3698 17.2345 39.3698 17.2136C39.375 17.047 39.4427 16.8959 39.5677 16.7813C39.7135 16.6355 39.9271 16.5261 40.1719 16.4688C40.2969 16.4428 40.4271 16.4272 40.5625 16.4272C40.7604 16.4272 40.9583 16.4584 41.151 16.5157C41.3229 16.573 41.4792 16.6459 41.6198 16.7345C42.0365 17.0157 42.349 17.4688 42.4531 17.9532C42.5 18.172 42.6927 18.3282 42.9115 18.3282H42.9323C43.1875 18.3126 43.3906 18.0938 43.3802 17.8334L43.375 17.8178C43.3646 17.547 43.3542 17.2553 43.3802 16.9793C43.401 16.6824 43.4583 16.448 43.5469 16.2553C43.6354 16.0678 43.776 15.9063 43.9531 15.797C44.125 15.6928 44.3438 15.6199 44.625 15.5782C44.8021 15.5522 44.9948 15.5418 45.224 15.5418C45.2969 15.5418 45.3698 15.5418 45.4427 15.547H45.5052C45.7552 15.5574 45.9896 15.5626 46.151 15.6407C46.3333 15.724 46.4531 15.9168 46.526 16.0678C46.6354 16.3022 46.7031 16.573 46.7656 16.8334C46.8073 17.0418 46.9792 17.1876 47.1823 17.2032H47.2188C47.4635 17.2032 47.6667 17.0105 47.6823 16.7657C47.724 16.2657 47.8646 15.8074 48.099 15.448C48.3385 15.0782 48.7083 14.8074 49.1146 14.7084C49.2292 14.6824 49.3438 14.6668 49.4583 14.6668C49.7656 14.6668 50.0365 14.7709 50.2292 14.9584C50.5365 15.2397 50.6615 15.672 50.5521 15.9949L50.5469 16.0157C50.474 16.2136 50.5781 16.4324 50.7708 16.5105C50.8177 16.5261 50.8646 16.5365 50.9115 16.5365C51.0729 16.5365 51.2188 16.4324 51.276 16.2813C51.3385 16.1147 51.375 15.9428 51.3854 15.7553C51.3906 15.5834 51.3698 15.4063 51.3229 15.2293Z" fill="#DC5A78"/>
<path d="M36.8021 14.672C36.8021 14.6772 36.8021 14.6772 36.8021 14.6772C36.8021 14.672 36.7969 14.6667 36.7969 14.6615C36.7969 14.6667 36.7969 14.6667 36.8021 14.672ZM50.9792 16.1667C51.0313 16.0313 51.0573 15.8907 51.0677 15.7449C51.0677 15.599 51.0521 15.4532 51.0156 15.3178C50.9375 15.0365 50.7865 14.7813 50.5886 14.5782C50.4844 14.474 50.3698 14.3855 50.2396 14.3126C50.1146 14.2449 49.9792 14.1928 49.8386 14.1563C49.5573 14.0886 49.2656 14.099 48.9844 14.1615C48.7031 14.224 48.4375 14.3438 48.2031 14.5053C47.9688 14.672 47.7709 14.8855 47.6094 15.1199C47.4115 15.4063 47.2761 15.7188 47.1875 16.0522C47.1563 15.9636 47.1198 15.8803 47.0834 15.797C46.9479 15.5053 46.7344 15.2136 46.4115 15.0626C46.0886 14.9167 45.7604 14.922 45.4636 14.9063C45.1615 14.8959 44.849 14.9011 44.5365 14.9428C44.224 14.9845 43.9063 15.073 43.625 15.2501C43.3438 15.422 43.1094 15.6876 42.974 15.9897C42.8386 16.2917 42.7813 16.6147 42.7552 16.9272C42.7552 16.974 42.75 17.0157 42.75 17.0626C42.5469 16.724 42.2761 16.4376 41.9427 16.2292C41.8073 16.1459 41.6667 16.073 41.5209 16.0157C41.0521 15.8386 40.5313 15.797 40.0469 15.9167C39.7292 15.9949 39.4167 16.1459 39.1823 16.3907C39.0625 16.5157 38.9636 16.6615 38.9115 16.8282C38.8646 16.9688 38.8438 17.1147 38.849 17.2605C38.8542 17.2865 38.8542 17.3126 38.8542 17.3386C38.8959 17.6772 39.0625 17.974 39.2448 18.2345C39.3386 18.3647 39.4427 18.4845 39.5469 18.6042L39.7136 18.7813C39.7292 18.797 39.75 18.8126 39.7761 18.8282C39.8021 18.8386 39.8438 18.8542 39.8854 18.8386C39.9011 18.8334 39.9427 18.8074 39.9531 18.7709C39.9584 18.7292 39.9479 18.7084 39.9375 18.6928C39.9271 18.672 39.9167 18.6563 39.8854 18.6407C39.875 18.6355 39.8438 18.6251 39.8125 18.6459C39.8073 18.6459 39.8021 18.6511 39.7969 18.6563L39.6615 18.5001C39.5677 18.3855 39.4688 18.2605 39.3854 18.1355C39.2136 17.8855 39.0781 17.6042 39.0521 17.3178C39.0521 17.2761 39.0469 17.2397 39.0521 17.198C39.0625 16.9532 39.1615 16.7188 39.3438 16.5522C39.5417 16.349 39.8177 16.2188 40.1042 16.1563C40.4792 16.073 40.875 16.0938 41.2448 16.2084C41.4375 16.2709 41.625 16.3542 41.7917 16.4688C42.2813 16.7865 42.6406 17.3126 42.7656 17.8855C42.7813 17.9584 42.8438 18.0105 42.9167 18.0053C43 18.0001 43.0625 17.9324 43.0573 17.849V17.8438C43.0469 17.5417 43.0365 17.2449 43.0573 16.9532C43.0834 16.6615 43.1354 16.3751 43.2552 16.1251C43.3698 15.8699 43.5573 15.6615 43.7865 15.5209C44.0209 15.3751 44.2969 15.3022 44.5781 15.2605C44.8646 15.2188 45.1563 15.2136 45.4531 15.224C45.7552 15.2345 46.0521 15.2345 46.2813 15.3438C46.5156 15.4532 46.6927 15.672 46.8125 15.9272C46.9323 16.1824 47.0104 16.474 47.0729 16.7657C47.0886 16.8282 47.1406 16.8751 47.2084 16.8803C47.2917 16.8855 47.3594 16.823 47.3646 16.7449C47.4063 16.224 47.5521 15.7032 47.8334 15.2709C48.1094 14.8386 48.5417 14.5157 49.0365 14.3959C49.5261 14.2761 50.0834 14.3595 50.4479 14.7188C50.8177 15.0626 51.0156 15.6303 50.849 16.1199H50.8438C50.8334 16.1563 50.8542 16.1928 50.8854 16.2084C50.9219 16.224 50.9636 16.2032 50.9792 16.1667ZM36.1511 13.1511C36.2031 13.0209 36.25 12.8907 36.3073 12.7605C36.2656 12.7813 36.2136 12.7917 36.1667 12.7709C36.1042 12.7449 36.0625 12.6824 36.0677 12.6147C36.0886 12.2188 35.8802 11.8126 35.5677 11.5574C35.25 11.297 34.8177 11.2188 34.4115 11.3126C34.0365 11.4011 33.6979 11.6251 33.4792 11.9428C33.8906 12.5365 34.2656 13.1615 34.5834 13.8126C34.6927 13.6876 34.8229 13.573 34.9584 13.4845C35.2292 13.3126 35.5365 13.2032 35.849 13.1667C35.9479 13.1511 36.0521 13.1511 36.1511 13.1511ZM34.5729 19.0261C34.5573 18.6199 34.3698 18.2449 34.0938 17.9532C34.0313 17.8855 33.9688 17.823 33.8959 17.7657C33.5209 17.4584 33.0156 17.2865 32.5156 17.3542C32.3646 17.3751 32.2188 17.4167 32.0834 17.474C31.7604 17.6095 31.4792 17.8282 31.2604 18.099C31.0938 18.3074 30.9636 18.547 30.8802 18.8074C30.7188 18.4949 30.474 18.224 30.1927 18.0261C30 17.8959 29.7917 17.7917 29.5781 17.7136C29.2604 17.6042 28.9271 17.547 28.599 17.5313C28.3229 17.5261 28.0417 17.5209 27.75 17.6095C27.6042 17.6563 27.4584 17.7397 27.349 17.849C27.2344 17.9636 27.1511 18.099 27.0938 18.2292C27.0052 18.4376 26.9584 18.6459 26.9167 18.8438C26.9011 18.9115 26.8854 18.9792 26.875 19.0417L26.849 19.1563C26.8125 19.0626 26.7656 18.9688 26.7136 18.8803C26.4792 18.4897 26.1094 18.1772 25.6719 18.0365C25.2865 17.9167 24.875 17.9376 24.5104 18.0678C24.1406 18.2032 23.8125 18.4428 23.599 18.7709C23.5781 18.8022 23.5834 18.8438 23.6146 18.8647C23.6406 18.8855 23.6823 18.8803 23.7084 18.849C23.9219 18.5626 24.2292 18.3542 24.5677 18.2501C24.9063 18.1407 25.2761 18.1407 25.599 18.2553C25.9479 18.3699 26.2396 18.6199 26.4375 18.9324C26.6198 19.2084 26.7188 19.5365 26.7084 19.8647C26.7084 19.9272 26.75 19.9897 26.8177 20.0053C26.8959 20.0209 26.9688 19.974 26.9896 19.8959L27.1615 19.1042C27.1875 18.9949 27.2084 18.8855 27.2344 18.7761C27.2656 18.6303 27.3073 18.4845 27.3646 18.3542C27.4636 18.1303 27.6198 17.974 27.8438 17.9063C28.0625 17.8386 28.3281 17.8386 28.5834 17.849C28.8177 17.8595 29.0469 17.8959 29.2709 17.9584C29.5365 18.0261 29.7917 18.1355 30.0156 18.2865C30.4219 18.5678 30.7292 19.0105 30.7813 19.5001C30.7917 19.5782 30.8594 19.6407 30.9375 19.6355C31.0209 19.6303 31.0834 19.5626 31.0834 19.4792C31.0625 19.0522 31.2188 18.6199 31.4844 18.2761C31.724 17.9584 32.0625 17.7188 32.4427 17.6251C32.4792 17.6199 32.5156 17.6095 32.5521 17.6042C32.9688 17.5365 33.4167 17.6667 33.7709 17.9272C34.125 18.1876 34.3854 18.5886 34.4323 19.0313C34.4375 19.073 34.4688 19.099 34.5052 19.099C34.5417 19.0938 34.5729 19.0626 34.5729 19.0261ZM34.1563 14.7501C34.0781 14.7865 34 14.823 33.9219 14.8647C33.8438 14.9063 33.7709 14.9532 33.6979 15.0001C33.4531 15.1667 33.2344 15.3803 33.0625 15.6199C32.849 15.9063 32.6927 16.2345 32.6094 16.5886C32.4427 16.2761 32.2031 16.0053 31.9271 15.8022C31.7344 15.6615 31.5209 15.547 31.2969 15.4636C31.2396 15.4428 31.1875 15.4272 31.1354 15.4115C31.0834 15.3959 31.0313 15.3803 30.9844 15.3699C30.8229 15.3334 30.6563 15.3074 30.4896 15.3022C30.2865 15.2917 30.0781 15.3074 29.875 15.349C29.8229 15.3595 29.7761 15.3699 29.7292 15.3803C29.6719 15.3959 29.6146 15.4167 29.5625 15.4324C29.5 15.4584 29.4323 15.4845 29.3698 15.5105C29.25 15.5678 29.1302 15.6355 29.0209 15.7188C28.8334 15.8595 28.6823 16.047 28.5729 16.2553C28.4896 16.0678 28.3646 15.8959 28.2031 15.7605C28 15.5938 27.7604 15.5053 27.5313 15.4428C27.3802 15.4063 27.2292 15.3751 27.0729 15.3542C26.9896 15.3438 26.9063 15.3386 26.8177 15.3334C26.7656 15.3334 26.7084 15.3386 26.6563 15.3386C26.4584 15.3542 26.2604 15.4115 26.0834 15.5209C25.9531 15.599 25.8386 15.7084 25.7448 15.823C25.6771 15.9011 25.6198 15.9792 25.5729 16.0678C25.5677 16.0782 25.5625 16.0834 25.5573 16.0938C25.4115 16.3595 25.3334 16.6459 25.2865 16.9324C25.2656 16.8907 25.2396 16.8542 25.2188 16.8178C25.099 16.6251 24.9375 16.4636 24.7604 16.3386C24.4011 16.0834 23.9375 15.9636 23.5104 16.0678C23.474 16.0782 23.4531 16.1095 23.4584 16.1459C23.4636 16.1824 23.5 16.2084 23.5365 16.198C23.9271 16.1251 24.3334 16.2501 24.6459 16.4897C24.9636 16.7292 25.1823 17.0938 25.2136 17.474C25.2188 17.5261 25.2604 17.573 25.3125 17.5834C25.3802 17.5886 25.4375 17.547 25.4479 17.4792C25.5 17.0886 25.5573 16.7032 25.7136 16.3699C25.7396 16.3126 25.7656 16.2553 25.7969 16.2032C25.8281 16.1563 25.8646 16.1095 25.8959 16.0626C25.9896 15.9428 26.1042 15.8386 26.2292 15.7657C26.2552 15.7501 26.2865 15.7345 26.3125 15.724C26.4479 15.6615 26.5938 15.6355 26.75 15.6303C26.7709 15.6303 26.7917 15.6303 26.8125 15.6303C27.0209 15.6355 27.2396 15.6772 27.4531 15.7345C27.6615 15.7917 27.8594 15.8751 28.0104 16.0001C28.2448 16.1928 28.3646 16.4949 28.4063 16.8126C28.4011 16.9272 28.4063 17.047 28.4271 17.1667C28.4427 17.2397 28.5052 17.2917 28.5834 17.2917C28.6719 17.2917 28.7396 17.2188 28.7396 17.1303C28.7396 17.0417 28.7344 16.9428 28.724 16.849C28.7448 16.5157 28.9323 16.1824 29.2084 15.974C29.3229 15.8855 29.4531 15.8178 29.5834 15.7605C29.6406 15.7345 29.6979 15.7136 29.7604 15.698C29.849 15.672 29.9427 15.6459 30.0365 15.6355C30.1823 15.6095 30.3334 15.599 30.4792 15.6042C30.6198 15.6095 30.7604 15.6303 30.8959 15.6615C31.2031 15.7292 31.5 15.8542 31.7604 16.0365C32.1354 16.297 32.4271 16.6772 32.5417 17.1199L32.5469 17.1251C32.5573 17.1772 32.6042 17.2188 32.6667 17.2188C32.7344 17.2188 32.7917 17.1615 32.7917 17.0938C32.7969 16.6147 32.9584 16.1407 33.2292 15.7397C33.3854 15.5105 33.5781 15.3074 33.8021 15.1407C33.875 15.0834 33.9479 15.0365 34.0209 14.9897C34.0573 14.9688 34.0938 14.948 34.1354 14.9324C34.1979 14.8959 34.2709 14.8647 34.3386 14.8334C34.375 14.823 34.3906 14.7813 34.3802 14.7449C34.3698 14.7084 34.3281 14.6876 34.2917 14.7032C34.2448 14.7188 34.2031 14.7345 34.1563 14.7501ZM25.8698 12.6876C25.8646 12.698 25.8594 12.7084 25.8594 12.7136C25.8542 12.7501 25.8698 12.7865 25.9063 12.797C25.9375 12.8074 25.9792 12.7865 25.9896 12.7501C25.9948 12.7345 26.0052 12.7136 26.0104 12.6928C26.0417 12.6147 26.0781 12.5365 26.1198 12.4584C26.1406 12.422 26.1615 12.3907 26.1875 12.3542C26.25 12.2553 26.3281 12.1667 26.4115 12.0834C26.4271 12.073 26.4427 12.0574 26.4584 12.0417C26.5417 11.9688 26.6354 11.9011 26.7292 11.8438C27.0625 11.6407 27.4688 11.547 27.8438 11.6199C28.2188 11.698 28.5625 11.922 28.7969 12.2292C28.8698 12.323 28.9323 12.4272 28.9844 12.5365C29.0104 12.5886 29.0313 12.6459 29.0521 12.7084C29.1198 12.9011 29.1511 13.099 29.1354 13.3022C29.1354 13.3334 29.1459 13.3647 29.1615 13.3959C28.9479 13.349 28.7344 13.3334 28.5209 13.3334C28.4896 13.3334 28.4584 13.3386 28.4271 13.3386C28.3386 13.3438 28.2448 13.349 28.1563 13.3595C28.0417 13.3699 27.9219 13.3907 27.8073 13.4167C27.7136 13.4428 27.6198 13.474 27.5261 13.5157C27.4427 13.5522 27.3594 13.5886 27.2813 13.6407C27.2292 13.672 27.1823 13.7084 27.1354 13.7501C26.9427 13.9167 26.7969 14.1355 26.7084 14.3647C26.6927 14.3907 26.6875 14.422 26.6771 14.4532C26.5625 14.198 26.3854 13.9688 26.1563 13.8126C25.7448 13.5365 25.2031 13.4897 24.7604 13.6876C24.7292 13.7032 24.7136 13.7397 24.7292 13.7761C24.7396 13.8074 24.7813 13.8282 24.8125 13.8126C25.2188 13.6615 25.6979 13.7292 26.0313 13.9845C26.3698 14.2397 26.5677 14.6667 26.5417 15.0834C26.5365 15.1511 26.5886 15.2136 26.6563 15.224C26.7292 15.2292 26.7917 15.1772 26.8021 15.1042V15.099C26.849 14.6667 27.0156 14.2397 27.3281 13.974C27.3698 13.9428 27.4115 13.9115 27.4584 13.8803C27.5313 13.8334 27.6146 13.797 27.6979 13.7709C27.7865 13.7345 27.8802 13.7136 27.974 13.6928C28.0625 13.6772 28.1511 13.6667 28.2448 13.6615C28.3386 13.6511 28.4323 13.6459 28.5261 13.6459C28.8073 13.6459 29.0938 13.6876 29.3542 13.7761C29.4948 13.823 29.625 13.8855 29.75 13.9636C30.099 14.1824 30.375 14.5522 30.4271 14.9532V14.9584C30.4323 15.0157 30.4792 15.073 30.5365 15.0834C30.6198 15.1042 30.7031 15.0574 30.7188 14.974C30.8073 14.6251 30.9479 14.2865 31.125 13.974C31.1511 13.9324 31.1771 13.8907 31.2031 13.849C31.2761 13.7397 31.349 13.6303 31.4323 13.5261C31.5469 13.3803 31.6563 13.2657 31.7969 13.2397C31.9427 13.2084 32.1094 13.2449 32.2709 13.3126C32.4375 13.3751 32.599 13.4584 32.7448 13.5626C33.0417 13.7657 33.2917 14.0365 33.4792 14.349C33.5 14.3803 33.5417 14.3907 33.5729 14.3751C33.6094 14.3595 33.6198 14.3126 33.6042 14.2813C33.4323 13.9324 33.1771 13.6303 32.8646 13.3907C32.7084 13.2761 32.5417 13.172 32.3646 13.0938C32.1823 13.0157 31.974 12.9532 31.75 12.9897C31.6354 13.0105 31.5261 13.0626 31.4427 13.1355C31.3542 13.2032 31.2865 13.2761 31.224 13.3542C31.2188 13.3595 31.2136 13.3647 31.2136 13.3699C31.0886 13.5105 30.9792 13.6615 30.8802 13.823C30.7604 14.0157 30.6615 14.224 30.5781 14.4376C30.4323 14.1303 30.1979 13.8699 29.9167 13.6928C29.75 13.5834 29.5677 13.5053 29.3802 13.448C29.4167 13.4272 29.4427 13.3907 29.4531 13.3438C29.5156 13.0001 29.6302 12.6667 29.7969 12.3699C29.8125 12.3438 29.8229 12.3178 29.8386 12.2917C29.8542 12.2605 29.875 12.2345 29.8959 12.2032C30.0625 11.9584 30.2813 11.7553 30.5365 11.6095C30.5677 11.5938 30.5938 11.5782 30.625 11.5626C30.7344 11.5105 30.849 11.474 30.9636 11.448C30.9792 11.4428 31 11.4376 31.0156 11.4376C31.2344 11.4011 31.4584 11.4167 31.6615 11.5001C31.9063 11.599 32.125 11.7813 32.2552 12.0157C32.3021 12.099 32.3334 12.1876 32.3542 12.2813C32.3646 12.3178 32.3959 12.3438 32.4323 12.3386C32.4688 12.3334 32.5 12.297 32.4948 12.2605C32.4896 12.2449 32.4896 12.2345 32.4844 12.224C32.4271 11.8074 32.1198 11.4636 31.7552 11.2917C31.5104 11.1772 31.2396 11.1459 30.974 11.1772C30.8125 11.198 30.6563 11.2449 30.5156 11.3074C30.125 11.4688 29.8021 11.7761 29.5834 12.1303C29.5469 12.1824 29.5209 12.2397 29.4896 12.297C29.4479 12.3699 29.4115 12.4428 29.3802 12.5157C29.3698 12.5417 29.3594 12.5678 29.3438 12.599C29.3386 12.5782 29.3334 12.5626 29.3229 12.547C29.3073 12.5053 29.2917 12.4636 29.2709 12.422C29.2656 12.4115 29.2604 12.4011 29.2552 12.3907C29.1927 12.2657 29.1198 12.1459 29.0313 12.0365C28.75 11.6824 28.349 11.4115 27.8906 11.349C27.4375 11.2761 26.974 11.4063 26.6094 11.6511C26.599 11.6615 26.5886 11.6667 26.5834 11.672C26.5209 11.7188 26.4584 11.7657 26.4011 11.8178C26.3073 11.9063 26.2188 12.0053 26.1406 12.1095C26.1302 12.1199 26.125 12.1355 26.1146 12.1459C26 12.3126 25.9167 12.4949 25.8698 12.6876ZM28.2396 10.1355C28.1875 10.2032 28.1459 10.2657 28.1042 10.3386C28.0156 10.4949 27.9479 10.6667 27.9167 10.8438C27.9063 10.8751 27.9271 10.9063 27.9531 10.9167C27.9896 10.9324 28.0313 10.9167 28.0417 10.8803C28.1146 10.7084 28.2084 10.5522 28.3177 10.4167C28.3698 10.3595 28.4167 10.3022 28.474 10.2501C28.5365 10.1928 28.599 10.1355 28.6719 10.0886C28.9427 9.90112 29.2709 9.79695 29.599 9.80216C29.6927 9.80216 29.7813 9.81258 29.8698 9.8282C29.9427 9.84383 30.0156 9.85945 30.0834 9.88029C30.2396 9.93237 30.3594 10.0105 30.474 10.1251C30.5834 10.2449 30.6771 10.3907 30.7656 10.5417C30.849 10.6928 30.9115 10.8542 30.9375 11.0209C30.9427 11.0313 30.9479 11.0365 30.9531 11.047C30.9636 11.0626 30.9792 11.0782 31.0052 11.0834C31.0417 11.0834 31.0781 11.0574 31.0781 11.0157C31.0886 10.9115 31.0729 10.8126 31.0521 10.7136C31.0313 10.6199 31.0052 10.5313 30.9688 10.4428C30.9688 10.4428 30.9688 10.4376 30.9688 10.4324C30.9063 10.2917 30.8386 10.1511 30.7448 10.0157C30.724 9.98966 30.7084 9.96362 30.6875 9.93758C30.5625 9.77612 30.3698 9.65112 30.1823 9.58341C30.1198 9.56258 30.0573 9.54175 29.9896 9.53133C29.8646 9.50008 29.7292 9.48445 29.599 9.47925C29.2084 9.47925 28.8073 9.61466 28.5052 9.86466C28.4063 9.94279 28.3177 10.0365 28.2396 10.1355ZM31.4792 9.63029C31.8021 9.86987 32.1042 10.1563 32.3906 10.4688C32.4479 10.5313 32.474 10.599 32.474 10.6667C32.7604 10.9949 33.0365 11.3334 33.2969 11.6928C33.5573 11.3542 33.9323 11.1095 34.3438 11.0157C34.5834 10.9636 34.8386 10.9532 35.0834 11.0001C35.2031 11.0261 35.3229 11.0626 35.4375 11.1147C35.5521 11.1667 35.6615 11.2345 35.7604 11.3074C36.0104 11.5053 36.2031 11.7761 36.3073 12.0834C36.4271 11.8647 36.5625 11.6563 36.7344 11.4688C36.8281 11.3699 36.9375 11.2761 37.0521 11.1928C37.5104 10.3438 38.0365 9.5157 38.5521 8.71883C38.2292 8.7657 37.9636 8.94279 37.7917 9.21883C37.6146 9.49487 37.5156 9.83341 37.4219 10.1772C37.4011 10.2553 37.3229 10.3022 37.2448 10.2813C37.2084 10.2709 37.1823 10.2501 37.1615 10.224C37.0156 10.0157 36.9792 9.78133 36.9323 9.58862C36.8854 9.3907 36.8281 9.22404 36.7084 9.11987C36.5886 9.01049 36.4063 8.948 36.224 8.91675C36.0313 8.88029 35.8386 8.86466 35.6563 8.88029C35.2917 8.91154 34.9948 9.15633 34.8125 9.49487C34.6302 9.823 34.5677 10.2292 34.5052 10.6355C34.4896 10.7188 34.4167 10.7761 34.3334 10.7657C34.2552 10.7501 34.2031 10.6824 34.2031 10.6095C34.2188 10.1876 34.0156 9.77612 33.7084 9.47925C33.4011 9.17716 32.9896 8.97925 32.5625 8.948C32.349 8.93237 32.125 8.9532 31.9584 9.05737C31.7917 9.15633 31.6563 9.33862 31.5365 9.53133C31.5156 9.56258 31.5 9.59904 31.4792 9.63029ZM41.0521 8.15112C41.0209 8.16154 40.9896 8.17195 40.9584 8.18758C40.8281 8.23966 40.7084 8.31779 40.599 8.40112C40.4479 8.52091 40.3229 8.66674 40.2136 8.823C40.1823 8.87508 40.1563 8.92195 40.125 8.97404C40.1146 8.99487 40.099 9.02091 40.0834 9.04175C39.9636 9.28654 39.8854 9.54695 39.8386 9.80737C39.7865 10.073 39.7709 10.3386 39.7813 10.6042C39.7865 10.6355 39.8125 10.6667 39.8438 10.6667C39.8802 10.672 39.9167 10.6407 39.9167 10.6042C39.9427 10.1042 40.0365 9.60425 40.2709 9.17716C40.2761 9.17195 40.2813 9.16154 40.2865 9.15112C40.3125 9.10425 40.3386 9.06258 40.3698 9.02091C40.474 8.85945 40.599 8.71362 40.7552 8.60425C40.8854 8.51049 41.0313 8.44279 41.1823 8.39591C41.2552 8.37508 41.3281 8.35425 41.4063 8.34383C41.6406 8.30737 41.8906 8.30737 42.1406 8.323C42.3906 8.33862 42.6459 8.35945 42.8802 8.41154C43.1198 8.46883 43.3386 8.55737 43.5156 8.698C43.6927 8.84383 43.8281 9.03654 43.8594 9.24487C43.8698 9.30737 43.9115 9.35425 43.974 9.37508C44.0573 9.39591 44.1459 9.34904 44.1667 9.2605C44.2813 8.84383 44.4063 8.42716 44.6719 8.13029C44.9271 7.83341 45.3386 7.72924 45.7448 7.7657C46.1511 7.80737 46.5521 7.97404 46.8906 8.21362C47.2396 8.4532 47.5209 8.78654 47.7188 9.16675C47.7396 9.198 47.7761 9.21362 47.8125 9.198C47.8438 9.18237 47.8646 9.1407 47.849 9.10425C47.6719 8.68758 47.3802 8.31779 47.0261 8.03133C46.6667 7.75529 46.2344 7.55737 45.7709 7.49487C45.5417 7.46362 45.3021 7.46883 45.0677 7.53654C44.8334 7.60424 44.6146 7.74487 44.4479 7.92716C44.2292 8.17195 44.0938 8.46362 43.9948 8.75529C43.9167 8.6355 43.8177 8.53654 43.7136 8.448C43.4844 8.27091 43.2136 8.16674 42.9479 8.11466C42.6823 8.05737 42.4167 8.03654 42.1563 8.02091C41.8959 8.01049 41.625 8.01049 41.3542 8.06258C41.2552 8.08341 41.1511 8.11466 41.0521 8.15112ZM41.2396 7.85425C41.25 7.88029 41.2604 7.8907 41.2761 7.90633C41.2917 7.91674 41.3229 7.93237 41.3594 7.91675C41.3906 7.90112 41.3959 7.8907 41.4115 7.87508C41.4427 7.80737 41.4271 7.77612 41.4323 7.75529C41.4323 7.70841 41.4323 7.66154 41.4427 7.61987C41.4531 7.52612 41.4792 7.43758 41.5209 7.35425C41.5938 7.18237 41.7031 7.03654 41.8386 6.90112C41.9688 6.77091 42.125 6.65633 42.2865 6.54695C42.4531 6.43758 42.6094 6.34383 42.7709 6.31258C42.9323 6.28133 43.1198 6.29174 43.3073 6.3282C43.4896 6.35945 43.6719 6.42195 43.8438 6.49487C44.1875 6.65112 44.5052 6.88549 44.7552 7.18758C44.7813 7.21362 44.8177 7.21883 44.8438 7.2032C44.8802 7.18237 44.8906 7.1407 44.8698 7.10425C44.7709 6.92195 44.6302 6.76049 44.4844 6.60945C44.3281 6.46362 44.1563 6.33862 43.9688 6.23966C43.7813 6.1407 43.5729 6.06779 43.3646 6.02091C43.1563 5.97925 42.9375 5.9532 42.7031 6.00008C42.4688 6.04695 42.2813 6.17195 42.1146 6.29175C41.9479 6.41675 41.7813 6.54695 41.6354 6.70841C41.4948 6.86987 41.375 7.06258 41.3073 7.27612C41.2761 7.38029 41.2604 7.49487 41.2604 7.60425C41.2604 7.65633 41.2604 7.71362 41.2709 7.7657C41.2604 7.77091 41.25 7.78133 41.2448 7.79695C41.2344 7.81779 41.2344 7.84383 41.2396 7.85425ZM47.8802 9.79695C47.6771 9.80737 47.474 9.83341 47.2761 9.90633C47.0781 9.97404 46.8854 10.0886 46.7396 10.2553C46.5938 10.422 46.5104 10.6303 46.4636 10.8334C46.4584 10.849 46.4531 10.8647 46.4531 10.8803C46.3854 10.7761 46.3021 10.672 46.2188 10.5834C46 10.3542 45.7396 10.1824 45.4584 10.0626C44.8906 9.81779 44.2969 9.7605 43.724 9.68758C43.5729 9.67195 43.4167 9.66154 43.2552 9.68237C43.0886 9.7032 42.9271 9.7605 42.7865 9.84383C42.5052 10.0105 42.3125 10.2553 42.1459 10.4949C42.1406 10.5001 42.1354 10.5053 42.1354 10.5105C41.9688 10.7605 41.8125 11.0105 41.6875 11.2917C41.6302 11.422 41.5886 11.5574 41.5573 11.698C41.3542 11.4324 41.0886 11.2188 40.7917 11.0834C40.5677 10.9792 40.3229 10.922 40.0781 10.9063C40.0052 10.9063 39.9323 10.9063 39.8594 10.9115C39.6771 10.922 39.5 10.9532 39.3281 11.0105C39.1823 11.0574 39.0417 11.1251 38.9115 11.2032C38.8334 11.2553 38.75 11.3126 38.6771 11.3751C38.6771 11.3751 38.6719 11.3751 38.6719 11.3803C38.4844 11.5417 38.3281 11.7292 38.2031 11.9428C37.9531 12.3647 37.8229 12.8334 37.7344 13.3022C37.724 13.3386 37.75 13.3699 37.7813 13.3803C37.8177 13.3907 37.8542 13.3647 37.8646 13.3282C37.974 12.8751 38.1198 12.4272 38.3698 12.047C38.5 11.8386 38.6719 11.6563 38.8646 11.5157C38.9375 11.4584 39.0209 11.4063 39.1042 11.3595C39.1979 11.3126 39.2969 11.2709 39.4011 11.2397C39.5104 11.2084 39.6198 11.1824 39.7344 11.172C39.8073 11.1615 39.8802 11.1615 39.9531 11.1615C40.2031 11.1667 40.4531 11.2188 40.6771 11.3334C41.0677 11.5261 41.3854 11.8647 41.5521 12.2657C41.5781 12.3282 41.6459 12.3647 41.7136 12.3542C41.7917 12.3386 41.849 12.2657 41.8334 12.1824C41.7917 11.9324 41.8542 11.6667 41.9636 11.4167C42.0469 11.224 42.1563 11.0365 42.2761 10.8542C42.3125 10.8022 42.349 10.7449 42.3854 10.6876C42.5469 10.4584 42.724 10.2449 42.9427 10.1199C43.1615 9.98966 43.4115 9.97404 43.6875 10.0053C44.2552 10.073 44.8334 10.1303 45.3386 10.3438C45.8334 10.5522 46.2761 10.9584 46.3802 11.474H46.3854C46.3959 11.5365 46.4531 11.5886 46.5156 11.5886C46.599 11.5938 46.6615 11.5313 46.6667 11.4532C46.6875 11.073 46.724 10.6876 46.9375 10.4272C47.1563 10.1667 47.5261 10.0522 47.8906 10.0365C48.2552 10.0157 48.6302 10.0782 48.9636 10.2345C49.2917 10.3959 49.5729 10.6667 49.6771 11.0209C49.6875 11.0574 49.724 11.0782 49.7604 11.0678C49.7969 11.0626 49.8177 11.0209 49.8125 10.9845C49.7656 10.7813 49.6667 10.5938 49.5313 10.4376C49.3959 10.2813 49.2292 10.1563 49.0469 10.0626C48.6875 9.87508 48.2813 9.78654 47.8802 9.79695ZM49.8281 11.7657C49.625 11.9011 49.4636 12.0782 49.3386 12.2813C49.1771 12.5417 49.0625 12.8334 49.0052 13.1355C48.9375 13.0209 48.8542 12.9115 48.7604 12.8178C48.5521 12.5938 48.2917 12.4376 48.0261 12.3178C47.7604 12.1928 47.4844 12.1095 47.2084 12.0313C47.0729 11.9949 46.9271 11.9584 46.7761 11.9428C46.6198 11.922 46.4532 11.9376 46.3021 11.9897C46 12.0938 45.7656 12.2709 45.5365 12.4532C45.3125 12.6459 45.1094 12.8647 44.9375 13.1042C44.7084 13.422 44.5313 13.7813 44.4115 14.1615C44.2292 13.7345 43.9584 13.349 43.5938 13.0522C43.3386 12.8438 43.0417 12.6772 42.7188 12.5938C42.7136 12.5938 42.7136 12.5938 42.7136 12.5938C42.3959 12.5053 42.0573 12.4897 41.7292 12.5522C41.4011 12.6042 41.0834 12.7397 40.8177 12.948C40.7917 12.9688 40.7761 12.9897 40.75 13.0105C40.6823 13.0678 40.625 13.1303 40.5677 13.1928C40.4219 13.3595 40.3021 13.547 40.2188 13.7449C40.0469 14.1511 39.9792 14.573 39.9636 14.9949C39.875 14.8542 39.7813 14.724 39.6667 14.6095C39.4115 14.349 39.099 14.1511 38.7552 14.0365C38.7344 14.0313 38.7136 14.0261 38.6927 14.0157C38.625 14.0001 38.5573 13.9845 38.4844 13.9688C38.2709 13.9272 38.0469 13.9167 37.8281 13.9532C37.7396 13.9688 37.6459 13.9897 37.5573 14.0157C37.5313 14.0261 37.5104 14.0365 37.4844 14.047C37.3281 14.1042 37.1771 14.1928 37.0573 14.3178C36.9844 14.3907 36.9271 14.474 36.8854 14.5678C36.8854 14.5678 36.8854 14.573 36.8802 14.573C36.8802 14.573 36.875 14.573 36.875 14.5678C36.8177 14.5574 36.8021 14.5834 36.7917 14.5938C36.7709 14.6147 36.7604 14.6303 36.7552 14.6563C36.7552 14.672 36.75 14.6876 36.7552 14.7084C36.7604 14.7292 36.7813 14.7553 36.8021 14.7657C36.8229 14.7761 36.8386 14.7761 36.849 14.7761C36.8594 14.7761 36.875 14.7761 36.8854 14.7709C36.9792 14.7292 36.9896 14.6667 37.0156 14.6303C37.0521 14.5574 37.1042 14.4897 37.1667 14.4324C37.2865 14.3178 37.4427 14.2345 37.6094 14.1876C37.6146 14.1824 37.6198 14.1824 37.625 14.1824C37.7396 14.1511 37.8594 14.1303 37.9792 14.1251C38.125 14.1199 38.2761 14.1355 38.4219 14.1615C38.4896 14.1772 38.5625 14.198 38.6302 14.2188C38.6511 14.224 38.6719 14.2345 38.6927 14.2449C38.9948 14.3542 39.2761 14.5417 39.5 14.7761C39.6146 14.9011 39.7188 15.0417 39.8021 15.1928C39.8802 15.349 39.9375 15.5105 39.9792 15.6772C39.9896 15.7345 40.0469 15.7813 40.1094 15.7761C40.1771 15.7761 40.2344 15.7136 40.2292 15.6407C40.2031 15.0313 40.2396 14.4011 40.4792 13.8647C40.5834 13.6355 40.7292 13.4324 40.9115 13.2657C40.9375 13.2397 40.9688 13.2084 41 13.1876C41.0313 13.1615 41.0625 13.1407 41.0938 13.1199C41.2969 12.9845 41.5365 12.8907 41.7813 12.849C42.0625 12.8022 42.3594 12.8178 42.6354 12.8959C42.6771 12.9063 42.7136 12.9167 42.75 12.9324C42.9844 13.0105 43.2031 13.1355 43.3959 13.297C43.8438 13.672 44.1563 14.2136 44.2813 14.7865C44.2969 14.849 44.349 14.9011 44.4167 14.9115C44.5 14.922 44.5781 14.8647 44.5886 14.7761C44.6667 14.2397 44.8698 13.724 45.1823 13.2813C45.3386 13.0626 45.5209 12.8647 45.7292 12.6876C45.9323 12.5157 46.1615 12.349 46.3906 12.2709C46.6198 12.1876 46.8698 12.2345 47.1354 12.3074C47.4063 12.3751 47.6719 12.4532 47.9219 12.5574C48.1667 12.6667 48.3959 12.8022 48.5834 12.9897C48.7709 13.1772 48.9063 13.4063 48.9584 13.6563V13.6615C48.9688 13.7188 49.0156 13.7553 49.0729 13.7553C49.1406 13.7553 49.1875 13.698 49.1875 13.6355C49.1719 13.2032 49.2813 12.7605 49.5 12.3803C49.6042 12.198 49.75 12.0261 49.9219 11.9063C50.0938 11.7813 50.2969 11.7032 50.5052 11.7292C50.5417 11.7345 50.5729 11.7084 50.5834 11.672C50.5886 11.6303 50.5625 11.5938 50.5209 11.5886C50.2761 11.547 50.0261 11.6303 49.8281 11.7657ZM18.8229 17.8022C18.75 17.9376 18.6875 18.0834 18.6406 18.2345C18.5781 18.4324 18.5417 18.6355 18.5313 18.8438C18.3438 18.6147 18.1198 18.422 17.8698 18.2761C17.4896 18.047 17.0469 17.922 16.5938 17.9428C16.4792 17.948 16.3594 17.9688 16.2448 18.0157C16.125 18.0626 16.0209 18.1355 15.9375 18.2188C15.7656 18.3855 15.6459 18.573 15.5521 18.7813C15.4636 18.9636 15.4115 19.1563 15.375 19.3542C15.2292 19.1511 15.0417 18.974 14.8281 18.8386C14.6198 18.7032 14.3802 18.6095 14.1354 18.5574C13.8854 18.5157 13.6302 18.5001 13.3646 18.599C13.2344 18.6511 13.1146 18.7449 13.0313 18.8438C12.9427 18.948 12.8802 19.047 12.8125 19.1459C12.6823 19.3438 12.5625 19.5522 12.4584 19.7657C12.3386 20.0157 12.2344 20.2761 12.1511 20.5365C12.1042 20.4063 12.0417 20.2813 11.9636 20.1667C11.7761 19.8803 11.5156 19.6459 11.2188 19.4845C10.9271 19.323 10.6042 19.224 10.2761 19.172C9.95315 19.1251 9.62502 19.1199 9.30211 19.1407C9.26565 19.1407 9.23961 19.172 9.23961 19.2084C9.23961 19.2449 9.27086 19.2761 9.30732 19.2761C9.62502 19.2709 9.94273 19.2917 10.25 19.349C10.5521 19.4115 10.8542 19.5105 11.1146 19.672C11.375 19.8282 11.6042 20.0417 11.7604 20.3022C11.9219 20.5522 12.0156 20.8542 11.9948 21.1459C11.9896 21.2084 12.0313 21.2657 12.0938 21.2813C12.1667 21.297 12.2344 21.2553 12.2552 21.1824V21.1772C12.3542 20.7345 12.5156 20.3074 12.7188 19.9011C12.8229 19.698 12.9323 19.5001 13.0625 19.3126C13.1927 19.1199 13.3073 18.9428 13.474 18.8855C13.6459 18.8178 13.875 18.823 14.0781 18.8647C14.2813 18.9063 14.4844 18.9897 14.6615 19.1042C15.0209 19.3386 15.2865 19.7084 15.3906 20.1147V20.1199C15.4115 20.2032 15.4896 20.2553 15.5729 20.2345C15.6615 20.2188 15.7136 20.1355 15.6979 20.047C15.6198 19.672 15.6667 19.2657 15.8281 18.9115C15.9063 18.7345 16.0156 18.5626 16.1459 18.4376C16.2709 18.3126 16.4271 18.2553 16.6146 18.2397C16.9948 18.224 17.3906 18.323 17.7292 18.5157C18.0729 18.7084 18.3698 18.9949 18.5625 19.3386V19.3438C18.5886 19.3855 18.6406 19.4115 18.6927 19.4011C18.7604 19.3907 18.8073 19.3282 18.7917 19.2605C18.7448 18.9636 18.7604 18.6615 18.8334 18.3699C18.875 18.2032 18.9323 18.047 19.0052 17.8959C19.2084 17.474 19.5417 17.1095 19.9584 16.8855C19.9896 16.8699 20.0052 16.8282 19.9896 16.7917C19.9688 16.7553 19.9271 16.7397 19.8959 16.7605C19.4375 16.974 19.0625 17.3542 18.8229 17.8022ZM21.1354 20.5209C20.9219 20.1095 20.5209 19.8178 20.0834 19.6824C19.6459 19.5417 19.1511 19.5522 18.724 19.7501C18.2969 19.948 17.9531 20.3074 17.75 20.7292C17.6615 20.9011 17.599 21.0938 17.5625 21.2865C17.5521 21.2761 17.5417 21.2605 17.5365 21.2501C17.349 21.0261 17.1146 20.8542 16.8698 20.724C16.3698 20.4636 15.8073 20.3438 15.2448 20.4167C14.9636 20.4532 14.6823 20.5417 14.4427 20.7084C14.3177 20.7917 14.2136 20.8959 14.1146 21.0053C14.0209 21.1147 13.9427 21.2449 13.8802 21.3751C13.7396 21.698 13.6823 22.0261 13.6615 22.3595C13.5313 22.1772 13.3646 22.0261 13.1823 21.9063C12.8125 21.6615 12.3802 21.5574 11.9636 21.5209C11.75 21.5053 11.5417 21.4897 11.3177 21.5313C11.0938 21.5678 10.875 21.7084 10.75 21.8959C10.6146 22.0834 10.5521 22.297 10.5156 22.5053C10.474 22.7188 10.4688 22.9324 10.4636 23.1407C10.4636 23.1772 10.4948 23.2084 10.5313 23.2084C10.5677 23.2084 10.599 23.1824 10.599 23.1459C10.6094 22.9376 10.6302 22.7345 10.6771 22.5417C10.7188 22.349 10.7865 22.1563 10.9011 22.0105C11.0156 21.8647 11.1719 21.7657 11.3542 21.7449C11.5365 21.7188 11.7448 21.7345 11.9375 21.7553C12.3334 21.797 12.724 21.9063 13.0365 22.1251C13.349 22.3438 13.5938 22.672 13.6563 23.0365C13.6667 23.1042 13.7292 23.1563 13.8021 23.1563C13.8802 23.1563 13.9427 23.0886 13.9427 23.0053C13.9427 22.4792 13.9531 21.948 14.1563 21.5053C14.3542 21.0574 14.8021 20.7865 15.2865 20.7345C15.7709 20.6772 16.2865 20.7709 16.724 21.0001C16.9479 21.1147 17.1459 21.2657 17.3021 21.448C17.4063 21.5782 17.4844 21.724 17.5209 21.8803C17.5261 21.9584 17.5365 22.0313 17.5521 22.1042C17.5625 22.1772 17.625 22.2292 17.6927 22.2292C17.7761 22.2292 17.8438 22.1615 17.8438 22.0782C17.8438 21.9897 17.8334 21.9011 17.8125 21.8126C17.7969 21.4845 17.8594 21.1511 18 20.849C18.1719 20.474 18.4584 20.1511 18.8281 19.974C19.1927 19.797 19.6302 19.7657 20.0261 19.8751C20.4271 19.9845 20.7969 20.2345 21.0156 20.5938C21.0365 20.6251 21.0781 20.6355 21.1094 20.6199C21.1406 20.599 21.1563 20.5574 21.1354 20.5209ZM10.6042 18.5053C10.599 18.5417 10.625 18.573 10.6615 18.573C10.6979 18.5782 10.7292 18.5522 10.7344 18.5157C10.7865 18.0938 10.8906 17.6824 11.0573 17.297C11.1406 17.1042 11.2396 16.9428 11.4011 16.849C11.5625 16.7501 11.7604 16.6876 11.9531 16.6667C12.3438 16.6303 12.75 16.7553 13.0313 17.0157C13.3177 17.2813 13.5 17.6615 13.5052 18.047C13.5052 18.0522 13.5052 18.0522 13.5052 18.0574C13.5104 18.1407 13.5781 18.2032 13.6615 18.198C13.7448 18.198 13.8073 18.1251 13.8073 18.0417C13.8073 18.0417 13.8073 18.0417 13.8073 18.0365C13.7865 17.6303 13.7865 17.2188 13.9167 16.8699C14.0417 16.5105 14.3438 16.297 14.7188 16.2709C15.0886 16.2449 15.4792 16.349 15.7969 16.5626C16.1146 16.7709 16.3698 17.0834 16.4896 17.4428C16.5104 17.5053 16.5729 17.5522 16.6406 17.547C16.7188 17.5365 16.7813 17.4688 16.7761 17.3855C16.75 17.0522 16.724 16.724 16.8229 16.4376C16.8854 16.2449 17.0156 16.0834 17.1875 15.9688C17.2656 15.9115 17.349 15.8647 17.4427 15.8334C17.7344 15.724 18.0573 15.724 18.3594 15.8282C18.4584 15.8595 18.5521 15.9063 18.6459 15.9532C18.6979 15.9792 18.75 16.0105 18.8021 16.0417C18.9375 16.1251 19.0677 16.2188 19.1875 16.323C19.2188 16.349 19.2604 16.349 19.2865 16.323C19.3125 16.2917 19.3125 16.2501 19.2865 16.224C19.1615 16.099 19.0261 15.9845 18.8802 15.8855C18.8281 15.849 18.7761 15.8178 18.724 15.7865C18.625 15.7345 18.5261 15.6824 18.4219 15.6459C18.0938 15.5157 17.7136 15.4845 17.3646 15.6042C17.2865 15.6303 17.2084 15.6667 17.1302 15.7084C17.0469 15.7553 16.9636 15.8126 16.8906 15.8803C16.75 16.0053 16.6354 16.1667 16.5729 16.3438C16.5209 16.4949 16.4896 16.6459 16.4792 16.797C16.3334 16.6042 16.1615 16.4376 15.9636 16.3022C15.5938 16.0574 15.1459 15.9272 14.6927 15.9532C14.4688 15.974 14.2292 16.0365 14.0365 16.1876C13.8386 16.3282 13.7031 16.5417 13.625 16.7553C13.5781 16.8907 13.5469 17.0261 13.5261 17.1563C13.4427 17.0261 13.3386 16.9063 13.2188 16.8022C12.8646 16.4949 12.3802 16.3647 11.9271 16.422C11.6979 16.4532 11.474 16.5261 11.2761 16.6563C11.1823 16.7188 11.0886 16.8074 11.0209 16.9115C10.9584 17.0105 10.9115 17.1199 10.8698 17.2188C10.7188 17.6303 10.625 18.0678 10.6042 18.5053ZM12.0209 16.099C12.0573 16.1095 12.0938 16.0886 12.1042 16.0522C12.2136 15.7032 12.3386 15.3595 12.5573 15.0886C12.6615 14.9532 12.7865 14.8386 12.9323 14.7605C13.0781 14.6824 13.2396 14.6355 13.4011 14.6251C13.7344 14.599 14.0729 14.6876 14.3594 14.8699C14.6563 15.0417 14.9011 15.297 15.1146 15.5782L15.1198 15.5834C15.1459 15.6199 15.1927 15.6459 15.2448 15.6407C15.3334 15.6407 15.4011 15.5678 15.4011 15.4792C15.3959 15.1511 15.4011 14.823 15.5104 14.5574C15.6198 14.2865 15.849 14.0678 16.1198 14.073C16.3906 14.073 16.6719 14.2553 16.8906 14.4792C16.9479 14.5313 16.9948 14.5834 17.0469 14.6407C17.2084 14.823 17.349 15.0313 17.4688 15.2501C17.4844 15.2813 17.5209 15.297 17.5521 15.2865C17.5886 15.2709 17.6094 15.2292 17.5938 15.1928C17.474 14.8751 17.2865 14.5834 17.0573 14.3282C17.0573 14.323 17.0573 14.323 17.0521 14.3178C16.9375 14.1928 16.8073 14.0678 16.6511 13.974C16.5 13.8803 16.3229 13.8022 16.125 13.7917C15.9271 13.7813 15.7188 13.8542 15.5677 13.9792C15.4167 14.099 15.3021 14.2605 15.2292 14.4324C15.1406 14.6407 15.1042 14.8542 15.0938 15.0626C14.9219 14.8855 14.7344 14.724 14.5209 14.599C14.1823 14.3959 13.7709 14.2917 13.375 14.3438C13.1771 14.3699 12.9792 14.4324 12.8073 14.5365C12.6302 14.6459 12.4896 14.7917 12.375 14.9532C12.1563 15.2813 12.0469 15.6511 11.974 16.0209C11.9688 16.0522 11.9896 16.0886 12.0209 16.099ZM13.1302 13.849C13.1354 13.8803 13.1563 13.9115 13.1875 13.9167C13.224 13.922 13.2604 13.9011 13.2656 13.8647C13.3334 13.547 13.4479 13.2501 13.6146 12.9897C13.7031 12.8542 13.7917 12.7345 13.8959 12.6667C14.0052 12.5938 14.1511 12.547 14.2917 12.5261C14.5834 12.474 14.8906 12.5157 15.1719 12.6251C15.3125 12.6824 15.4427 12.7553 15.5677 12.849C15.6302 12.8907 15.6875 12.9428 15.7396 13.0001L15.8125 13.073C15.8229 13.0834 15.8281 13.0886 15.8281 13.0938C15.8125 13.1147 15.8021 13.1407 15.8125 13.1667C15.8281 13.2032 15.8646 13.224 15.9011 13.2084C15.9271 13.2032 15.9531 13.1824 15.9688 13.1563C15.9792 13.1355 15.9844 13.1095 15.9844 13.0886C15.9844 13.0522 15.974 13.0261 15.9636 12.9949C15.9479 12.9636 15.9323 12.948 15.9219 12.9272L15.8854 12.8751C15.8386 12.8022 15.7813 12.7345 15.7188 12.672C15.5938 12.547 15.4479 12.4428 15.2865 12.3647C14.9688 12.2032 14.599 12.1459 14.2396 12.2084C14.0625 12.2449 13.8854 12.2917 13.7188 12.4115C13.5573 12.5365 13.4584 12.6928 13.375 12.849C13.2136 13.1563 13.1302 13.5053 13.1302 13.849ZM50.5 18.1355C48.0417 20.5417 44.0729 21.1355 40.8177 20.573C39.1771 20.2865 37.7084 19.6251 36.7292 18.2188C36.6302 18.0834 36.5417 17.9376 36.4584 17.7917C35.7292 16.4897 35.5834 14.9011 36.0417 13.474C35.9896 13.474 35.9375 13.4792 35.8854 13.4845C35.4323 13.5313 34.9948 13.7605 34.724 14.1251C35.1823 15.1459 35.4896 16.2188 35.5677 17.3074C35.5834 17.5157 35.5834 17.7188 35.5729 17.9063C35.4115 20.547 32.7813 21.2032 30.4323 21.5365C28.0469 21.8803 24.5781 22.2813 23.375 19.5782C23.3334 19.4792 23.2917 19.3803 23.2604 19.2813C22.8177 18.0678 22.974 16.8022 23.4063 15.5886C23.1146 15.7501 22.8698 16.0053 22.6927 16.3074C22.4271 16.7553 22.2813 17.2813 22.1459 17.8074C22.125 17.8855 22.0417 17.9324 21.9636 17.9115C21.9011 17.8959 21.8542 17.8334 21.8542 17.7709C21.8438 17.2917 21.6875 16.8126 21.4063 16.422C21.1302 16.0209 20.7396 15.7032 20.2917 15.5157C20.1511 15.4584 19.9948 15.4167 19.8438 15.3907C20.224 15.9792 20.5677 16.5886 20.875 17.2136C21.1823 17.849 21.4531 18.5313 21.5834 19.2345C21.6979 19.8751 21.6979 20.5261 21.4792 21.1667C21.0313 22.4688 19.7344 23.3126 18.5521 23.8595C17.1459 24.5105 15.5573 24.7188 14.0261 24.8282C12.6823 24.9272 11.2031 24.7865 10.1302 23.8699C7.80211 21.8855 9.28127 18.073 10.1875 15.7553C10.7292 14.3751 11.2865 12.474 12.474 11.5053C13.4115 10.7449 14.7344 10.6459 15.6459 11.4636C16.2709 11.7813 16.849 12.1615 17.3854 12.6042C18.2656 13.323 19.0261 14.1928 19.6771 15.1407C19.9167 15.1615 20.1563 15.2084 20.3802 15.2917C20.875 15.4897 21.3125 15.823 21.625 16.2605C21.8073 16.5053 21.9479 16.7865 22.0365 17.0834C22.1354 16.7657 22.2604 16.448 22.4271 16.1511C22.5781 15.9011 22.7604 15.6667 22.9896 15.4845C23.1615 15.3438 23.3594 15.2397 23.5677 15.1667C23.6354 15.0105 23.7031 14.8542 23.7761 14.698C23.6979 14.2345 23.6042 13.7657 23.3802 13.3855C23.2656 13.1928 23.1198 13.0261 22.9323 12.922C22.75 12.8178 22.5313 12.7761 22.3177 12.797C22.099 12.8178 21.8854 12.8907 21.6979 13.0105C21.5052 13.1251 21.349 13.2865 21.2188 13.474C20.9531 13.8438 20.8125 14.3074 20.7396 14.7813C20.7292 14.8542 20.6667 14.9011 20.5938 14.8907C20.5313 14.8803 20.4896 14.8282 20.4844 14.7709C20.4427 14.1407 20.2084 13.5105 19.7656 13.073C19.5417 12.8542 19.2656 12.6928 18.9636 12.6095C18.6667 12.5261 18.3438 12.5209 18.0469 12.6251C18.0104 12.6355 17.974 12.6199 17.9584 12.5834C17.9479 12.547 17.9688 12.5105 18 12.5001C18.3177 12.3699 18.6771 12.3595 19.0052 12.4376C19.3386 12.5209 19.6511 12.6824 19.9063 12.9167C20.1615 13.1511 20.3594 13.4428 20.4948 13.7553C20.5417 13.8699 20.5834 13.9897 20.6198 14.1042C20.6979 13.823 20.8125 13.5522 20.9792 13.3022C21.2709 12.8699 21.7552 12.547 22.2917 12.4949C22.5573 12.4688 22.8386 12.5157 23.0781 12.6563C23.3229 12.7865 23.5104 12.9949 23.6459 13.2188C23.7865 13.4584 23.8802 13.7136 23.9531 13.9688C24.0573 13.724 24.2084 13.4949 24.3959 13.3022C24.4844 13.2084 24.5886 13.1251 24.6927 13.047C24.9531 12.6355 25.2188 12.2449 25.4792 11.8803C25.6146 11.6824 25.7604 11.4845 25.9115 11.2917C25.8646 11.2084 25.8177 11.1303 25.7552 11.0574C25.4688 10.7032 25.0365 10.474 24.5834 10.3855C24.1406 10.2917 23.6406 10.3438 23.3177 10.6407C22.9948 10.9428 22.875 11.4324 22.8334 11.9063C22.8229 11.9897 22.7552 12.047 22.6719 12.0417C22.599 12.0365 22.5417 11.9688 22.5417 11.8959C22.5313 11.4949 22.3698 11.0886 22.0938 10.7917C21.9584 10.6407 21.7917 10.5209 21.6094 10.4324C21.4271 10.349 21.224 10.297 21.0209 10.2917C20.6146 10.2709 20.1927 10.4011 19.875 10.6667C19.5573 10.9376 19.3438 11.323 19.1302 11.7084C19.1146 11.7397 19.0729 11.7501 19.0417 11.7345C19.0104 11.7136 18.9948 11.6772 19.0104 11.6459C19.2031 11.2501 19.4063 10.8334 19.75 10.5209C20.0938 10.2032 20.5625 10.0365 21.0313 10.047C21.2656 10.0522 21.4948 10.1042 21.7136 10.198C21.9271 10.297 22.1302 10.4324 22.2917 10.6042C22.4479 10.7657 22.5781 10.9584 22.6719 11.1667C22.6771 11.1511 22.6823 11.1303 22.6875 11.1095C22.7709 10.8595 22.9063 10.6095 23.1146 10.4167C23.3177 10.2188 23.5834 10.1042 23.849 10.0574C24.1146 10.0105 24.3854 10.0209 24.6459 10.0678C25.1615 10.172 25.6563 10.4376 25.9948 10.8647C26.0417 10.9167 26.0781 10.974 26.1146 11.0313C26.8229 10.1563 27.6771 9.36466 28.75 9.05216C29.2709 8.90112 29.7552 8.90633 30.2084 9.0105C30.3125 9.03654 30.4219 9.06779 30.5261 9.10425C30.8021 9.2032 31.0625 9.34904 31.3177 9.5157C31.3334 9.48445 31.3438 9.45321 31.3646 9.42716C31.4792 9.21883 31.6146 9.00529 31.8386 8.85945C32.0677 8.71362 32.3334 8.68758 32.5729 8.698C33.0677 8.71883 33.5417 8.93237 33.9063 9.27091C34.0834 9.43758 34.2344 9.6407 34.3386 9.86987C34.3906 9.68758 34.4479 9.5105 34.5417 9.34383C34.6459 9.14591 34.7917 8.95841 34.974 8.81779C35.1615 8.67195 35.3959 8.58862 35.6198 8.56779C35.849 8.54175 36.0677 8.56779 36.2813 8.60945C36.4948 8.65112 36.724 8.72404 36.9115 8.8907C37.0052 8.97404 37.0781 9.08862 37.125 9.198C37.1719 9.30737 37.1979 9.41675 37.224 9.52091C37.2396 9.58341 37.25 9.6407 37.2656 9.698C37.3386 9.47925 37.4375 9.2657 37.5729 9.06779C37.6823 8.90633 37.8229 8.76049 37.9948 8.65633C38.1667 8.55216 38.3594 8.50008 38.5469 8.47925C38.6042 8.47404 38.6615 8.46883 38.7136 8.46883C38.8854 8.2032 39.0573 7.93758 39.224 7.67716C39.4167 7.38029 39.6667 6.93758 39.9636 6.50008C40.3438 5.94279 40.8021 5.39591 41.3073 5.2032C41.3386 5.18237 41.375 5.16154 41.4219 5.15112C44.8438 4.21883 48.125 7.14591 50.1198 9.62508C52.0886 12.0678 52.9896 15.7032 50.5 18.1355ZM39.9011 18.7345C39.9011 18.7397 39.8959 18.7397 39.8959 18.7449C39.9011 18.7397 39.9011 18.7345 39.9011 18.7345ZM34.1459 6.33341C34.3281 6.09383 34.5052 5.84904 34.6719 5.60425C34.7552 5.48966 34.8334 5.38549 34.9323 5.323C35.0209 5.26049 35.1406 5.23966 35.2761 5.22925C35.5677 5.21883 35.8594 5.198 36.1146 5.25008C36.3698 5.30737 36.5938 5.46362 36.7344 5.70841C36.75 5.73445 36.7813 5.75008 36.8125 5.73966C36.8542 5.73445 36.875 5.69279 36.8646 5.65633C36.8229 5.49487 36.7344 5.34904 36.6198 5.22925C36.5 5.10945 36.349 5.02612 36.1875 4.97404C35.8698 4.88029 35.5573 4.89591 35.2552 4.91154C35.099 4.92195 34.9115 4.9532 34.7604 5.06779C34.6094 5.17716 34.5156 5.323 34.4375 5.4532C34.2865 5.71883 34.1563 5.98445 34.0313 6.2605C34.0209 6.29175 34.0261 6.323 34.0521 6.34383C34.0781 6.36466 34.125 6.35945 34.1459 6.33341ZM32.5417 8.38029C32.5781 8.3907 32.6146 8.37508 32.6302 8.34383C32.7969 7.96362 32.9636 7.5782 33.2292 7.28654C33.3594 7.1407 33.5104 7.02091 33.6875 6.9532C33.8594 6.88549 34.0521 6.85425 34.2448 6.85425C34.4427 6.85425 34.6459 6.86987 34.849 6.8907C35.0469 6.91154 35.2344 6.948 35.3854 7.03133C35.5365 7.11466 35.6511 7.25008 35.7292 7.42195C35.8021 7.59383 35.8542 7.78654 35.8959 7.98445V7.98966C35.9115 8.05216 35.9636 8.10424 36.0313 8.11466C36.1198 8.11987 36.1979 8.05737 36.2084 7.97404C36.2396 7.66154 36.3854 7.36466 36.6042 7.13029C36.8177 6.90112 37.1042 6.73445 37.4115 6.67195C38.0313 6.55216 38.7344 6.8855 39.0469 7.46883C39.0677 7.50008 39.1042 7.5157 39.1354 7.50008C39.1719 7.48445 39.1927 7.44279 39.1771 7.41154C39.0365 7.06779 38.7656 6.79175 38.4479 6.60945C38.125 6.42716 37.7448 6.34383 37.3698 6.40112C36.9896 6.4532 36.6459 6.65112 36.3854 6.92195C36.2552 7.05737 36.1406 7.21883 36.0573 7.3907C36.0417 7.35424 36.0261 7.323 36.0104 7.28654C35.9167 7.0782 35.75 6.87508 35.5313 6.7605C35.3177 6.64591 35.0886 6.60945 34.875 6.58862C34.6667 6.573 34.4531 6.55737 34.2344 6.56779C34.0156 6.58341 33.7917 6.61987 33.5834 6.71883C33.375 6.81258 33.1979 6.96362 33.0573 7.1355C32.9167 7.31258 32.8125 7.50529 32.7292 7.698C32.6406 7.89591 32.5729 8.09383 32.5052 8.29695C32.4948 8.3282 32.5104 8.36466 32.5417 8.38029ZM22.4271 4.98445C22.4636 4.99487 22.5 4.97404 22.5104 4.93758C22.5938 4.62508 22.7813 4.35424 23.0261 4.16154C23.2604 3.96362 23.5625 3.84383 23.8594 3.8282C24.0104 3.823 24.1667 3.83341 24.2865 3.88029C24.4063 3.92716 24.5 4.02612 24.5886 4.15633C24.7709 4.41154 24.9063 4.7032 24.9948 5.0105C25.0104 5.05737 25.0417 5.09383 25.0886 5.11466C25.1719 5.14591 25.2604 5.10425 25.2917 5.02612C25.3906 4.77612 25.4948 4.53654 25.6563 4.36987C25.7344 4.29174 25.8281 4.23445 25.9375 4.2032C26.0469 4.17195 26.1771 4.16154 26.3073 4.15112C26.5625 4.13029 26.8229 4.14591 27.0365 4.25529C27.25 4.35425 27.4271 4.56779 27.4427 4.80737C27.4479 4.84383 27.474 4.87508 27.5104 4.87508C27.5469 4.88029 27.5834 4.84904 27.5834 4.81258C27.5938 4.65633 27.5469 4.50008 27.4688 4.36987C27.3854 4.24487 27.2761 4.13549 27.1459 4.05737C26.8802 3.90112 26.5781 3.86987 26.2969 3.87508C26.1563 3.88029 26.0156 3.88549 25.8646 3.91675C25.7084 3.9532 25.5573 4.04175 25.4427 4.15112C25.3229 4.2657 25.2344 4.40112 25.1615 4.54175C25.0729 4.33862 24.9688 4.14591 24.8438 3.96883C24.7396 3.8282 24.5938 3.66674 24.3959 3.59904C24.2031 3.53133 24.0209 3.52612 23.8386 3.54175C23.474 3.58341 23.1354 3.74487 22.875 3.98966C22.6146 4.22924 22.4271 4.55737 22.3802 4.91154C22.375 4.94279 22.3959 4.97404 22.4271 4.98445ZM20.0677 7.42716C20.0677 7.3907 20.099 7.36466 20.1354 7.36466C20.3854 7.36466 20.6302 7.47404 20.8177 7.6407C21.0052 7.80216 21.1511 8.0157 21.2396 8.24487C21.3177 8.448 21.3594 8.65633 21.3802 8.86466C21.4531 8.68758 21.5469 8.5157 21.6615 8.35425C21.7969 8.16154 21.9636 7.98445 22.1667 7.84904C22.375 7.71362 22.6042 7.63029 22.8438 7.59383C22.9063 7.58341 22.9688 7.5782 23.0261 7.5782C22.9948 7.53654 22.9844 7.48445 23 7.43237C23.0886 7.18237 23.0625 6.8855 22.9375 6.6355C22.8177 6.38029 22.599 6.17716 22.3386 6.04695C22.0781 5.92195 21.7813 5.85425 21.4844 5.85425C21.1927 5.85425 20.8959 5.93758 20.6875 6.1407C20.6615 6.16674 20.6198 6.16674 20.5938 6.1407C20.5677 6.11987 20.5677 6.0782 20.5886 6.05216C20.8125 5.79175 21.1563 5.67716 21.4792 5.65633C21.8073 5.6407 22.1354 5.69279 22.4375 5.83341C22.7396 5.96883 23.0156 6.2032 23.1771 6.5105C23.2188 6.58862 23.2552 6.67716 23.2813 6.7657C23.349 6.63029 23.4219 6.49487 23.5104 6.36987C23.7396 6.03654 24.0781 5.75008 24.5 5.65112C24.7136 5.60425 24.9427 5.61987 25.1459 5.69279C25.349 5.7657 25.5261 5.8907 25.6719 6.03654C25.8646 6.23966 26.0104 6.46883 26.1198 6.70841C26.2031 6.54175 26.3021 6.38549 26.4219 6.25008C26.6302 6.01049 26.9063 5.81779 27.2136 5.72404C27.5261 5.63029 27.8594 5.65112 28.1563 5.7605C28.4531 5.86987 28.724 6.0782 28.8698 6.36466C28.8906 6.39591 28.875 6.43758 28.8438 6.45841C28.8073 6.47404 28.7709 6.46362 28.75 6.43237C28.599 6.198 28.3594 6.02612 28.0938 5.948C27.8281 5.86466 27.5417 5.86987 27.2865 5.9532C27.0313 6.04174 26.8021 6.21362 26.625 6.42716C26.4531 6.6407 26.3281 6.90112 26.2656 7.16675C26.2448 7.25008 26.1667 7.29695 26.0886 7.27612C26.0365 7.2657 25.9948 7.22404 25.9844 7.17716H25.9792C25.875 6.83341 25.7031 6.50529 25.4584 6.2605C25.2188 6.0157 24.8854 5.8907 24.5677 5.96883C24.25 6.03654 23.9584 6.26049 23.7604 6.54695C23.5521 6.83862 23.4115 7.18237 23.2761 7.53654C23.2656 7.55737 23.2552 7.573 23.2448 7.58341C23.3542 7.59383 23.4688 7.61466 23.5729 7.65633C23.8125 7.73445 24.0313 7.89591 24.1771 8.10425C24.3125 8.28654 24.3906 8.50529 24.4375 8.71362C24.5261 8.54175 24.6406 8.38029 24.7709 8.23966C25.0834 7.91154 25.5104 7.68237 25.974 7.64591C26.4375 7.61466 26.8959 7.79174 27.2344 8.09904C27.4479 8.28654 27.6198 8.53133 27.7188 8.80737C27.8542 8.51049 28.0469 8.23966 28.2761 8.02091C28.625 7.68758 29.0729 7.448 29.5469 7.37508C29.5834 7.36987 29.6198 7.39591 29.625 7.43237C29.6302 7.47404 29.6094 7.50529 29.5729 7.5157C29.1354 7.60945 28.7292 7.84904 28.4219 8.16675C28.1094 8.48966 27.8906 8.89591 27.8073 9.3282C27.7969 9.40112 27.7292 9.44279 27.6615 9.43237C27.6042 9.42195 27.5625 9.36987 27.5625 9.31258V9.30737C27.5469 8.92195 27.3438 8.55737 27.0469 8.31258C26.7552 8.06258 26.3698 7.91674 25.9948 7.948C25.6198 7.97924 25.2604 8.17716 24.9948 8.45841C24.7344 8.73966 24.5573 9.10945 24.5313 9.49487C24.5209 9.58341 24.4479 9.64591 24.3594 9.6407C24.2761 9.63549 24.2136 9.56779 24.2136 9.48966C24.1875 9.05216 24.1511 8.60424 23.9271 8.28133C23.7084 7.96362 23.2865 7.83341 22.8854 7.8907C22.4844 7.93758 22.1302 8.18237 21.8802 8.52091C21.6302 8.85945 21.4792 9.27091 21.3959 9.698C21.3802 9.7657 21.3177 9.80737 21.25 9.79695C21.1927 9.78654 21.1511 9.72925 21.1511 9.67195C21.1771 9.2032 21.1979 8.73966 21.0521 8.31779C20.9844 8.10945 20.8646 7.91674 20.7031 7.7657C20.5469 7.61987 20.3438 7.51049 20.1302 7.50008C20.0938 7.49487 20.0677 7.46362 20.0677 7.42716Z" fill="#F68C89"/>
</svg>
