<svg width="83" height="83" viewBox="0 0 83 83" fill="none" xmlns="http://www.w3.org/2000/svg">
<mask id="mask0_51_8" style="mask-type:luminance" maskUnits="userSpaceOnUse" x="0" y="0" width="83" height="83">
<path d="M0 0H82.6667V82.6667H0V0Z" fill="white"/>
</mask>
<g mask="url(#mask0_51_8)">
<mask id="mask1_51_8" style="mask-type:luminance" maskUnits="userSpaceOnUse" x="-10" y="-11" width="104" height="103">
<path d="M15.5625 -10.8959L93.4219 14.8437L67.9948 91.75L-9.85938 66.0104L15.5625 -10.8959Z" fill="white"/>
</mask>
<g mask="url(#mask1_51_8)">
<mask id="mask2_51_8" style="mask-type:luminance" maskUnits="userSpaceOnUse" x="-11" y="-12" width="105" height="105">
<path d="M15.6198 -11.0574L93.474 14.6822L67.7344 92.5364L-10.1198 66.7968L15.6198 -11.0574Z" fill="white"/>
</mask>
<g mask="url(#mask2_51_8)">
<path d="M55.8959 3.78637L56.7709 7.76033C57.0782 9.10928 58.5261 9.86449 59.8022 9.32803L63.5469 7.72387C65.099 7.07283 66.7813 8.31241 66.6251 9.97387L66.2292 14.0207C66.099 15.3957 67.2345 16.5624 68.6303 16.4374L72.6772 16.0989C74.3542 15.953 75.573 17.6562 74.9063 19.1978L73.2813 22.927C72.724 24.1978 73.4584 25.6562 74.8126 25.9687L78.7709 26.8801C80.4063 27.2707 81.0365 29.2551 79.9324 30.5207L77.2449 33.5676C76.323 34.5989 76.573 36.2239 77.7605 36.9374L81.2449 39.0364C82.6876 39.9062 82.6824 41.9895 81.2188 42.8437L77.7136 44.901C76.5209 45.6041 76.2605 47.2135 77.1615 48.2655L79.8282 51.3385C80.9324 52.6093 80.2813 54.5885 78.6355 54.953L74.6615 55.828C73.3126 56.1353 72.5626 57.5832 73.099 58.8593L74.6876 62.5989C75.3386 64.151 74.099 65.828 72.4376 65.677L68.3907 65.2812C67.0105 65.1509 65.849 66.2864 65.9688 67.6822L66.3074 71.7291C66.4532 73.4062 64.7501 74.6249 63.2084 73.9582L59.4844 72.3332C58.2084 71.776 56.7501 72.5103 56.4428 73.8645L55.5261 77.8228C55.1407 79.4582 53.1511 80.0885 51.8907 78.9843L48.8386 76.2968C47.8074 75.3749 46.1876 75.6249 45.4688 76.8124L43.3751 80.2968C42.5053 81.7395 40.4167 81.7343 39.5626 80.2707L37.5053 76.7603C36.8022 75.5728 35.1928 75.3124 34.1407 76.2135L31.0678 78.8801C29.7969 79.9843 27.823 79.3332 27.4584 77.6874L26.5782 73.7135C26.2709 72.3645 24.823 71.6093 23.5522 72.151L19.7969 73.7655C18.2449 74.4218 16.5678 73.177 16.724 71.5207L17.1199 67.4739C17.2501 66.0937 16.1094 64.927 14.7188 65.052L10.6667 65.3905C8.98966 65.5364 7.77611 63.8332 8.43757 62.2916L10.0626 58.5624C10.6199 57.2916 9.8907 55.8332 8.53653 55.526L4.56257 54.5885C2.92715 54.203 2.30215 52.2135 3.40632 50.953L6.08861 47.901C7.01049 46.8697 6.76049 45.2447 5.5782 44.5312L2.09382 42.4374C0.651114 41.5676 0.656322 39.4791 2.11986 38.6249L5.62507 36.5676C6.81778 35.8645 7.07299 34.2551 6.17195 33.203L3.52091 30.1353C2.41674 28.8645 3.07299 26.8853 4.71882 26.526L8.68757 25.6457C10.0417 25.3385 10.7917 23.8905 10.2553 22.6197L8.65111 18.8697C8.00007 17.3176 9.23966 15.6405 10.9011 15.7968L14.948 16.1926C16.323 16.3228 17.4897 15.1822 17.3699 13.7916L17.0313 9.73949C16.8803 8.06241 18.5834 6.84887 20.1303 7.51033L23.8542 9.13533C25.1251 9.69262 26.5834 8.95824 26.8959 7.60928L27.8282 3.63533C28.2188 1.99991 30.2032 1.37491 31.4688 2.47387L34.5157 5.16137C35.5469 6.08324 37.1719 5.83324 37.8907 4.65095L39.9844 1.16658C40.8542 -0.276132 42.9376 -0.270924 43.7917 1.19262L45.8542 4.69783C46.5522 5.89053 48.1615 6.14574 49.2136 5.2447L52.2865 2.57803C53.5574 1.48949 55.5313 2.14574 55.8959 3.78637Z" fill="#CBA15D"/>
</g>
</g>
</g>
<mask id="mask3_51_8" style="mask-type:luminance" maskUnits="userSpaceOnUse" x="16" y="42" width="40" height="22">
<path d="M16 42.6666H56V64H16V42.6666Z" fill="white"/>
</mask>
<g mask="url(#mask3_51_8)">
<mask id="mask4_51_8" style="mask-type:luminance" maskUnits="userSpaceOnUse" x="13" y="11" width="58" height="58">
<path d="M27.1719 11.0573L70.849 25.4948L56.724 68.2239L13.0469 53.7812L27.1719 11.0573Z" fill="white"/>
</mask>
<g mask="url(#mask4_51_8)">
<mask id="mask5_51_8" style="mask-type:luminance" maskUnits="userSpaceOnUse" x="13" y="11" width="58" height="58">
<path d="M27.1719 11.0573L70.849 25.4948L56.724 68.2239L13.0469 53.7812L27.1719 11.0573Z" fill="white"/>
</mask>
<g mask="url(#mask5_51_8)">
<path d="M34.7552 60.9583C27.1563 58.4479 21.1407 53.4479 20.8646 53.2187L20.7917 53.151C20.2552 52.6249 15.5625 47.8801 16.4532 43.8801C16.599 43.2135 17.2657 42.7916 17.9323 42.9426C18.599 43.0937 19.0209 43.7551 18.8698 44.4218C18.3698 46.6614 21.3542 50.2239 22.4896 51.3541C23.0417 51.8072 29.849 57.2812 37.6198 59.2187C42.2552 60.3697 48.1198 61.2135 50.3646 60.5937C52.5625 59.9895 52.9323 59.2656 53.4115 57.3437C53.5782 56.6822 54.25 56.2812 54.9167 56.4479C55.5834 56.6145 55.9844 57.2864 55.8177 57.9479C55.1511 60.5937 54.2292 62.1041 51.0261 62.9843C47.8334 63.8593 40.724 62.5364 37.0261 61.6145C36.2552 61.427 35.4948 61.2031 34.7552 60.9583Z" fill="#FFF2E3"/>
</g>
</g>
</g>
<mask id="mask6_51_8" style="mask-type:luminance" maskUnits="userSpaceOnUse" x="42" y="49" width="20" height="10">
<path d="M42.6666 49.3334H61.3333V58.6667H42.6666V49.3334Z" fill="white"/>
</mask>
<g mask="url(#mask6_51_8)">
<mask id="mask7_51_8" style="mask-type:luminance" maskUnits="userSpaceOnUse" x="13" y="11" width="58" height="58">
<path d="M27.1719 11.0574L70.849 25.4949L56.724 68.224L13.0469 53.7813L27.1719 11.0574Z" fill="white"/>
</mask>
<g mask="url(#mask7_51_8)">
<mask id="mask8_51_8" style="mask-type:luminance" maskUnits="userSpaceOnUse" x="13" y="11" width="58" height="58">
<path d="M27.1719 11.0574L70.849 25.4949L56.724 68.224L13.0469 53.7813L27.1719 11.0574Z" fill="white"/>
</mask>
<g mask="url(#mask8_51_8)">
<path d="M43.6614 57.323C43.0781 57.1302 42.7135 56.5313 42.8333 55.9115C42.9635 55.2396 43.6145 54.8073 44.2864 54.9375C46.7031 55.4115 53.5052 56.5157 55.9635 55.9688C57.7604 55.5625 57.9479 51.974 57.8698 50.75C57.8281 50.0677 58.3437 49.4844 59.026 49.4375C59.7083 49.3959 60.2968 49.9115 60.3437 50.5938C60.5104 53.1302 59.8906 57.625 56.5052 58.3802C53.0989 59.1459 44.7552 57.5521 43.8125 57.3646C43.7604 57.3542 43.7083 57.3438 43.6614 57.323Z" fill="#FFF2E3"/>
</g>
</g>
</g>
<mask id="mask9_51_8" style="mask-type:luminance" maskUnits="userSpaceOnUse" x="44" y="41" width="19" height="13">
<path d="M44 41.3334H62.6667V53.3334H44V41.3334Z" fill="white"/>
</mask>
<g mask="url(#mask9_51_8)">
<mask id="mask10_51_8" style="mask-type:luminance" maskUnits="userSpaceOnUse" x="13" y="11" width="58" height="58">
<path d="M27.1719 11.0574L70.849 25.4949L56.724 68.224L13.0469 53.7813L27.1719 11.0574Z" fill="white"/>
</mask>
<g mask="url(#mask10_51_8)">
<mask id="mask11_51_8" style="mask-type:luminance" maskUnits="userSpaceOnUse" x="13" y="11" width="58" height="58">
<path d="M27.1719 11.0574L70.849 25.4949L56.724 68.224L13.0469 53.7813L27.1719 11.0574Z" fill="white"/>
</mask>
<g mask="url(#mask11_51_8)">
<path d="M45.2187 52.6147C44.6874 52.4376 44.3229 51.9116 44.3749 51.3283C44.4322 50.6512 45.0312 50.146 45.7135 50.2033C48.1926 50.422 55.2083 50.6876 57.901 49.3491C59.6666 48.4741 59.5156 45.0366 59.3281 43.9012C59.2135 43.2293 59.6666 42.5939 60.3437 42.4793C61.0208 42.3699 61.6562 42.823 61.7708 43.4949C61.8124 43.7501 62.7708 49.698 59.0104 51.5678C55.2031 53.4533 46.4843 52.7553 45.4999 52.672C45.401 52.6616 45.3072 52.6408 45.2187 52.6147Z" fill="#FFF2E3"/>
</g>
</g>
</g>
<mask id="mask12_51_8" style="mask-type:luminance" maskUnits="userSpaceOnUse" x="45" y="30" width="19" height="18">
<path d="M45.3334 30.6666H64V48H45.3334V30.6666Z" fill="white"/>
</mask>
<g mask="url(#mask12_51_8)">
<mask id="mask13_51_8" style="mask-type:luminance" maskUnits="userSpaceOnUse" x="13" y="11" width="58" height="58">
<path d="M27.1719 11.0573L70.849 25.4948L56.724 68.2239L13.0469 53.7812L27.1719 11.0573Z" fill="white"/>
</mask>
<g mask="url(#mask13_51_8)">
<mask id="mask14_51_8" style="mask-type:luminance" maskUnits="userSpaceOnUse" x="13" y="11" width="58" height="58">
<path d="M27.1719 11.0573L70.849 25.4948L56.724 68.2239L13.0469 53.7812L27.1719 11.0573Z" fill="white"/>
</mask>
<g mask="url(#mask14_51_8)">
<path d="M47.2239 46.5416C46.6823 46.3593 46.3177 45.8177 46.3854 45.2291C46.4635 44.5468 47.0729 44.0625 47.7552 44.1406C52.0937 44.6302 58.625 44.3177 59.5625 42.0729C60.5781 39.651 60.6458 38.8906 58.9167 37.5364C57.1406 36.1458 50.9114 34.6666 48.6562 34.2135C47.9896 34.0781 47.5521 33.4218 47.6875 32.7552C47.8229 32.0833 48.4739 31.651 49.1458 31.7864C50.0364 31.9635 57.8906 33.5937 60.4427 35.5885C63.5937 38.0572 62.9427 40.4166 61.8542 43.0312C60.9427 45.2083 58.1614 46.4531 53.5937 46.7395C50.4635 46.9322 47.5989 46.6093 47.4739 46.5989C47.3906 46.5885 47.3073 46.5677 47.2239 46.5416Z" fill="#FFF2E3"/>
</g>
</g>
</g>
<mask id="mask15_51_8" style="mask-type:luminance" maskUnits="userSpaceOnUse" x="21" y="17" width="33" height="25">
<path d="M21.3334 17.3334H53.3334V41.3334H21.3334V17.3334Z" fill="white"/>
</mask>
<g mask="url(#mask15_51_8)">
<mask id="mask16_51_8" style="mask-type:luminance" maskUnits="userSpaceOnUse" x="13" y="11" width="58" height="58">
<path d="M27.1719 11.0574L70.849 25.4949L56.724 68.224L13.0469 53.7813L27.1719 11.0574Z" fill="white"/>
</mask>
<g mask="url(#mask16_51_8)">
<mask id="mask17_51_8" style="mask-type:luminance" maskUnits="userSpaceOnUse" x="13" y="11" width="58" height="58">
<path d="M27.1719 11.0574L70.849 25.4949L56.724 68.224L13.0469 53.7813L27.1719 11.0574Z" fill="white"/>
</mask>
<g mask="url(#mask17_51_8)">
<path d="M23.2291 34.8282C23.1458 34.8021 23.0625 34.7605 22.9791 34.7136C22.3958 34.3594 22.2031 33.599 22.5573 33.0157C25.9479 27.3802 30.6666 28.2709 34.8333 29.0573C39.1823 29.8802 41.1823 26.7865 43.3437 22.6563C44.4791 20.4948 45.4583 18.625 47.1302 18.2865C48.3333 18.0469 50.0052 18.8125 51.1979 20.1563C52.151 21.2292 53.5729 23.5625 52.3854 27.1563C50.9114 31.6198 49.4375 33.4896 48.0208 35.3021C47.8698 35.4948 47.7187 35.6875 47.5625 35.8855C47.4635 36.0157 47.3073 36.25 47.3593 36.3855C47.6458 37.1198 50.052 38.0573 52.0156 38.3959C52.6927 38.5157 53.1458 39.1563 53.026 39.8282C52.9062 40.5052 52.2656 40.9532 51.5937 40.8334C46.3229 39.9167 45.2187 37.7136 45.0468 37.2813C44.7916 36.6198 44.677 35.573 45.5989 34.3698C45.7552 34.1719 45.9114 33.974 46.0677 33.7761C47.4166 32.0573 48.6927 30.4323 50.0312 26.375C50.7343 24.25 50.1562 22.8438 49.5416 22.0365C48.8177 21.0834 47.8541 20.7084 47.5937 20.7188C47.1093 20.8177 46.1666 22.6146 45.5416 23.8073C43.6823 27.3542 40.875 32.7188 34.375 31.4896C30.3593 30.7344 27.1823 30.1355 24.6823 34.2917C24.375 34.7969 23.7708 35.0052 23.2291 34.8282Z" fill="#FFF2E3"/>
</g>
</g>
</g>
</svg>
