<svg width="152" height="159" viewBox="0 0 152 159" fill="none" xmlns="http://www.w3.org/2000/svg">
<mask id="mask0_17_3" style="mask-type:luminance" maskUnits="userSpaceOnUse" x="0" y="0" width="152" height="159">
<path d="M0.802078 0.630127H151.724V158.417H0.802078V0.630127Z" fill="white"/>
</mask>
<g mask="url(#mask0_17_3)">
<path d="M79.8229 3.43215L83.8229 10.1561C85.2031 12.4374 88.2969 12.9374 90.3021 11.1874L96.1823 5.99465C98.6198 3.86965 102.438 5.11965 103.156 8.24985L104.875 15.8801C105.469 18.479 108.255 19.9165 110.724 18.854L117.922 15.7863C120.891 14.5051 124.146 16.8801 123.865 20.104L123.146 27.8905C122.896 30.5519 125.115 32.7707 127.776 32.5207L135.562 31.8019C138.786 31.5207 141.13 34.7759 139.88 37.7446L136.818 44.9426C135.75 47.3801 137.193 50.1978 139.786 50.7915L147.422 52.5103C150.578 53.229 151.828 57.0467 149.672 59.4842L144.51 65.3696C142.76 67.3696 143.26 70.4686 145.542 71.8436L152.271 75.8488C155.052 77.5051 155.052 81.5103 152.271 83.1665L145.542 87.1717C143.26 88.5467 142.76 91.6457 144.51 93.6457L149.672 99.5259C151.797 101.969 150.547 105.781 147.422 106.505L139.786 108.224C137.193 108.818 135.75 111.604 136.818 114.073L139.88 121.265C141.161 124.239 138.786 127.495 135.562 127.213L127.776 126.489C125.115 126.239 122.896 128.463 123.146 131.12L123.865 138.911C124.146 142.13 120.891 144.479 117.922 143.229L110.724 140.161C108.286 139.099 105.469 140.536 104.875 143.135L103.156 150.765C102.438 153.927 98.6198 155.177 96.1823 153.021L90.3021 147.859C88.2969 146.104 85.2031 146.604 83.8229 148.89L79.8229 155.614C78.1615 158.401 74.1562 158.401 72.5 155.614L68.4948 148.89C67.1198 146.604 64.0208 146.104 62.0208 147.859L56.1406 153.083C53.6979 155.208 49.8854 153.958 49.1667 150.828L47.4427 143.198C46.849 140.599 44.0677 139.161 41.5937 140.224L34.401 143.292C31.4271 144.573 28.1771 142.193 28.4583 138.974L29.1771 131.182C29.4271 128.526 27.2031 126.302 24.5469 126.552L16.724 127.245C13.5052 127.526 11.1562 124.271 12.4062 121.297L15.474 114.104C16.5365 111.667 15.099 108.849 12.5052 108.255L4.86979 106.536C1.70833 105.812 0.458327 102 2.61979 99.5572L7.78124 93.6769C9.53124 91.6769 9.03125 88.578 6.74479 87.203L0.0520778 83.1978C-2.72917 81.5415 -2.72917 77.5363 0.0520778 75.8801L6.77604 71.8749C9.0625 70.4999 9.56249 67.4009 7.81249 65.4009L2.61979 59.5155C0.489578 57.078 1.73958 53.2603 4.86979 52.5415L12.5052 50.8228C15.099 50.229 16.5365 47.4426 15.474 44.9738L12.4062 37.7759C11.125 34.8071 13.5052 31.5519 16.724 31.8332L24.5156 32.5519C27.1719 32.8019 29.3958 30.5832 29.1458 27.9217L28.4583 20.104C28.1771 16.8801 31.4271 14.5363 34.401 15.7863L41.5937 18.854C44.0365 19.9165 46.849 18.479 47.4427 15.8801L49.1667 8.24985C49.8854 5.0884 53.6979 3.83839 56.1406 5.99465L62.0208 11.1561C64.0208 12.9061 67.1198 12.4061 68.4948 10.1249L72.5 3.4009C74.1562 0.645687 78.1615 0.645687 79.8229 3.43215Z" fill="#CBA15D"/>
</g>
<path d="M32.0721 79.5382C32.1346 79.7726 32.3325 79.8872 32.5617 79.8247L35.3689 79.0851C35.6033 79.0226 35.7127 78.8247 35.6554 78.5955L34.7023 74.9965C34.645 74.7622 34.7544 74.5695 34.9887 74.507L37.3898 73.8715C39.8846 73.2153 41.3742 70.6267 40.7023 68.0903C40.0356 65.559 37.4627 64.0434 34.9679 64.7049L28.9887 66.2778C28.7544 66.3403 28.645 66.5382 28.7023 66.7674L32.0721 79.5382ZM32.7439 67.5642C32.6814 67.3351 32.796 67.1372 33.0252 67.0747L34.4002 66.7153C35.27 66.4861 36.3429 67.5695 36.7596 69.132C37.171 70.6997 36.7752 72.1736 35.9002 72.4028L34.5304 72.7674C34.296 72.8247 34.1033 72.7101 34.0408 72.4809L32.7439 67.5642Z" fill="#FFF2E3"/>
<path d="M49.6876 68.9934C49.922 68.9309 50.0366 68.7329 49.9741 68.5038L49.7189 67.535C49.6564 67.3006 49.4636 67.1913 49.2293 67.2486L47.0418 67.8267C46.8126 67.8892 46.6147 67.7746 46.5522 67.5402L45.6616 64.1548C45.5991 63.9256 45.7136 63.7277 45.9428 63.6652L50.6459 62.4256C50.8803 62.3631 50.9949 62.1704 50.9324 61.9361L50.6772 60.9725C50.6147 60.7381 50.4168 60.6236 50.1876 60.6861L41.9064 62.8684C41.672 62.9309 41.5626 63.1288 41.6199 63.3579L44.9897 76.1288C45.0522 76.3631 45.2501 76.4777 45.4793 76.4152L54.1511 74.1288C54.3803 74.0663 54.4949 73.8684 54.4324 73.6392L54.1772 72.6704C54.1147 72.4361 53.922 72.3215 53.6876 72.384L48.5991 73.7277C48.3699 73.7902 48.172 73.6756 48.1095 73.4413L47.2189 70.0559C47.1564 69.8267 47.2709 69.6288 47.5053 69.5663L49.6876 68.9934Z" fill="#FFF2E3"/>
<path d="M53.1809 59.8939C52.9465 59.9564 52.832 60.1543 52.8945 60.3835L56.2642 73.1543C56.3267 73.3835 56.5247 73.4981 56.7538 73.4408L57.8788 73.1439C58.108 73.0814 58.2226 72.8835 58.1601 72.6543L56.134 64.972C55.9153 64.1387 56.1861 63.9877 56.8007 64.5918L63.7851 71.3783C63.8945 71.472 64.0299 71.5189 64.1653 71.4825L66.8528 70.7741C67.0872 70.7116 67.2017 70.5137 67.1392 70.2845L63.7695 57.5137C63.707 57.2845 63.5142 57.17 63.2799 57.2272L62.1549 57.5241C61.9257 57.5866 61.8111 57.7845 61.8736 58.0137L63.6757 64.847C63.8945 65.6752 63.6236 65.8314 63.009 65.2272L56.7695 59.1543C56.6653 59.0606 56.509 59.0189 56.3892 59.0502L53.1809 59.8939Z" fill="#FFF2E3"/>
<path d="M77.7964 65.3608C77.8224 65.4597 77.8068 65.5639 77.7495 65.6629C77.4161 66.1212 77.0307 66.392 76.6453 66.491C74.4214 67.0795 72.338 65.392 71.5099 62.2566C70.6922 59.142 71.6453 56.7202 73.963 56.1056C74.9318 55.8504 75.9214 55.9858 76.8589 56.4806C77.0984 56.6056 77.3276 56.5431 77.4578 56.3243L78.0359 55.2202C78.1245 55.0066 78.0724 54.8139 77.8797 54.6993C76.5828 54.0274 74.6401 53.8816 72.8797 54.3452C68.8745 55.4024 66.5307 59.3712 67.5724 63.3191C68.6141 67.267 72.6036 69.6056 76.5516 68.5639C77.4786 68.3191 78.3172 67.8087 78.9839 67.116C79.1661 66.9441 79.3693 66.9337 79.5568 67.0899L79.687 67.1993C79.7911 67.2774 79.9266 67.3243 80.062 67.2879L81.6089 66.8764C81.8432 66.8191 81.9578 66.6212 81.8953 66.3868L80.088 59.5379C80.0255 59.3087 79.8276 59.1941 79.5984 59.2566L74.7391 60.5379C74.5099 60.6004 74.3953 60.7931 74.4578 61.0275L74.7234 62.0327C74.7859 62.2618 74.9786 62.3764 75.213 62.3191L76.4891 61.9806C76.7182 61.9181 76.9161 62.0327 76.9786 62.267L77.7964 65.3608Z" fill="#FFF2E3"/>
<path d="M92.6038 58.2227C93.2184 60.5456 92.4997 62.306 90.7392 62.7696C88.9632 63.2383 87.4684 62.0612 86.859 59.7383L84.8069 51.9623C84.7444 51.7279 84.5465 51.6185 84.3174 51.6758L81.5101 52.4154C81.2757 52.4779 81.1663 52.6758 81.2236 52.905L83.2757 60.6862C84.208 64.2071 86.9319 65.8269 90.3955 64.9102C93.859 63.9987 95.4267 61.2435 94.4997 57.7227L92.4476 49.9466C92.3851 49.7123 92.1924 49.5977 91.958 49.6602L90.833 49.9571C90.6038 50.0196 90.4892 50.2123 90.5517 50.4466L92.6038 58.2227Z" fill="#FFF2E3"/>
<path d="M98.3388 48.3905C98.2815 48.1561 98.0836 48.0415 97.8492 48.104L95.0472 48.8436C94.8128 48.9061 94.6982 49.104 94.7607 49.3332L98.1305 62.104C98.193 62.3332 98.3909 62.4478 98.6201 62.3905L101.427 61.6457C101.657 61.5884 101.771 61.3905 101.709 61.1561L98.3388 48.3905Z" fill="#FFF2E3"/>
<path d="M100.945 47.287C100.711 47.3495 100.596 47.5474 100.659 47.7766L104.028 60.5474C104.091 60.7766 104.289 60.8911 104.518 60.8339L105.643 60.537C105.872 60.4745 105.987 60.2766 105.924 60.0474L103.898 52.3651C103.68 51.5318 103.95 51.3807 104.565 51.9849L111.549 58.7714C111.659 58.8651 111.794 58.912 111.93 58.8755L114.617 58.1672C114.851 58.1047 114.966 57.9068 114.903 57.6776L111.534 44.9068C111.471 44.6776 111.278 44.563 111.044 44.6203L109.919 44.9172C109.69 44.9797 109.575 45.1776 109.638 45.4068L111.44 52.2401C111.659 53.0682 111.388 53.2245 110.773 52.6203L104.534 46.5474C104.43 46.4536 104.273 46.412 104.153 46.4432L100.945 47.287Z" fill="#FFF2E3"/>
<path d="M47.4559 94.5115C47.6903 94.449 47.7997 94.251 47.7424 94.0219L46.5184 89.3969C46.4611 89.1625 46.5705 88.9698 46.8049 88.9073L49.3986 88.225C49.6278 88.1625 49.7424 87.9646 49.6799 87.7354L49.4247 86.7667C49.3674 86.5323 49.1695 86.4229 48.9403 86.4802L46.3465 87.1677C46.1122 87.225 45.9195 87.1156 45.857 86.8812L44.8309 82.9906C44.7684 82.7615 44.883 82.5635 45.1122 82.501L49.7788 81.2719C50.008 81.2094 50.1226 81.0167 50.0601 80.7823L49.8049 79.8135C49.7476 79.5844 49.5497 79.4698 49.3153 79.5323L41.0757 81.7042C40.8413 81.7667 40.732 81.9646 40.7893 82.1937L44.159 94.9646C44.2215 95.199 44.4195 95.3135 44.6486 95.251L47.4559 94.5115Z" fill="#FFF2E3"/>
<path d="M56.1957 92.2012C56.3519 92.1595 56.4769 92.0241 56.4926 91.8366L56.6905 88.597C56.7113 88.4252 56.8311 88.2689 56.9873 88.2272L60.5082 87.295C60.6853 87.2533 60.8676 87.3262 60.9457 87.472L62.7217 90.1908C62.8259 90.347 63.003 90.4043 63.1592 90.3627L66.1384 89.5762C66.4665 89.4929 66.5498 89.2429 66.3676 88.9564L58.529 77.3679C58.4301 77.2272 58.253 77.1752 58.0967 77.2168L55.8728 77.8002C55.7165 77.8418 55.5863 77.9825 55.5707 78.1491L54.4717 92.097C54.4561 92.4356 54.6488 92.6127 54.9769 92.5241L56.1957 92.2012ZM59.4509 85.1752C59.6332 85.4616 59.5446 85.6908 59.2165 85.7741L57.378 86.2585C57.0498 86.347 56.8467 86.196 56.878 85.8575L57.0498 82.8106C57.0811 82.0762 57.3936 81.9929 57.7842 82.6179L59.4509 85.1752Z" fill="#FFF2E3"/>
<path d="M68.8148 74.6526C68.7159 74.5119 68.5388 74.4599 68.3825 74.5015L65.3252 75.3036C65.0909 75.3661 64.9815 75.564 65.0388 75.7932L68.4086 88.564C68.4711 88.7984 68.669 88.913 68.8982 88.8505L70.0232 88.5536C70.2523 88.4911 70.3669 88.2984 70.3044 88.064L68.82 82.4338C68.4294 80.9442 68.7211 80.8036 69.544 82.1161L72.9711 87.4859C73.0492 87.6317 73.2315 87.7046 73.4086 87.6578L75.6534 87.0692C75.8252 87.0224 75.9502 86.8661 75.9502 86.6994L76.2784 80.3401C76.3461 78.7932 76.669 78.7671 77.0648 80.2567L78.5492 85.8869C78.6117 86.1213 78.8044 86.2359 79.0388 86.1734L81.8409 85.4338C82.0752 85.3713 82.1898 85.1786 82.1273 84.9442L78.7575 72.1734C78.695 71.9442 78.5023 71.8296 78.2679 71.8921L75.3461 72.663C75.195 72.6994 75.0648 72.8401 75.044 73.0119L74.3513 81.5119C74.2836 82.1942 73.9919 82.2671 73.6169 81.7046L68.8148 74.6526Z" fill="#FFF2E3"/>
<path d="M84.8419 70.5694C84.7846 70.3351 84.5867 70.2205 84.3523 70.283L81.5503 71.0226C81.3159 71.0851 81.2013 71.283 81.2638 71.5122L84.6336 84.283C84.6961 84.5122 84.894 84.6267 85.1232 84.5694L87.9305 83.8247C88.1596 83.7674 88.2742 83.5694 88.2117 83.3351L84.8419 70.5694Z" fill="#FFF2E3"/>
<path d="M87.641 69.4138C87.4066 69.4763 87.2973 69.6742 87.3545 69.9033L90.7243 82.6742C90.7868 82.9085 90.9848 83.0231 91.2139 82.9606L100.021 80.6377C100.25 80.5752 100.365 80.3773 100.302 80.1481L100.047 79.1794C99.9848 78.945 99.792 78.8356 99.5577 78.8929L94.3337 80.2731C94.1045 80.3356 93.9066 80.221 93.8441 79.9867L90.9379 68.9606C90.8754 68.7263 90.6775 68.6169 90.4483 68.6742L87.641 69.4138Z" fill="#FFF2E3"/>
<path d="M101.993 65.8764C101.899 65.7566 101.738 65.6941 101.587 65.7358L98.394 66.5795C98.0242 66.6733 97.9461 66.9233 98.1701 67.2149L103.691 74.1837C103.722 74.2358 103.759 74.2879 103.769 74.3295L104.977 78.9129C105.04 79.1472 105.238 79.2566 105.467 79.1993L108.274 78.4545C108.509 78.3972 108.618 78.1993 108.561 77.9701L107.279 73.1108C107.264 73.0535 107.259 72.9701 107.269 72.9285L109.045 64.366C109.134 63.991 108.936 63.7931 108.571 63.892L107.311 64.2254C107.154 64.267 107.045 64.3972 106.998 64.5326L105.946 70.0274C105.858 70.5483 105.561 70.6056 105.238 70.1733L101.993 65.8764Z" fill="#FFF2E3"/>
<path d="M58.6835 108.465C56.4648 109.074 54.3762 107.366 53.5481 104.23C52.7304 101.116 53.6835 98.6938 55.9856 98.0844C56.97 97.824 57.9595 97.9594 58.9231 98.4698C59.1366 98.5792 59.371 98.5375 59.496 98.2979L60.0741 97.1938C60.1627 96.9802 60.1106 96.7875 59.9179 96.6729C58.621 96.0011 56.6575 95.8604 54.897 96.324C50.9127 97.3761 48.5689 101.345 49.6106 105.293C50.6523 109.241 54.6418 111.579 58.5689 110.543C60.6783 109.985 62.2356 108.605 62.8606 106.803C62.9023 106.584 62.8137 106.402 62.6106 106.334L61.6262 105.97C61.397 105.886 61.1939 105.98 61.0898 106.215C60.6158 107.397 59.7877 108.173 58.6835 108.465Z" fill="#FFF2E3"/>
<path d="M66.5048 108.096C66.661 108.055 66.786 107.919 66.8017 107.732L66.9996 104.492C67.0204 104.32 67.1402 104.164 67.2965 104.123L70.8173 103.19C70.9944 103.149 71.1767 103.221 71.2548 103.367L73.0308 106.086C73.135 106.242 73.3121 106.3 73.4683 106.258L76.4475 105.471C76.7756 105.388 76.859 105.138 76.6767 104.852L68.8381 93.2631C68.7392 93.1225 68.5621 93.0704 68.4058 93.1121L66.1819 93.6954C66.0256 93.7371 65.8954 93.8777 65.8798 94.0444L64.7808 107.992C64.7652 108.331 64.9579 108.508 65.286 108.419L66.5048 108.096ZM69.76 101.07C69.9423 101.357 69.8538 101.586 69.5256 101.669L67.6871 102.154C67.359 102.242 67.1558 102.091 67.1871 101.753L67.359 98.7058C67.3902 97.9715 67.7027 97.8881 68.0933 98.5131L69.76 101.07Z" fill="#FFF2E3"/>
<path d="M80.7437 94.8814C80.4625 95.4543 80.1656 95.4283 79.9989 94.8085L78.9312 90.746C78.8687 90.5116 78.6708 90.4022 78.4416 90.4595L75.6343 91.1991C75.4 91.2616 75.2906 91.4595 75.3479 91.6887L78.7177 104.46C78.7802 104.694 78.9781 104.808 79.2073 104.746L82.0146 104.006C82.2489 103.944 82.3583 103.746 82.301 103.517L80.9885 98.5429C80.9625 98.4439 80.9729 98.3397 81.0146 98.246L81.1187 98.0324C81.2281 97.8189 81.4104 97.7877 81.5771 97.9543L86.3948 102.642C86.5041 102.736 86.6396 102.782 86.775 102.746L90.0041 101.897C90.4104 101.788 90.4833 101.522 90.1812 101.23L83.2021 94.4595C83.0823 94.3293 83.0562 94.147 83.1343 93.9804L85.4364 89.2981C85.6656 88.8241 85.4833 88.6002 84.9781 88.7356L83.7802 89.0533C83.6812 89.0793 83.5823 89.1679 83.525 89.2616L80.7437 94.8814Z" fill="#FFF2E3"/>
<path d="M97.1067 93.7104C97.3411 93.6479 97.4557 93.45 97.3932 93.2208L97.138 92.2521C97.0755 92.0177 96.8828 91.9083 96.6484 91.9656L94.4609 92.5437C94.2317 92.6062 94.0338 92.4916 93.9713 92.2573L93.0807 88.8719C93.0182 88.6427 93.1328 88.4448 93.3619 88.3823L98.0651 87.1427C98.2994 87.0802 98.414 86.8875 98.3515 86.6531L98.0963 85.6896C98.0338 85.4552 97.8359 85.3406 97.6067 85.4031L89.3255 87.5854C89.0911 87.6479 88.9817 87.8458 89.039 88.075L92.4088 100.846C92.4713 101.08 92.6692 101.195 92.8984 101.132L101.57 98.8458C101.799 98.7833 101.914 98.5854 101.852 98.3562L101.596 97.3875C101.534 97.1531 101.341 97.0385 101.107 97.101L96.0182 98.4448C95.789 98.5073 95.5911 98.3927 95.5286 98.1583L94.638 94.7729C94.5755 94.5437 94.6901 94.3458 94.9244 94.2833L97.1067 93.7104Z" fill="#FFF2E3"/>
<path d="M103.954 86.5848C103.762 85.8452 104.485 85.2202 106.012 84.8192C107.329 84.4702 108.235 84.5431 109.392 85.1473C109.605 85.2567 109.84 85.1942 109.949 84.9806L110.543 83.8713C110.631 83.6629 110.584 83.465 110.387 83.3556C109.069 82.6681 107.225 82.5119 105.371 83.0015C102.079 83.8713 100.079 86.4077 100.73 88.8817C101.887 93.1734 109.324 91.3296 109.991 93.7671C110.178 94.4806 109.626 95.0588 108.178 95.4442C106.553 95.8713 105.163 95.6994 103.97 94.8765C103.772 94.7463 103.569 94.7567 103.407 94.9442L102.725 95.7254C102.584 95.9025 102.584 96.1317 102.788 96.2671C104.402 97.5379 106.522 97.8869 108.673 97.3192C111.959 96.4494 113.824 93.8713 113.168 91.3765C112.001 86.965 104.506 88.7567 103.954 86.5848Z" fill="#FFF2E3"/>
</svg>
