<svg width="184" height="185" viewBox="0 0 184 185" fill="none" xmlns="http://www.w3.org/2000/svg">
<mask id="mask0_4_87" style="mask-type:luminance" maskUnits="userSpaceOnUse" x="0" y="0" width="184" height="185">
<path d="M0.333313 0.666656H183.995V184.521H0.333313V0.666656Z" fill="white"/>
</mask>
<g mask="url(#mask0_4_87)">
<path d="M96.0729 3.40103L100.755 11.2604C102.365 13.9271 105.979 14.5156 108.323 12.4687L115.193 6.40103C118.047 3.91145 122.505 5.37499 123.344 9.03124L125.354 17.9531C126.052 20.9844 129.302 22.6667 132.193 21.4219L140.599 17.8385C144.073 16.3437 147.875 19.1198 147.547 22.8854L146.703 31.9896C146.411 35.0937 149.01 37.6927 152.115 37.401L161.219 36.5573C164.984 36.2292 167.724 40.0312 166.266 43.5052L162.682 51.9114C161.437 54.7656 163.12 58.0521 166.156 58.75L175.073 60.7604C178.766 61.599 180.229 66.0573 177.703 68.9115L171.672 75.7812C169.625 78.125 170.214 81.7396 172.88 83.349L180.74 88.0312C183.995 89.9687 183.995 94.6458 180.74 96.5833L172.88 101.266C170.214 102.87 169.625 106.49 171.672 108.828L177.703 115.703C180.193 118.552 178.729 123.016 175.073 123.854L166.156 125.865C163.12 126.562 161.437 129.812 162.682 132.703L166.266 141.109C167.76 144.583 164.984 148.385 161.219 148.057L152.115 147.214C149.01 146.922 146.411 149.516 146.703 152.625L147.547 161.729C147.875 165.495 144.073 168.234 140.599 166.771L132.193 163.193C129.344 161.948 126.052 163.63 125.354 166.661L123.344 175.583C122.505 179.276 118.047 180.74 115.193 178.214L108.323 172.182C105.979 170.135 102.365 170.719 100.755 173.391L96.0729 181.25C94.1354 184.505 89.4583 184.505 87.5208 181.25L82.8437 173.391C81.2344 170.719 77.6146 170.135 75.276 172.182L68.401 178.286C65.5521 180.776 61.0885 179.312 60.25 175.656L58.2396 166.734C57.5416 163.703 54.2916 162.021 51.401 163.266L42.9948 166.844C39.5208 168.344 35.7187 165.568 36.0469 161.802L36.8906 152.698C37.1823 149.594 34.5885 146.995 31.4791 147.286L22.3385 148.094C18.5729 148.422 15.8333 144.62 17.2969 141.146L20.8802 132.74C22.1198 129.885 20.4375 126.599 17.4062 125.901L8.48435 123.891C4.79164 123.052 3.3281 118.594 5.85414 115.74L11.8854 108.865C13.9323 106.526 13.3489 102.906 10.6771 101.302L2.85414 96.6198C-0.395859 94.6823 -0.395859 90.0052 2.85414 88.0677L10.7135 83.3854C13.3854 81.7812 13.9687 78.1615 11.9218 75.8177L5.85414 68.9479C3.36456 66.0937 4.8281 61.6354 8.48435 60.7969L17.4062 58.7864C20.4375 58.0885 22.1198 54.8385 20.8802 51.9479L17.2969 43.5417C15.7969 40.0677 18.5729 36.2656 22.3385 36.5937L31.4427 37.4375C34.5521 37.7292 37.1458 35.1302 36.8541 32.026L36.0469 22.8854C35.7187 19.1198 39.5208 16.3802 42.9948 17.8385L51.401 21.4219C54.2552 22.6667 57.5416 20.9844 58.2396 17.9531L60.25 9.03124C61.0885 5.33853 65.5521 3.87499 68.401 6.40103L75.276 12.4323C77.6146 14.4792 81.2344 13.8906 82.8437 11.2239L87.5208 3.36457C89.4583 0.145822 94.1354 0.145823 96.0729 3.40103Z" fill="#EFC1C7"/>
</g>
<path d="M37.5629 91.8023C37.6462 92.1096 37.9014 92.2554 38.2087 92.1773L41.9014 91.2033C42.2087 91.12 42.3597 90.8648 42.2764 90.5575L41.0264 85.8231C40.9483 85.5158 41.0941 85.2554 41.4014 85.1773L44.5576 84.3439C47.8441 83.4742 49.8076 80.0731 48.9274 76.7346C48.0472 73.396 44.6566 71.4064 41.3754 72.271L33.5056 74.3492C33.1983 74.4273 33.0472 74.6877 33.1306 74.9898L37.5629 91.8023ZM38.4431 76.0419C38.3649 75.7346 38.516 75.4794 38.8181 75.396L40.6306 74.9221C41.7764 74.6148 43.1879 76.0419 43.7295 78.1044C44.2764 80.1669 43.7504 82.1044 42.6045 82.4064L40.7972 82.8856C40.4899 82.9637 40.2347 82.8179 40.1514 82.5106L38.4431 76.0419Z" fill="#FFF2E3"/>
<path d="M60.7564 77.9179C61.0585 77.8345 61.2095 77.5793 61.1314 77.272L60.7928 76.0012C60.7147 75.6939 60.4543 75.5429 60.1522 75.6262L57.272 76.3866C56.9647 76.4647 56.7095 76.3137 56.6262 76.0116L55.4491 71.5533C55.371 71.246 55.522 70.9908 55.8241 70.9075L62.0168 69.2772C62.3189 69.1939 62.4699 68.9387 62.3918 68.6314L62.0533 67.3554C61.9751 67.0533 61.7147 66.9022 61.4126 66.9804L50.5116 69.8606C50.2043 69.9387 50.0533 70.1991 50.1366 70.5012L54.5689 87.3137C54.6522 87.621 54.9074 87.7668 55.2147 87.6887L66.6262 84.6783C66.9335 84.595 67.0793 84.3397 67.0012 84.0325L66.6626 82.7616C66.5845 82.4543 66.3241 82.3033 66.022 82.3866L59.3241 84.1522C59.0168 84.2304 58.7564 84.0845 58.6783 83.7772L57.5012 79.3189C57.423 79.0168 57.5689 78.7564 57.8762 78.6783L60.7564 77.9179Z" fill="#FFF2E3"/>
<path d="M65.3531 65.9437C65.0458 66.0218 64.8947 66.2822 64.9781 66.5843L69.4156 83.3968C69.4937 83.6989 69.7541 83.8499 70.0562 83.7718L71.5354 83.3812C71.8426 83.2978 71.9885 83.0426 71.9104 82.7353L69.2385 72.626C68.952 71.5322 69.3062 71.3291 70.1135 72.1208L79.3114 81.0531C79.452 81.1833 79.6343 81.2406 79.8114 81.1937L83.3531 80.2614C83.6551 80.1833 83.8062 79.9228 83.7281 79.6156L79.2906 62.8083C79.2072 62.501 78.952 62.3551 78.6447 62.4333L77.1708 62.8239C76.8635 62.902 76.7124 63.1624 76.7958 63.4645L79.1656 72.4593C79.4572 73.5531 79.1031 73.7562 78.2906 72.9593L70.0822 64.9645C69.9364 64.8395 69.7333 64.7874 69.577 64.8239L65.3531 65.9437Z" fill="#FFF2E3"/>
<path d="M97.7572 73.1371C97.7885 73.2621 97.7728 73.4027 97.6947 73.5329C97.2572 74.1371 96.752 74.4913 96.2416 74.6267C93.3145 75.3975 90.5749 73.1788 89.4864 69.0538C88.403 64.9548 89.6582 61.7621 92.7155 60.9548C93.9864 60.6163 95.2885 60.7934 96.5228 61.4496C96.8353 61.6111 97.1426 61.5277 97.3093 61.2413L98.0749 59.7829C98.1895 59.5069 98.1218 59.2517 97.8666 59.1059C96.1582 58.2204 93.601 58.0225 91.2832 58.6319C86.0124 60.0277 82.9239 65.2569 84.2937 70.4496C85.6687 75.6475 90.9239 78.7256 96.1166 77.3559C97.3405 77.0329 98.4447 76.3611 99.3197 75.4496C99.5593 75.2204 99.8249 75.2048 100.07 75.4131L100.247 75.559C100.382 75.6579 100.559 75.7204 100.742 75.6736L102.778 75.1319C103.085 75.0538 103.231 74.7986 103.153 74.4913L100.773 65.4756C100.689 65.1684 100.434 65.0173 100.127 65.1006L93.7364 66.7881C93.4291 66.8663 93.278 67.1267 93.3614 67.4288L93.7103 68.7569C93.7937 69.059 94.0489 69.21 94.3562 69.1319L96.0332 68.684C96.3405 68.6059 96.601 68.7569 96.6791 69.059L97.7572 73.1371Z" fill="#FFF2E3"/>
<path d="M117.249 63.7399C118.056 66.7972 117.119 69.1149 114.801 69.7294C112.457 70.344 110.494 68.7919 109.686 65.7347L106.983 55.5003C106.905 55.193 106.645 55.0419 106.343 55.1253L102.65 56.0992C102.343 56.1774 102.192 56.4378 102.275 56.7399L104.973 66.9794C106.197 71.6149 109.785 73.7503 114.343 72.5419C118.905 71.3388 120.973 67.719 119.749 63.0836L117.046 52.844C116.962 52.5367 116.707 52.3857 116.4 52.469L114.926 52.8597C114.619 52.9378 114.468 53.1982 114.551 53.5003L117.249 63.7399Z" fill="#FFF2E3"/>
<path d="M120.47 51.3962C120.163 51.4743 120.012 51.7347 120.095 52.0368L124.532 68.8493C124.611 69.1514 124.871 69.3024 125.173 69.2243L126.652 68.8337C126.96 68.7504 127.105 68.4951 127.027 68.1879L124.355 58.0785C124.069 56.9847 124.423 56.7816 125.23 57.5733L134.428 66.5056C134.569 66.6358 134.751 66.6931 134.928 66.6462L138.47 65.7139C138.772 65.6358 138.923 65.3754 138.845 65.0681L134.407 48.2608C134.324 47.9535 134.069 47.8076 133.762 47.8858L132.288 48.2764C131.98 48.3545 131.829 48.6149 131.913 48.917L134.282 57.9118C134.574 59.0056 134.22 59.2087 133.407 58.4118L125.199 50.417C125.053 50.292 124.85 50.2399 124.694 50.2764L120.47 51.3962Z" fill="#FFF2E3"/>
<path d="M53.7808 111.896C54.0881 111.812 54.2391 111.557 54.1558 111.25L52.5516 105.161C52.4683 104.859 52.6193 104.599 52.9266 104.521L56.3381 103.62C56.6454 103.536 56.7912 103.281 56.7131 102.974L56.3745 101.703C56.2964 101.396 56.036 101.245 55.7339 101.328L52.3172 102.229C52.0152 102.307 51.7547 102.156 51.6766 101.854L50.3225 96.7342C50.2443 96.4269 50.3954 96.1717 50.6975 96.0884L56.8381 94.4686C57.1454 94.3905 57.2912 94.13 57.2131 93.8227L56.8745 92.5519C56.7964 92.2446 56.536 92.0988 56.2339 92.1769L45.385 95.0415C45.0777 95.1196 44.9266 95.38 45.01 95.6821L49.4422 112.495C49.5256 112.802 49.7808 112.948 50.0881 112.87L53.7808 111.896Z" fill="#FFF2E3"/>
<path d="M65.2862 108.856C65.4893 108.804 65.6612 108.621 65.6768 108.371L65.9424 104.106C65.9632 103.882 66.1247 103.679 66.333 103.621L70.9684 102.403C71.1976 102.34 71.4372 102.439 71.5466 102.627L73.8799 106.21C74.0153 106.418 74.2549 106.491 74.458 106.439L78.3799 105.403C78.8122 105.288 78.9164 104.96 78.682 104.585L68.3591 89.3297C68.2289 89.1474 67.9945 89.0745 67.7914 89.1266L64.8591 89.8974C64.656 89.9547 64.4893 90.137 64.4632 90.3609L63.0153 108.72C62.9997 109.163 63.2497 109.397 63.682 109.283L65.2862 108.856ZM69.5726 99.6057C69.8122 99.9807 69.6976 100.283 69.2653 100.397L66.8487 101.038C66.4112 101.147 66.1403 100.949 66.1872 100.502L66.4112 96.4911C66.4528 95.5276 66.8643 95.4182 67.3799 96.2359L69.5726 99.6057Z" fill="#FFF2E3"/>
<path d="M81.9032 85.7559C81.773 85.5737 81.5334 85.5007 81.3303 85.5528L77.3095 86.6153C77.0022 86.6934 76.8511 86.9539 76.9345 87.2559L81.3668 104.068C81.4501 104.376 81.7053 104.522 82.0126 104.443L83.4918 104.053C83.7938 103.969 83.9449 103.714 83.8668 103.407L81.9084 95.9955C81.3928 94.0372 81.7782 93.8549 82.8616 95.5841L87.3668 102.647C87.4761 102.839 87.7157 102.938 87.9449 102.876L90.9032 102.094C91.1324 102.037 91.2938 101.829 91.2938 101.61L91.7261 93.2455C91.8147 91.2039 92.2418 91.1726 92.7574 93.1362L94.7157 100.548C94.7938 100.85 95.0543 101.001 95.3563 100.923L99.0543 99.9434C99.3563 99.8653 99.5074 99.6049 99.4293 99.3028L94.9918 82.4903C94.9084 82.1882 94.6532 82.0372 94.3459 82.1153L90.5022 83.1309C90.2991 83.1882 90.1272 83.3653 90.1063 83.5893L89.1897 94.782C89.1011 95.6778 88.7157 95.782 88.2209 95.0372L81.9032 85.7559Z" fill="#FFF2E3"/>
<path d="M103.002 80.3793C102.923 80.072 102.663 79.921 102.361 80.0043L98.6682 80.9783C98.3609 81.0564 98.2099 81.3168 98.2932 81.6189L102.731 98.4314C102.809 98.7335 103.069 98.8846 103.371 98.8064L107.064 97.8325C107.371 97.7491 107.522 97.4939 107.439 97.1866L103.002 80.3793Z" fill="#FFF2E3"/>
<path d="M106.688 78.8612C106.381 78.9393 106.23 79.1997 106.313 79.5018L110.745 96.3143C110.829 96.6216 111.084 96.7674 111.391 96.6893L122.98 93.632C123.287 93.5487 123.438 93.2935 123.355 92.9862L123.021 91.7101C122.938 91.4081 122.683 91.257 122.376 91.3351L115.501 93.1528C115.193 93.231 114.933 93.0851 114.855 92.7778L111.021 78.2622C110.943 77.9549 110.683 77.8039 110.381 77.8872L106.688 78.8612Z" fill="#FFF2E3"/>
<path d="M125.583 74.1988C125.458 74.0426 125.245 73.9592 125.042 74.0165L120.839 75.1259C120.354 75.2509 120.25 75.579 120.547 75.9644L127.813 85.1363C127.86 85.204 127.906 85.2717 127.917 85.3238L129.511 91.3603C129.594 91.6676 129.849 91.8186 130.156 91.7353L133.849 90.7613C134.156 90.678 134.302 90.4228 134.224 90.1155L132.537 83.7249C132.516 83.6467 132.516 83.5374 132.526 83.4801L134.865 72.2144C134.979 71.7196 134.719 71.4592 134.24 71.5894L132.583 72.0269C132.38 72.079 132.235 72.2561 132.172 72.4332L130.787 79.6624C130.667 80.3499 130.276 80.428 129.854 79.8551L125.583 74.1988Z" fill="#FFF2E3"/>
<path d="M68.3805 129.636C65.4587 130.433 62.7139 128.188 61.6253 124.063C60.542 119.964 61.7972 116.771 64.8285 115.969C66.1253 115.625 67.4274 115.802 68.693 116.474C68.9743 116.62 69.2868 116.563 69.4482 116.25L70.2139 114.792C70.3285 114.516 70.2607 114.261 70.0055 114.115C68.2972 113.23 65.7139 113.037 63.3962 113.651C58.1514 115.037 55.0628 120.266 56.4326 125.459C57.8076 130.657 63.0628 133.735 68.2295 132.37C71.0055 131.641 73.0576 129.818 73.8805 127.448C73.9378 127.162 73.818 126.917 73.5524 126.829L72.2555 126.349C71.9535 126.24 71.6826 126.365 71.5472 126.672C70.9222 128.23 69.8337 129.25 68.3805 129.636Z" fill="#FFF2E3"/>
<path d="M78.6768 129.149C78.88 129.097 79.0518 128.915 79.0675 128.665L79.3331 124.399C79.3539 124.175 79.5154 123.972 79.7237 123.915L84.3591 122.696C84.5883 122.634 84.8279 122.732 84.9373 122.92L87.2706 126.503C87.406 126.712 87.6456 126.785 87.8487 126.732L91.7706 125.696C92.2029 125.581 92.3071 125.253 92.0727 124.878L81.7498 109.623C81.6196 109.441 81.3852 109.368 81.1821 109.42L78.2498 110.191C78.0466 110.248 77.88 110.43 77.8539 110.654L76.406 129.014C76.3904 129.456 76.6404 129.691 77.0727 129.576L78.6768 129.149ZM82.9633 119.899C83.2029 120.274 83.0883 120.576 82.656 120.691L80.2393 121.331C79.8018 121.441 79.531 121.243 79.5779 120.795L79.8018 116.785C79.8435 115.821 80.255 115.712 80.7706 116.529L82.9633 119.899Z" fill="#FFF2E3"/>
<path d="M97.4241 111.753C97.0543 112.503 96.6637 112.471 96.445 111.659L95.0335 106.31C94.9554 106.003 94.695 105.852 94.3929 105.935L90.7002 106.909C90.3929 106.987 90.2418 107.247 90.3252 107.549L94.7575 124.362C94.8408 124.669 95.096 124.815 95.4033 124.737L99.096 123.763C99.4033 123.68 99.5543 123.424 99.471 123.117L97.7418 116.57C97.7106 116.445 97.7262 116.305 97.7783 116.18L97.9189 115.898C98.0648 115.617 98.2991 115.581 98.5179 115.794L104.862 121.966C105.002 122.091 105.185 122.154 105.362 122.107L109.617 120.987C110.148 120.846 110.247 120.492 109.846 120.107L100.659 111.2C100.502 111.023 100.466 110.784 100.575 110.565L103.601 104.398C103.903 103.779 103.664 103.487 103.002 103.659L101.419 104.075C101.294 104.112 101.159 104.227 101.086 104.357L97.4241 111.753Z" fill="#FFF2E3"/>
<path d="M118.969 110.209C119.271 110.125 119.422 109.87 119.344 109.563L119.006 108.292C118.928 107.985 118.667 107.834 118.365 107.917L115.485 108.677C115.178 108.756 114.922 108.605 114.839 108.302L113.662 103.844C113.584 103.537 113.735 103.282 114.037 103.198L120.23 101.568C120.532 101.485 120.683 101.23 120.605 100.922L120.266 99.6462C120.188 99.3442 119.928 99.1931 119.626 99.2712L108.725 102.151C108.417 102.23 108.266 102.49 108.35 102.792L112.782 119.605C112.865 119.912 113.12 120.058 113.428 119.98L124.839 116.969C125.146 116.886 125.292 116.631 125.214 116.323L124.876 115.052C124.797 114.745 124.537 114.594 124.235 114.677L117.537 116.443C117.23 116.521 116.969 116.375 116.891 116.068L115.714 111.61C115.636 111.308 115.782 111.047 116.089 110.969L118.969 110.209Z" fill="#FFF2E3"/>
<path d="M127.983 100.828C127.727 99.8595 128.681 99.0366 130.691 98.5053C132.425 98.047 133.618 98.1408 135.139 98.9376C135.42 99.0835 135.727 99.0001 135.868 98.7189L136.655 97.2553C136.774 96.9793 136.707 96.7241 136.451 96.5783C134.712 95.672 132.29 95.4689 129.842 96.1147C125.514 97.2553 122.879 100.594 123.738 103.854C125.259 109.5 135.056 107.078 135.925 110.281C136.175 111.224 135.451 111.985 133.54 112.49C131.399 113.057 129.571 112.828 128.004 111.745C127.738 111.568 127.472 111.589 127.264 111.833L126.363 112.86C126.181 113.099 126.181 113.401 126.441 113.573C128.571 115.245 131.363 115.708 134.191 114.964C138.519 113.818 140.972 110.422 140.108 107.136C138.576 101.328 128.707 103.688 127.983 100.828Z" fill="#FFF2E3"/>
</svg>
