<svg width="127" height="127" viewBox="0 0 127 127" fill="none" xmlns="http://www.w3.org/2000/svg">
<mask id="mask0_19_4" style="mask-type:luminance" maskUnits="userSpaceOnUse" x="0" y="0" width="127" height="127">
<path d="M0 0H126.667V126.667H0V0Z" fill="white"/>
</mask>
<g mask="url(#mask0_19_4)">
<mask id="mask1_19_4" style="mask-type:luminance" maskUnits="userSpaceOnUse" x="-12" y="-13" width="152" height="152">
<path d="M-11.5989 10.5051L116.62 -12.1511L139.276 116.062L11.0625 138.724L-11.5989 10.5051Z" fill="white"/>
</mask>
<g mask="url(#mask1_19_4)">
<mask id="mask2_19_4" style="mask-type:luminance" maskUnits="userSpaceOnUse" x="-12" y="-13" width="152" height="152">
<path d="M-11.5989 10.5051L116.62 -12.1511L139.276 116.062L11.0625 138.724L-11.5989 10.5051Z" fill="white"/>
</mask>
<g mask="url(#mask2_19_4)">
<path d="M61.9167 4.58837C65.224 9.17691 71.8333 9.7342 75.875 5.80191C81.401 0.400868 90.75 3.79149 91.5208 11.505C92.099 17.1144 97.5312 20.9113 103 19.5363C110.484 17.6457 116.87 25.2394 113.714 32.2811C111.406 37.4217 114.198 43.4373 119.641 44.9738C127.083 47.078 128.807 56.8332 122.536 61.3644C117.948 64.6717 117.391 71.2759 121.323 75.3175C126.724 80.8436 123.333 90.1925 115.62 90.9634C110.01 91.5415 106.214 96.9738 107.589 102.443C109.479 109.932 101.885 116.318 94.8437 113.161C89.7031 110.854 83.6875 113.64 82.151 119.083C80.0469 126.531 70.2917 128.255 65.7604 121.979C62.4531 117.39 55.849 116.838 51.8073 120.765C46.2812 126.166 36.9323 122.776 36.1615 115.068C35.5833 109.458 30.151 105.656 24.6823 107.036C17.1927 108.927 10.8073 101.333 13.9635 94.2915C16.2708 89.1509 13.4844 83.13 8.04166 81.5988C0.593743 79.4946 -1.13021 69.7394 5.14583 65.2082C9.73437 61.9009 10.2865 55.2915 6.35937 51.255C0.958328 45.7238 4.34895 36.3748 12.0573 35.604C17.6667 35.0259 21.4687 29.5936 20.0885 24.1248C18.1979 16.6405 25.7917 10.255 32.8333 13.4113C37.974 15.7186 43.9948 12.9269 45.526 7.48941C47.6094 0.0414925 57.3906 -1.68247 61.9167 4.58837Z" fill="#EFC1C7"/>
</g>
</g>
</g>
<mask id="mask3_19_4" style="mask-type:luminance" maskUnits="userSpaceOnUse" x="30" y="29" width="66" height="67">
<path d="M30.6667 29.3333H96V95.9999H30.6667V29.3333Z" fill="white"/>
</mask>
<g mask="url(#mask3_19_4)">
<mask id="mask4_19_4" style="mask-type:luminance" maskUnits="userSpaceOnUse" x="25" y="25" width="77" height="76">
<path d="M25.6198 36.5469L89.7292 25.2188L101.057 89.3229L36.9531 100.656L25.6198 36.5469Z" fill="white"/>
</mask>
<g mask="url(#mask4_19_4)">
<mask id="mask5_19_4" style="mask-type:luminance" maskUnits="userSpaceOnUse" x="25" y="25" width="77" height="76">
<path d="M25.6198 36.5469L89.7292 25.2188L101.057 89.3229L36.9531 100.656L25.6198 36.5469Z" fill="white"/>
</mask>
<g mask="url(#mask5_19_4)">
<path d="M69.0052 94.9895C86.7083 91.8593 98.5208 74.9739 95.3958 57.2707C92.2656 39.5676 75.3802 27.7551 57.677 30.8801C39.9739 34.0103 28.1562 50.8957 31.2864 68.5989C34.4166 86.302 51.302 98.1197 69.0052 94.9895Z" fill="#FFF2E3"/>
</g>
</g>
</g>
<mask id="mask6_19_4" style="mask-type:luminance" maskUnits="userSpaceOnUse" x="33" y="33" width="61" height="61">
<path d="M33.3333 33.3333H93.3333V93.3333H33.3333V33.3333Z" fill="white"/>
</mask>
<g mask="url(#mask6_19_4)">
<mask id="mask7_19_4" style="mask-type:luminance" maskUnits="userSpaceOnUse" x="25" y="25" width="77" height="76">
<path d="M25.6198 36.5469L89.7292 25.2188L101.057 89.3229L36.9531 100.656L25.6198 36.5469Z" fill="white"/>
</mask>
<g mask="url(#mask7_19_4)">
<mask id="mask8_19_4" style="mask-type:luminance" maskUnits="userSpaceOnUse" x="25" y="25" width="77" height="76">
<path d="M25.6198 36.5469L89.7292 25.2188L101.057 89.3229L36.9531 100.656L25.6198 36.5469Z" fill="white"/>
</mask>
<g mask="url(#mask8_19_4)">
<path d="M68.4531 91.8594C84.4271 89.0365 95.0885 73.7969 92.2656 57.823C89.4427 41.849 74.2031 31.1875 58.2291 34.0104C42.2552 36.8334 31.5937 52.073 34.4166 68.0469C37.2396 84.0209 52.4791 94.6823 68.4531 91.8594Z" fill="#FFF2E3"/>
</g>
</g>
</g>
<mask id="mask9_19_4" style="mask-type:luminance" maskUnits="userSpaceOnUse" x="40" y="53" width="46" height="30">
<path d="M40 53.3333H85.3333V82.6666H40V53.3333Z" fill="white"/>
</mask>
<g mask="url(#mask9_19_4)">
<mask id="mask10_19_4" style="mask-type:luminance" maskUnits="userSpaceOnUse" x="25" y="25" width="77" height="76">
<path d="M25.6198 36.5469L89.7292 25.2188L101.057 89.3229L36.9531 100.656L25.6198 36.5469Z" fill="white"/>
</mask>
<g mask="url(#mask10_19_4)">
<mask id="mask11_19_4" style="mask-type:luminance" maskUnits="userSpaceOnUse" x="25" y="25" width="77" height="76">
<path d="M25.6198 36.5469L89.7292 25.2188L101.057 89.3229L36.9531 100.656L25.6198 36.5469Z" fill="white"/>
</mask>
<g mask="url(#mask11_19_4)">
<path d="M66.5573 81.1511C60.8073 82.1615 54.8854 80.849 50.0989 77.5001C45.3125 74.1511 42.0469 69.0417 41.0208 63.2917C40.9739 62.8595 41.0885 62.422 41.3489 62.073C41.6041 61.724 41.9896 61.4897 42.4166 61.4115C42.8437 61.3386 43.2864 61.4272 43.6458 61.6667C44.0104 61.9063 44.2708 62.2761 44.3698 62.698C44.6823 65.2084 45.5 67.6355 46.776 69.8178C48.0573 72.0053 49.7656 73.9063 51.8021 75.4115C53.8385 76.9167 56.1562 77.9897 58.625 78.5678C61.0885 79.1459 63.6458 79.2188 66.1354 78.7761C68.6302 78.3386 71.0104 77.3959 73.125 76.0053C75.2396 74.6199 77.0521 72.8126 78.4531 70.7032C79.8489 68.5886 80.8021 66.2188 81.2552 63.724C81.7031 61.2345 81.6458 58.6772 81.0781 56.2136C81.026 55.7813 81.1406 55.3438 81.401 54.9949C81.6614 54.6459 82.0416 54.4115 82.4687 54.3334C82.8958 54.2605 83.3385 54.349 83.7031 54.5886C84.0625 54.8282 84.3229 55.198 84.4219 55.6199C85.4323 61.3751 84.1198 67.2917 80.7708 72.0782C77.4219 76.8647 72.3125 80.1251 66.5573 81.1511Z" fill="#CBA15D"/>
</g>
</g>
</g>
<mask id="mask12_19_4" style="mask-type:luminance" maskUnits="userSpaceOnUse" x="50" y="45" width="10" height="17">
<path d="M50.6667 45.3333H60V61.3333H50.6667V45.3333Z" fill="white"/>
</mask>
<g mask="url(#mask12_19_4)">
<mask id="mask13_19_4" style="mask-type:luminance" maskUnits="userSpaceOnUse" x="25" y="25" width="77" height="76">
<path d="M25.6198 36.5469L89.7292 25.2188L101.057 89.3229L36.9531 100.656L25.6198 36.5469Z" fill="white"/>
</mask>
<g mask="url(#mask13_19_4)">
<mask id="mask14_19_4" style="mask-type:luminance" maskUnits="userSpaceOnUse" x="25" y="25" width="77" height="76">
<path d="M25.6198 36.5469L89.7292 25.2188L101.057 89.3229L36.9531 100.656L25.6198 36.5469Z" fill="white"/>
</mask>
<g mask="url(#mask14_19_4)">
<path d="M53.8593 45.8176C51.3281 46.2655 51.0989 50.2499 51.7291 53.8228C52.3593 57.3957 53.9271 61.0884 56.4791 60.6353C59.0312 60.1874 59.2396 56.2082 58.6093 52.6353C57.9791 49.0624 56.401 45.4009 53.8646 45.8488L53.8593 45.8176Z" fill="#CBA15D"/>
</g>
</g>
</g>
<mask id="mask15_19_4" style="mask-type:luminance" maskUnits="userSpaceOnUse" x="62" y="42" width="10" height="17">
<path d="M62.6667 42.6667H72V58.6667H62.6667V42.6667Z" fill="white"/>
</mask>
<g mask="url(#mask15_19_4)">
<mask id="mask16_19_4" style="mask-type:luminance" maskUnits="userSpaceOnUse" x="25" y="25" width="77" height="76">
<path d="M25.6198 36.5469L89.7292 25.2188L101.057 89.3229L36.9531 100.656L25.6198 36.5469Z" fill="white"/>
</mask>
<g mask="url(#mask16_19_4)">
<mask id="mask17_19_4" style="mask-type:luminance" maskUnits="userSpaceOnUse" x="25" y="25" width="77" height="76">
<path d="M25.6198 36.5469L89.7292 25.2188L101.057 89.3229L36.9531 100.656L25.6198 36.5469Z" fill="white"/>
</mask>
<g mask="url(#mask17_19_4)">
<path d="M66.3802 43.6094C63.8437 44.0573 63.6145 48.0365 64.25 51.6094C64.8802 55.1823 66.4635 58.8698 69 58.4219C71.5312 57.974 71.7604 53.9948 71.1302 50.4219C70.5 46.849 68.9218 43.1876 66.3854 43.6355L66.3802 43.6094Z" fill="#CBA15D"/>
</g>
</g>
</g>
</svg>
