<svg width="126" height="126" viewBox="0 0 126 126" fill="none" xmlns="http://www.w3.org/2000/svg">
<mask id="mask0_17_2" style="mask-type:luminance" maskUnits="userSpaceOnUse" x="0" y="0" width="126" height="126">
<path d="M0.666656 0.666748H126V126H0.666656V0.666748Z" fill="white"/>
</mask>
<g mask="url(#mask0_17_2)">
<mask id="mask1_17_2" style="mask-type:luminance" maskUnits="userSpaceOnUse" x="-19" y="-19" width="165" height="165">
<path d="M21.2552 -18.1978L145.089 22.0314L104.859 145.865L-18.974 105.636L21.2552 -18.1978Z" fill="white"/>
</mask>
<g mask="url(#mask1_17_2)">
<mask id="mask2_17_2" style="mask-type:luminance" maskUnits="userSpaceOnUse" x="-19" y="-19" width="165" height="165">
<path d="M21.2552 -18.1978L145.089 22.0314L104.859 145.865L-18.974 105.636L21.2552 -18.1978Z" fill="white"/>
</mask>
<g mask="url(#mask2_17_2)">
<path d="M88.9323 11.1148C89.6979 16.719 95.2708 20.3127 100.682 18.7398C108.099 16.568 114.76 23.9534 111.818 31.1252C109.693 36.3492 112.703 42.2555 118.177 43.6044C125.677 45.4586 127.745 55.1617 121.651 59.8909C117.198 63.3492 116.833 69.969 120.917 73.8805C126.5 79.2398 123.443 88.6617 115.776 89.7138C110.172 90.4742 106.578 96.0471 108.146 101.459C110.318 108.88 102.938 115.537 95.7656 112.594C90.5417 110.469 84.6354 113.479 83.2813 118.953C81.4323 126.453 71.7292 128.521 66.9948 122.427C63.5417 117.974 56.9219 117.61 53.0104 121.693C47.6511 127.282 38.2292 124.219 37.1771 116.552C36.4167 110.948 30.8438 107.354 25.4323 108.922C18.0104 111.094 11.3542 103.714 14.2969 96.5419C16.4167 91.318 13.4115 85.4117 7.93231 84.0575C0.437513 82.2086 -1.63019 72.5055 4.46356 67.7763C8.91147 64.318 9.28126 57.6982 5.19793 53.7867C-0.390613 48.4273 2.67189 39.0055 10.3386 37.9534C15.9427 37.193 19.5365 31.62 17.9636 26.2086C15.7917 18.7867 23.1771 12.1305 30.349 15.0732C35.5729 17.1982 41.4792 14.1878 42.8281 8.71379C44.6823 1.21379 54.3802 -0.853918 59.1146 5.23983C62.5729 9.69296 69.1927 10.0575 73.1042 5.97421C78.4375 0.380458 87.8802 3.44817 88.9323 11.1148Z" fill="#CBA15D"/>
</g>
</g>
</g>
<mask id="mask3_17_2" style="mask-type:luminance" maskUnits="userSpaceOnUse" x="30" y="30" width="67" height="67">
<path d="M30 30H96.6667V96.6667H30V30Z" fill="white"/>
</mask>
<g mask="url(#mask3_17_2)">
<mask id="mask4_17_2" style="mask-type:luminance" maskUnits="userSpaceOnUse" x="21" y="22" width="83" height="83">
<path d="M41.8802 22.2761L103.797 42.3907L83.6823 104.307L21.7656 84.1876L41.8802 22.2761Z" fill="white"/>
</mask>
<g mask="url(#mask4_17_2)">
<mask id="mask5_17_2" style="mask-type:luminance" maskUnits="userSpaceOnUse" x="21" y="22" width="83" height="83">
<path d="M41.8802 22.2761L103.797 42.3907L83.6823 104.307L21.7656 84.1876L41.8802 22.2761Z" fill="white"/>
</mask>
<g mask="url(#mask5_17_2)">
<path d="M52.7239 94.25C69.8177 99.8021 88.1823 90.4427 93.7396 73.349C99.2917 56.25 89.9323 37.8854 72.8385 32.3333C55.7396 26.776 37.375 36.1354 31.8229 53.2344C26.2656 70.3281 35.625 88.6927 52.7239 94.25Z" fill="#FFF2E3"/>
</g>
</g>
</g>
<mask id="mask6_17_2" style="mask-type:luminance" maskUnits="userSpaceOnUse" x="32" y="32" width="61" height="62">
<path d="M32.6667 32.6667H92.6667V94.0001H32.6667V32.6667Z" fill="white"/>
</mask>
<g mask="url(#mask6_17_2)">
<mask id="mask7_17_2" style="mask-type:luminance" maskUnits="userSpaceOnUse" x="21" y="22" width="83" height="83">
<path d="M41.8802 22.2761L103.797 42.3907L83.6823 104.307L21.7656 84.1876L41.8802 22.2761Z" fill="white"/>
</mask>
<g mask="url(#mask7_17_2)">
<mask id="mask8_17_2" style="mask-type:luminance" maskUnits="userSpaceOnUse" x="21" y="22" width="83" height="83">
<path d="M41.8802 22.2761L103.797 42.3907L83.6823 104.307L21.7656 84.1876L41.8802 22.2761Z" fill="white"/>
</mask>
<g mask="url(#mask8_17_2)">
<path d="M53.7031 91.2239C69.1302 96.2395 85.7031 87.7916 90.7135 72.3645C95.7292 56.9374 87.2813 40.3645 71.8542 35.3541C56.4271 30.3436 39.8594 38.7864 34.8438 54.2134C29.8333 69.6405 38.276 86.2134 53.7031 91.2239Z" fill="#FFF2E3"/>
</g>
</g>
</g>
<mask id="mask9_17_2" style="mask-type:luminance" maskUnits="userSpaceOnUse" x="40" y="51" width="46" height="31">
<path d="M40.6667 51.3333H86V81.9999H40.6667V51.3333Z" fill="white"/>
</mask>
<g mask="url(#mask9_17_2)">
<mask id="mask10_17_2" style="mask-type:luminance" maskUnits="userSpaceOnUse" x="21" y="22" width="83" height="83">
<path d="M41.8802 22.2759L103.797 42.3905L83.6823 104.307L21.7656 84.1873L41.8802 22.2759Z" fill="white"/>
</mask>
<g mask="url(#mask10_17_2)">
<mask id="mask11_17_2" style="mask-type:luminance" maskUnits="userSpaceOnUse" x="21" y="22" width="83" height="83">
<path d="M41.8802 22.2759L103.797 42.3905L83.6823 104.307L21.7656 84.1873L41.8802 22.2759Z" fill="white"/>
</mask>
<g mask="url(#mask11_17_2)">
<path d="M57.0625 80.8853C51.5104 79.0728 46.901 75.1301 44.2448 69.927C41.5937 64.7238 41.1146 58.677 42.9114 53.1197C43.0677 52.7134 43.375 52.3853 43.7708 52.1978C44.1614 52.0103 44.6094 51.9842 45.0208 52.1145C45.4375 52.2499 45.7812 52.5363 45.9896 52.9217C46.1979 53.302 46.2552 53.7499 46.1406 54.1665C45.2396 56.5311 44.8229 59.0572 44.9271 61.5832C45.026 64.1145 45.6406 66.5988 46.7291 68.8801C47.8229 71.1665 49.3698 73.2082 51.2708 74.8749C53.1771 76.5415 55.401 77.8072 57.8073 78.5884C60.2135 79.3697 62.7552 79.6561 65.276 79.427C67.7969 79.1926 70.2448 78.453 72.4687 77.2447C74.6979 76.0363 76.651 74.3905 78.2239 72.4009C79.7916 70.4165 80.9375 68.1301 81.5937 65.6874C81.7552 65.2811 82.0573 64.953 82.4531 64.7655C82.8437 64.578 83.2916 64.552 83.7083 64.6822C84.1198 64.8176 84.4687 65.104 84.6771 65.4895C84.8854 65.8697 84.9375 66.3176 84.8281 66.7342C83.0156 72.2915 79.0729 76.8957 73.8698 79.5467C68.6666 82.203 62.6198 82.6822 57.0625 80.8853Z" fill="#CBA15D"/>
</g>
</g>
</g>
<mask id="mask12_17_2" style="mask-type:luminance" maskUnits="userSpaceOnUse" x="55" y="43" width="10" height="17">
<path d="M55.3333 43.3333H64.6666V59.3333H55.3333V43.3333Z" fill="white"/>
</mask>
<g mask="url(#mask12_17_2)">
<mask id="mask13_17_2" style="mask-type:luminance" maskUnits="userSpaceOnUse" x="21" y="22" width="83" height="83">
<path d="M41.8802 22.2759L103.797 42.3905L83.6823 104.307L21.7656 84.1873L41.8802 22.2759Z" fill="white"/>
</mask>
<g mask="url(#mask13_17_2)">
<mask id="mask14_17_2" style="mask-type:luminance" maskUnits="userSpaceOnUse" x="21" y="22" width="83" height="83">
<path d="M41.8802 22.2759L103.797 42.3905L83.6823 104.307L21.7656 84.1873L41.8802 22.2759Z" fill="white"/>
</mask>
<g mask="url(#mask14_17_2)">
<path d="M62.4532 43.7289C60.0052 42.9321 57.9323 46.3383 56.8125 49.7914C55.6927 53.2394 55.3386 57.2342 57.8021 58.0362C60.2657 58.8383 62.3229 55.4269 63.4427 51.9737C64.5625 48.5206 64.8907 44.5467 62.4427 43.755L62.4532 43.7289Z" fill="#CBA15D"/>
</g>
</g>
</g>
<mask id="mask15_17_2" style="mask-type:luminance" maskUnits="userSpaceOnUse" x="67" y="47" width="10" height="17">
<path d="M67.3333 47.3333H76.6666V63.3333H67.3333V47.3333Z" fill="white"/>
</mask>
<g mask="url(#mask15_17_2)">
<mask id="mask16_17_2" style="mask-type:luminance" maskUnits="userSpaceOnUse" x="21" y="22" width="83" height="83">
<path d="M41.8802 22.2759L103.797 42.3905L83.6823 104.307L21.7656 84.1873L41.8802 22.2759Z" fill="white"/>
</mask>
<g mask="url(#mask16_17_2)">
<mask id="mask17_17_2" style="mask-type:luminance" maskUnits="userSpaceOnUse" x="21" y="22" width="83" height="83">
<path d="M41.8802 22.2759L103.797 42.3905L83.6823 104.307L21.7656 84.1873L41.8802 22.2759Z" fill="white"/>
</mask>
<g mask="url(#mask17_17_2)">
<path d="M74.5416 47.6562C72.0937 46.8593 70.0208 50.2656 68.901 53.7187C67.7812 57.1666 67.4427 61.1718 69.8958 61.9635C72.3437 62.7604 74.4114 59.3541 75.5364 55.901C76.6562 52.4531 76.9843 48.4791 74.5364 47.6822L74.5416 47.6562Z" fill="#CBA15D"/>
</g>
</g>
</g>
</svg>
