<svg width="83" height="82" viewBox="0 0 83 82" fill="none" xmlns="http://www.w3.org/2000/svg">
<mask id="mask0_51_7" style="mask-type:luminance" maskUnits="userSpaceOnUse" x="0" y="0" width="83" height="82">
<path d="M0 0H82.6667V81.3333H0V0Z" fill="white"/>
</mask>
<g mask="url(#mask0_51_7)">
<mask id="mask1_51_7" style="mask-type:luminance" maskUnits="userSpaceOnUse" x="-8" y="-9" width="99" height="99">
<path d="M-7.38019 6.71358L75.2813 -8.22913L90.2188 74.4323L7.55731 89.375L-7.38019 6.71358Z" fill="white"/>
</mask>
<g mask="url(#mask1_51_7)">
<mask id="mask2_51_7" style="mask-type:luminance" maskUnits="userSpaceOnUse" x="-8" y="-9" width="99" height="99">
<path d="M-7.38019 6.71358L75.2813 -8.22913L90.2188 74.4323L7.55731 89.375L-7.38019 6.71358Z" fill="white"/>
</mask>
<g mask="url(#mask2_51_7)">
<path d="M40.0312 2.7136C42.1771 5.66151 46.4427 6.00526 49.0364 3.45839C52.5885 -0.0416114 58.6302 2.12506 59.1458 7.09901C59.5364 10.7136 63.0469 13.1511 66.5729 12.2501C71.3958 11.0105 75.5364 15.8959 73.5208 20.4428C72.0417 23.7657 73.8542 27.6407 77.3698 28.6198C82.1823 29.9584 83.3177 36.2449 79.2812 39.1876C76.3281 41.3334 75.9896 45.5938 78.5364 48.1928C82.0312 51.7449 79.8698 57.7813 74.8958 58.3021C71.2812 58.6876 68.8385 62.2032 69.7448 65.724C70.9792 70.5521 66.0989 74.6928 61.5469 72.6719C58.2239 71.198 54.3489 73.0105 53.375 76.5261C52.0364 81.3334 45.7448 82.474 42.8073 78.4376C40.6614 75.4844 36.3958 75.1407 33.8021 77.6876C30.25 81.1876 24.2083 79.0209 23.6927 74.0521C23.3021 70.4324 19.7917 67.9949 16.2656 68.8959C11.4427 70.1355 7.30207 65.2501 9.3229 60.7032C10.7969 57.3803 8.98436 53.5053 5.46874 52.5261C0.656239 51.1876 -0.47918 44.9011 3.55728 41.9584C6.5104 39.8178 6.84895 35.5521 4.30728 32.9532C0.807279 29.4011 2.96874 23.3646 7.9427 22.849C11.5625 22.4584 14 18.9428 13.0937 15.4219C11.8594 10.5938 16.7396 6.45839 21.2917 8.47401C24.6146 9.94797 28.4896 8.13547 29.4635 4.61985C30.7864 -0.187445 37.0937 -1.32286 40.0312 2.7136Z" fill="#CBA15D"/>
</g>
</g>
</g>
<mask id="mask3_51_7" style="mask-type:luminance" maskUnits="userSpaceOnUse" x="20" y="18" width="43" height="45">
<path d="M20 18.6666H62.6667V62.6666H20V18.6666Z" fill="white"/>
</mask>
<g mask="url(#mask3_51_7)">
<mask id="mask4_51_7" style="mask-type:luminance" maskUnits="userSpaceOnUse" x="16" y="15" width="50" height="50">
<path d="M16.6979 23.4166L58.0261 15.9479L65.4948 57.2812L24.1667 64.75L16.6979 23.4166Z" fill="white"/>
</mask>
<g mask="url(#mask4_51_7)">
<mask id="mask5_51_7" style="mask-type:luminance" maskUnits="userSpaceOnUse" x="16" y="15" width="50" height="50">
<path d="M16.6979 23.4166L58.0261 15.9479L65.4948 57.2812L24.1667 64.75L16.6979 23.4166Z" fill="white"/>
</mask>
<g mask="url(#mask5_51_7)">
<path d="M44.8334 61.0156C56.2448 58.9531 63.823 48.026 61.7605 36.6145C59.698 25.2031 48.7761 17.6197 37.3594 19.6822C25.948 21.7447 18.3698 32.6718 20.4323 44.0833C22.4948 55.4947 33.4167 63.0781 44.8334 61.0156Z" fill="#FFF2E3"/>
</g>
</g>
</g>
<mask id="mask6_51_7" style="mask-type:luminance" maskUnits="userSpaceOnUse" x="21" y="21" width="41" height="39">
<path d="M21.3333 21.3334H61.3333V60H21.3333V21.3334Z" fill="white"/>
</mask>
<g mask="url(#mask6_51_7)">
<mask id="mask7_51_7" style="mask-type:luminance" maskUnits="userSpaceOnUse" x="16" y="15" width="50" height="50">
<path d="M16.6979 23.4167L58.0261 15.948L65.4948 57.2813L24.1667 64.7501L16.6979 23.4167Z" fill="white"/>
</mask>
<g mask="url(#mask7_51_7)">
<mask id="mask8_51_7" style="mask-type:luminance" maskUnits="userSpaceOnUse" x="16" y="15" width="50" height="50">
<path d="M16.6979 23.4167L58.0261 15.948L65.4948 57.2813L24.1667 64.7501L16.6979 23.4167Z" fill="white"/>
</mask>
<g mask="url(#mask8_51_7)">
<path d="M44.4687 58.9949C54.7656 57.1355 61.6042 47.2761 59.7448 36.9792C57.8802 26.6823 48.026 19.8386 37.7239 21.7032C27.4271 23.5626 20.5885 33.4219 22.4479 43.7188C24.3125 54.0209 34.1667 60.8594 44.4687 58.9949Z" fill="#FFF2E3"/>
</g>
</g>
</g>
<mask id="mask9_51_7" style="mask-type:luminance" maskUnits="userSpaceOnUse" x="26" y="34" width="30" height="20">
<path d="M26.6667 34.6666H56V53.3333H26.6667V34.6666Z" fill="white"/>
</mask>
<g mask="url(#mask9_51_7)">
<mask id="mask10_51_7" style="mask-type:luminance" maskUnits="userSpaceOnUse" x="16" y="15" width="50" height="50">
<path d="M16.6979 23.4166L58.0261 15.9479L65.4948 57.2812L24.1667 64.75L16.6979 23.4166Z" fill="white"/>
</mask>
<g mask="url(#mask10_51_7)">
<mask id="mask11_51_7" style="mask-type:luminance" maskUnits="userSpaceOnUse" x="16" y="15" width="50" height="50">
<path d="M16.6979 23.4166L58.0261 15.9479L65.4948 57.2812L24.1667 64.75L16.6979 23.4166Z" fill="white"/>
</mask>
<g mask="url(#mask11_51_7)">
<path d="M43.2188 52.0937C39.5104 52.7604 35.6875 51.927 32.5885 49.7812C29.4948 47.6302 27.375 44.3437 26.6979 40.6354C26.6667 40.3541 26.7396 40.0729 26.9063 39.8489C27.0729 39.6249 27.3177 39.4687 27.5938 39.4218C27.8698 39.3697 28.1563 39.427 28.3906 39.5833C28.625 39.7343 28.7917 39.9687 28.8542 40.2447C29.0625 41.8645 29.599 43.427 30.4271 44.8333C31.2604 46.2395 32.3646 47.4635 33.6823 48.427C35 49.3906 36.5 50.0781 38.0938 50.4479C39.6823 50.8125 41.3333 50.8541 42.9427 50.5625C44.5469 50.2708 46.0781 49.6562 47.4427 48.7552C48.8021 47.8541 49.9688 46.6874 50.8646 45.3229C51.7604 43.9583 52.3698 42.4218 52.6563 40.8124C52.9375 39.2083 52.8958 37.5572 52.5208 35.9687C52.4896 35.6875 52.5625 35.4062 52.7292 35.1822C52.8958 34.9583 53.1406 34.802 53.4167 34.7499C53.6927 34.7031 53.974 34.7604 54.2136 34.9114C54.4479 35.0677 54.6146 35.302 54.6771 35.5781C55.3438 39.2864 54.5104 43.1093 52.3646 46.2031C50.2135 49.302 46.9271 51.4166 43.2188 52.0937Z" fill="#CBA15D"/>
</g>
</g>
</g>
<mask id="mask12_51_7" style="mask-type:luminance" maskUnits="userSpaceOnUse" x="33" y="28" width="6" height="12">
<path d="M33.3333 28H38.6666V40H33.3333V28Z" fill="white"/>
</mask>
<g mask="url(#mask12_51_7)">
<mask id="mask13_51_7" style="mask-type:luminance" maskUnits="userSpaceOnUse" x="16" y="15" width="50" height="50">
<path d="M16.6979 23.4166L58.0261 15.9479L65.4948 57.2812L24.1667 64.75L16.6979 23.4166Z" fill="white"/>
</mask>
<g mask="url(#mask13_51_7)">
<mask id="mask14_51_7" style="mask-type:luminance" maskUnits="userSpaceOnUse" x="16" y="15" width="50" height="50">
<path d="M16.6979 23.4166L58.0261 15.9479L65.4948 57.2812L24.1667 64.75L16.6979 23.4166Z" fill="white"/>
</mask>
<g mask="url(#mask14_51_7)">
<path d="M34.9375 29.3332C33.3021 29.6249 33.1667 32.1978 33.5833 34.4999C34 36.802 35.0208 39.1822 36.6615 38.8853C38.3073 38.5832 38.4375 36.0207 38.0208 33.7135C37.6042 31.4114 36.5729 29.052 34.9427 29.3489L34.9375 29.3332Z" fill="#CBA15D"/>
</g>
</g>
</g>
<mask id="mask15_51_7" style="mask-type:luminance" maskUnits="userSpaceOnUse" x="41" y="26" width="6" height="13">
<path d="M41.3333 26.6666H46.6666V38.6666H41.3333V26.6666Z" fill="white"/>
</mask>
<g mask="url(#mask15_51_7)">
<mask id="mask16_51_7" style="mask-type:luminance" maskUnits="userSpaceOnUse" x="16" y="15" width="50" height="50">
<path d="M16.6979 23.4166L58.0261 15.9479L65.4948 57.2812L24.1667 64.75L16.6979 23.4166Z" fill="white"/>
</mask>
<g mask="url(#mask16_51_7)">
<mask id="mask17_51_7" style="mask-type:luminance" maskUnits="userSpaceOnUse" x="16" y="15" width="50" height="50">
<path d="M16.6979 23.4166L58.0261 15.9479L65.4948 57.2812L24.1667 64.75L16.6979 23.4166Z" fill="white"/>
</mask>
<g mask="url(#mask17_51_7)">
<path d="M43.0104 27.8698C41.375 28.1667 41.2395 30.7344 41.6562 33.0417C42.0677 35.3437 43.0989 37.7187 44.7343 37.4219C46.3698 37.1302 46.5052 34.5573 46.0885 32.2552C45.6718 29.9531 44.6458 27.5937 43.0104 27.8906V27.8698Z" fill="#CBA15D"/>
</g>
</g>
</g>
</svg>
